<svg width="25" height="30" viewBox="0 0 25 30" fill="none" xmlns="http://www.w3.org/2000/svg">
<g clip-path="url(#clip0)">
<path d="M12.1 2C17.6 2 22.2 6.5 22.2 12.1C22.2 18.5 15 25.1 12.1 27.5C9.2 25 2 18.4 2 12.1C2 6.5 6.5 2 12.1 2ZM12.1 0C5.4 0 0 5.4 0 12.1C0 21.1 12.1 30 12.1 30C12.1 30 24.2 21.1 24.2 12.1C24.1 5.4 18.7 0 12.1 0Z" fill="#222222"/>
<path d="M12.1 9.20001C13.7001 9.20001 14.9001 10.5 14.9001 12C14.9001 13.5 13.6001 14.8 12.1 14.8C10.6 14.8 9.30005 13.5 9.30005 12C9.30005 10.5 10.5 9.20001 12.1 9.20001ZM12.1 7.20001C9.40005 7.20001 7.30005 9.40001 7.30005 12C7.30005 14.6 9.50005 16.8 12.1 16.8C14.7001 16.8 16.9001 14.6 16.9001 12C16.9001 9.40001 14.7001 7.20001 12.1 7.20001Z" fill="#222222"/>
<g clip-path="url(#clip1)">
<path d="M12.1 1.5C17.9 1.5 22.7 6.2 22.7 12.1C22.7 18.9 14.8 25.9 12.1 28.1C9.4 25.9 1.5 18.9 1.5 12.1C1.5 6.2 6.2 1.5 12.1 1.5ZM12.1 0C5.4 0 0 5.4 0 12.1C0 21.1 12.1 30 12.1 30C12.1 30 24.2 21.1 24.2 12.1C24.1 5.4 18.7 0 12.1 0Z" fill="#222222"/>
<path d="M12.1 8.70001C13.9001 8.70001 15.4001 10.2 15.4001 12C15.4001 13.8 13.9001 15.3 12.1 15.3C10.3 15.3 8.80005 13.8 8.80005 12C8.80005 10.2 10.2 8.70001 12.1 8.70001ZM12.1 7.20001C9.40005 7.20001 7.30005 9.40001 7.30005 12C7.30005 14.6 9.50005 16.8 12.1 16.8C14.7001 16.8 16.9001 14.6 16.9001 12C16.9001 9.40001 14.7001 7.20001 12.1 7.20001Z" fill="#222222"/>
</g>
</g>
<defs>
<clipPath id="clip0">
<rect width="24.1" height="30" fill="white"/>
</clipPath>
<clipPath id="clip1">
<rect width="24.1" height="30" fill="white"/>
</clipPath>
</defs>
</svg>
