<svg width="25" height="30" viewBox="0 0 25 30" fill="none" xmlns="http://www.w3.org/2000/svg">
<path d="M12.1 1.5C17.9 1.5 22.7 6.2 22.7 12.1C22.7 18.9 14.8 25.9 12.1 28.1C9.4 25.9 1.5 18.9 1.5 12.1C1.5 6.2 6.2 1.5 12.1 1.5ZM12.1 0C5.4 0 0 5.4 0 12.1C0 21.1 12.1 30 12.1 30C12.1 30 24.2 21.1 24.2 12.1C24.1 5.4 18.7 0 12.1 0Z" fill="white"/>
<path d="M12.1 8.70001C13.9 8.70001 15.4 10.2 15.4 12C15.4 13.8 13.9 15.3 12.1 15.3C10.3 15.3 8.80005 13.8 8.80005 12C8.80005 10.2 10.2 8.70001 12.1 8.70001ZM12.1 7.20001C9.40005 7.20001 7.30005 9.40001 7.30005 12C7.30005 14.6 9.50005 16.8 12.1 16.8C14.7 16.8 16.9 14.6 16.9 12C16.9 9.40001 14.7 7.20001 12.1 7.20001Z" fill="white"/>
</svg>
