<svg width="40" height="40" viewBox="0 0 40 40" fill="none" xmlns="http://www.w3.org/2000/svg">
<g clip-path="url(#clip0)">
<path d="M21.8 22.4V21.8C21.8 19.1 20.7 16.5 18.8 14.5C18.3 14 17.7 13.6 17.1 13.2V11.1C17.1 9.9 16.1 8.8 14.8 8.8H13.5V9.1H12.2V8.8H10.9V9.1H9.6V8.8H8.3C7 8.8 6 9.8 6 11.1V13.3C3.1 15.1 1.3 18.4 1.3 21.8V22.4C0.5 22.8 0 23.6 0 24.4V25.7C0 26.2 0.4 26.6 0.9 26.6H22.2C22.7 26.6 23.1 26.2 23.1 25.7V24.4C23.2 23.5 22.6 22.7 21.8 22.4ZM3.2 22.2V21.8C3.2 18.9 4.7 16.2 7.2 14.7H16C16.6 15 17.1 15.4 17.5 15.8C19.1 17.4 20 19.5 20 21.8V22.2H3.2ZM15.3 11.1V12.9H7.8V11.1C7.8 10.9 8 10.7 8.2 10.7H14.9C15.1 10.7 15.3 10.9 15.3 11.1ZM21.3 24.4V24.8H1.8V24.4C1.8 24.2 2 24 2.3 24H21C21.1 24 21.3 24.2 21.3 24.4Z" fill="#222222"/>
<path d="M11.6 27.5C11.1 27.5 10.7 27.9 10.7 28.4V31.1C10.7 31.6 11.1 32 11.6 32C12.1 32 12.5 31.6 12.5 31.1V28.4C12.5 27.9 12.1 27.5 11.6 27.5Z" fill="#222222"/>
<path d="M11.6 32.8C11.1 32.8 10.7 33.2 10.7 33.7V36.4C10.7 36.9 11.1 37.3 11.6 37.3C12.1 37.3 12.5 36.9 12.5 36.4V33.7C12.5 33.2 12.1 32.8 11.6 32.8Z" fill="#222222"/>
<path d="M19.6 30.2C19.1 30.2 18.7 30.6 18.7 31.1V33.8C18.7 34.3 19.1 34.7 19.6 34.7C20.1 34.7 20.5 34.3 20.5 33.8V31.1C20.5 30.6 20.1 30.2 19.6 30.2Z" fill="#222222"/>
<path d="M14.3 30.2C13.8 30.2 13.4 30.6 13.4 31.1V33.8C13.4 34.3 13.8 34.7 14.3 34.7C14.8 34.7 15.2 34.3 15.2 33.8V31.1C15.2 30.6 14.8 30.2 14.3 30.2Z" fill="#222222"/>
<path d="M8.9 30.2C8.4 30.2 8 30.6 8 31.1V33.8C8 34.3 8.4 34.7 8.9 34.7C9.4 34.7 9.8 34.3 9.8 33.8V31.1C9.8 30.6 9.4 30.2 8.9 30.2Z" fill="#222222"/>
<path d="M3.59995 30.2C3.09995 30.2 2.69995 30.6 2.69995 31.1V33.8C2.69995 34.3 3.09995 34.7 3.59995 34.7C4.09995 34.7 4.49995 34.3 4.49995 33.8V31.1C4.49995 30.6 4.09995 30.2 3.59995 30.2Z" fill="#222222"/>
<path d="M6.30002 27.5C5.80002 27.5 5.40002 27.9 5.40002 28.4V31.1C5.40002 31.6 5.80002 32 6.30002 32C6.80002 32 7.20002 31.6 7.20002 31.1V28.4C7.20002 27.9 6.80002 27.5 6.30002 27.5Z" fill="#222222"/>
<path d="M16.9 27.5C16.4 27.5 16 27.9 16 28.4V31.1C16 31.6 16.4 32 16.9 32C17.4 32 17.8 31.6 17.8 31.1V28.4C17.8 27.9 17.4 27.5 16.9 27.5Z" fill="#222222"/>
<path d="M16.9 32.8C16.4 32.8 16 33.2 16 33.7V36.4C16 36.9 16.4 37.3 16.9 37.3C17.4 37.3 17.8 36.9 17.8 36.4V33.7C17.8 33.2 17.4 32.8 16.9 32.8Z" fill="#222222"/>
<path d="M6.30002 32.8C5.80002 32.8 5.40002 33.2 5.40002 33.7V36.4C5.40002 36.9 5.80002 37.3 6.30002 37.3C6.80002 37.3 7.20002 36.9 7.20002 36.4V33.7C7.20002 33.2 6.80002 32.8 6.30002 32.8Z" fill="#222222"/>
<path d="M8.9 35.5C8.4 35.5 8 35.9 8 36.4V39.1C8 39.6 8.4 40 8.9 40C9.4 40 9.8 39.6 9.8 39.1V36.4C9.8 35.9 9.4 35.5 8.9 35.5Z" fill="#222222"/>
<path d="M14.3 35.5C13.8 35.5 13.4 35.9 13.4 36.4V39.1C13.4 39.6 13.8 40 14.3 40C14.8 40 15.2 39.6 15.2 39.1V36.4C15.2 35.9 14.8 35.5 14.3 35.5Z" fill="#222222"/>
<path d="M36 3.89999H11C10.5 3.89999 10.2 4.29999 10.2 4.69999V9.49999H13.2V6.89999H36V3.89999Z" stroke="#222222" stroke-width="2" stroke-miterlimit="10"/>
<path d="M38 2V8.8H37V2H38ZM40 0H36.4C35.6 0 35 0.6 35 1.4V9.5C35 10.2 35.6 10.9 36.4 10.9H40V0Z" fill="#222222"/>
</g>
<defs>
<clipPath id="clip0">
<rect width="40" height="40" fill="white"/>
</clipPath>
</defs>
</svg>
