<svg width="30" height="30" viewBox="0 0 30 30" fill="none" xmlns="http://www.w3.org/2000/svg">
<g clip-path="url(#clip0)">
<path d="M5.70017 1.69995C4.90017 1.69995 4.20018 1.99995 3.50018 2.59995L1.40018 4.89995C0.600175 5.69995 0.100175 6.59995 0.000175182 7.79995C-0.199825 9.59995 0.400175 11.4 0.800175 12.5C1.80018 15.3 3.40017 17.8 5.60017 20.6C8.40018 23.9 11.7002 26.5 15.5002 28.4C17.0002 29.1 18.9002 29.9 21.1002 30C21.2002 30 21.4002 30 21.5002 30C23.0002 30 24.2002 29.5 25.2002 28.4C25.5002 28 25.9002 27.6 26.3002 27.3C26.6002 27 26.9002 26.8 27.1002 26.5C27.7002 25.8 28.1002 25.1 28.1002 24.3C28.1002 23.5 27.8002 22.8 27.1002 22.1L23.6002 18.6C23.0002 18 22.2002 17.6 21.5002 17.6C20.7002 17.6 20.0002 17.9 19.3002 18.6L17.3002 20.6C17.1002 20.5 17.0002 20.4 16.8002 20.3C16.6002 20.2 16.4002 20.1 16.2002 20C14.3002 18.8 12.6002 17.3 11.0002 15.3C10.2002 14.3 9.70018 13.5 9.30018 12.6C9.80018 12.1 10.3002 11.6 10.8002 11.2C11.0002 11 11.2002 10.8 11.3002 10.7C12.6002 9.39995 12.6002 7.59995 11.3002 6.29995L9.60018 4.39995C9.40018 4.19995 9.20018 3.99995 9.00018 3.79995C8.60018 3.49995 8.30017 2.99995 7.80018 2.69995C7.20018 2.09995 6.50017 1.69995 5.70017 1.69995ZM21.6002 28.3C21.5002 28.3 21.4002 28.3 21.3002 28.3C19.4002 28.2 17.7002 27.4 16.4002 26.8C12.8002 25.1 9.70017 22.6 7.10017 19.5C4.90018 16.9 3.50018 14.5 2.50018 11.9C1.90018 10.3 1.70018 9.09995 1.80018 7.89995C1.90018 7.19995 2.10018 6.49995 2.70018 5.99995L4.90018 3.79995C5.20018 3.49995 5.50017 3.39995 5.90018 3.39995C6.30018 3.39995 6.60018 3.59995 6.80018 3.79995C7.10018 4.29995 7.40018 4.59995 7.80018 4.99995C8.00018 5.19995 8.20018 5.39995 8.40018 5.69995L10.1002 7.39995C10.8002 8.09995 10.8002 8.69995 10.1002 9.39995C10.0002 9.49995 9.80018 9.69995 9.60018 9.89995C9.10018 10.4 8.60018 11 8.00018 11.4C7.50018 11.9 7.60017 12.5 7.70017 12.8C7.70017 12.8 7.70017 12.8 7.70017 12.9C8.10017 14 8.80018 15 9.70018 16.2C11.4002 18.4 13.3002 20 15.3002 21.3C15.6002 21.5 15.8002 21.6 16.1002 21.7C16.3002 21.8 16.5002 21.9 16.7002 22H16.8002C17.0002 22.1 17.2002 22.2 17.4002 22.2C17.9002 22.2 18.3002 21.9 18.4002 21.8L20.6002 19.6C20.8002 19.4 21.2002 19.1 21.6002 19.1C22.0002 19.1 22.3002 19.3 22.5002 19.6L26.0002 23.1C26.7002 23.7 26.7002 24.4 26.0002 25.1C25.8002 25.4 25.5002 25.6 25.2002 25.9C24.8002 26.3 24.4002 26.7 24.0002 27.2C23.3002 28 22.6002 28.3 21.6002 28.3ZM26.0002 25.3C26.0002 25.3 25.9002 25.3 26.0002 25.3V25.3Z" fill="#222222"/>
<path d="M16.3004 5.39996C15.9004 5.39996 15.5004 5.69996 15.5004 6.09996C15.4004 6.59996 15.7004 6.99996 16.2004 7.09996C17.9004 7.39996 19.4004 8.19996 20.6004 9.39996C21.8004 10.6 22.6004 12.1 22.9004 13.8C23.0004 14.2 23.3004 14.5 23.7004 14.5C23.8004 14.5 23.8004 14.5 23.8004 14.5C24.3004 14.4 24.6004 14 24.5004 13.5C24.2004 11.5 23.2004 9.69996 21.8004 8.19996C20.4004 6.79996 18.5004 5.79996 16.5004 5.49996C16.4004 5.39996 16.4004 5.39996 16.3004 5.39996Z" fill="#222222"/>
<path d="M16.6002 0C16.2002 0 15.8002 0.3 15.8002 0.7C15.7002 1.2 16.0002 1.6 16.5002 1.7C19.5002 2.2 22.1002 3.6 24.3002 5.7C26.4002 7.8 27.8002 10.5 28.3002 13.5C28.4002 13.9 28.7002 14.2 29.1002 14.2C29.2002 14.2 29.2002 14.2 29.2002 14.2C29.7002 14.1 30.0002 13.7 29.9002 13.2C29.3002 9.9 27.8002 6.9 25.4002 4.5C23.0002 2.1 20.0002 0.6 16.7002 0H16.6002Z" fill="#222222"/>
</g>
<defs>
<clipPath id="clip0">
<rect width="30" height="30" fill="white"/>
</clipPath>
</defs>
</svg>
