<svg width="31" height="30" viewBox="0 0 31 30" fill="none" xmlns="http://www.w3.org/2000/svg">
<path d="M5.80003 1.70001C5.00003 1.70001 4.30003 2.00001 3.60003 2.60001L1.50003 4.90001C0.700029 5.70001 0.200029 6.60001 0.100029 7.80001C-0.0999713 9.60001 0.500029 11.4 0.900029 12.5C1.90003 15.3 3.50003 17.8 5.70003 20.6C8.50003 23.9 11.8 26.5 15.6 28.4C17.1 29.1 19 29.9 21.2 30C21.3 30 21.5 30 21.6 30C23.1 30 24.3 29.5 25.3 28.4C25.6 28 26 27.6 26.4 27.3C26.7 27 27 26.8 27.2 26.5C27.8 25.8 28.2 25.1 28.2 24.3C28.2 23.5 27.9 22.8 27.2 22.1L23.7 18.6C23.1 18 22.3 17.6 21.6 17.6C20.8 17.6 20.1 17.9 19.4 18.6L17.4 20.6C17.2 20.5 17.1 20.4 16.9 20.3C16.7 20.2 16.5 20.1 16.3 20C14.4 18.8 12.7 17.3 11.1 15.3C10.3 14.3 9.80003 13.5 9.40003 12.6C9.90003 12.1 10.4 11.6 10.9 11.2C11.1 11 11.3 10.8 11.4 10.7C12.7 9.40001 12.7 7.60001 11.4 6.30001L9.70003 4.40001C9.50003 4.20001 9.30003 4.00001 9.10003 3.80001C8.70003 3.50001 8.40003 3.00001 7.90003 2.70001C7.30003 2.10001 6.60003 1.70001 5.80003 1.70001ZM21.7 28.3C21.6 28.3 21.5 28.3 21.4 28.3C19.5 28.2 17.8 27.4 16.5 26.8C12.9 25.1 9.80003 22.6 7.20003 19.5C5.00003 16.9 3.60003 14.5 2.60003 11.9C2.00003 10.3 1.80003 9.10001 1.90003 7.90001C2.00003 7.20001 2.20003 6.50001 2.80003 6.00001L5.00003 3.80001C5.30003 3.50001 5.60003 3.40001 6.00003 3.40001C6.40003 3.40001 6.70003 3.60001 6.90003 3.80001C7.20003 4.30001 7.50003 4.60001 7.90003 5.00001C8.10003 5.20001 8.30003 5.40001 8.50003 5.70001L10.2 7.40001C10.9 8.10001 10.9 8.70001 10.2 9.40001C10.1 9.50001 9.90003 9.70001 9.70003 9.90001C9.20003 10.4 8.70003 11 8.10003 11.4C7.60003 11.9 7.70003 12.5 7.80003 12.8C7.80003 12.8 7.80003 12.8 7.80003 12.9C8.20003 14 8.90003 15 9.80003 16.2C11.5 18.4 13.4 20 15.4 21.3C15.7 21.5 15.9 21.6 16.2 21.7C16.4 21.8 16.6 21.9 16.8 22H16.9C17.1 22.1 17.3 22.2 17.5 22.2C18 22.2 18.4 21.9 18.5 21.8L20.7 19.6C20.9 19.4 21.3 19.1 21.7 19.1C22.1 19.1 22.4 19.3 22.6 19.6L26.1 23.1C26.8 23.7 26.8 24.4 26.1 25.1C25.9 25.4 25.6 25.6 25.3 25.9C24.9 26.3 24.5 26.7 24.1 27.2C23.4 28 22.7 28.3 21.7 28.3ZM26.1 25.3C26.1 25.3 26 25.3 26.1 25.3V25.3Z" fill="white"/>
<path d="M16.4 5.39999C16 5.39999 15.6 5.69999 15.6 6.09999C15.5 6.59999 15.8 6.99999 16.3 7.09999C18 7.39999 19.5 8.19999 20.7 9.39999C21.9 10.6 22.7 12.1 23 13.8C23.1 14.2 23.4 14.5 23.8 14.5C23.9 14.5 23.9 14.5 23.9 14.5C24.4 14.4 24.7 14 24.6 13.5C24.3 11.5 23.3 9.69999 21.9 8.19999C20.5 6.79999 18.6 5.79999 16.6 5.49999C16.5 5.39999 16.5 5.39999 16.4 5.39999Z" fill="white"/>
<path d="M16.7 0C16.3 0 15.9 0.3 15.9 0.7C15.8 1.2 16.1 1.6 16.6 1.7C19.6 2.2 22.2 3.6 24.4 5.7C26.5 7.8 27.9 10.5 28.4 13.5C28.5 13.9 28.8 14.2 29.2 14.2C29.3 14.2 29.3 14.2 29.3 14.2C29.8 14.1 30.1 13.7 30 13.2C29.4 9.9 27.9 6.9 25.5 4.5C23.1 2.1 20.1 0.6 16.8 0H16.7Z" fill="white"/>
</svg>
