<svg width="40" height="40" viewBox="0 0 40 40" fill="none" xmlns="http://www.w3.org/2000/svg">
<g clip-path="url(#clip0)">
<path d="M23.8 0C15.5 0 8.79997 6.7 8.79997 14.9C8.79997 15.2 8.99997 15.5 9.29997 15.6C9.59997 15.7 9.89997 15.7 10.2 15.4C11 14.6 12.1 14.2 13.2 14.2C14.3 14.2 15.4 14.6 16.2 15.4C16.5 15.7 17 15.7 17.3 15.4C18.1 14.6 19.2 14.2 20.3 14.2C21.3 14.2 22.3 14.6 23.1 15.2V26.2H20.6V24.9C20.6 22.9 19 21.3 16.9 21.3H7.59997L5.49997 17.1C5.19997 16.4 4.59997 15.9 3.79997 15.6C3.09997 15.3 2.29997 15.4 1.59997 15.7C0.0999731 16.4 -0.500027 18.2 0.299973 19.6L5.29997 29.8C5.49997 30.2 5.79997 30.9 6.39997 31.4V39.2C6.39997 39.6 6.79997 40 7.19997 40H10.6C11 40 11.4 39.7 11.4 39.2V35.5H23V39.2C23 39.6 23.4 40 23.8 40C24.2 40 24.6 39.7 24.6 39.2V35.5H32.9V39.2C32.9 39.6 33.3 40 33.7 40H37.1C37.5 40 37.9 39.7 37.9 39.2V32C39.1 31.7 40.1 30.5 40.1 29.2C40.1 27.6 38.8 26.3 37.2 26.3H24.6V15.3C25.4 14.6 26.3 14.3 27.4 14.3C28.5 14.3 29.6 14.7 30.4 15.5C30.7 15.8 31.2 15.8 31.5 15.5C32.3 14.7 33.4 14.3 34.5 14.3C35.6 14.3 36.7 14.7 37.5 15.5C37.8 15.8 38.4 15.8 38.7 15.4C38.8 15.3 38.8 15.1 38.8 15C38.7 6.7 32 0 23.8 0ZM16 13.4C15.2 12.9 14.2 12.7 13.2 12.7C12.3 12.7 11.4 12.9 10.5 13.3C11.1 8.1 14.7 3.8 19.6 2.2C19.1 2.8 18.5 3.6 18.1 4.5C16.9 7 16.1 10.1 16 13.4ZM20.2 12.7C19.2 12.7 18.3 12.9 17.5 13.4C17.8 7.4 20.1 2.5 23 1.7V13.4C22.2 12.9 21.2 12.7 20.2 12.7ZM16.8 22.8C18 22.8 18.9 23.7 18.9 24.9V26.2H10.1L8.39997 22.8H16.8ZM37.1 27.8C37.9 27.8 38.5 28.4 38.5 29.2C38.5 30 37.9 30.6 37.1 30.6H24.3C23.9 30.6 23.5 30.9 23.5 31.4C23.5 31.9 23.9 32.2 24.3 32.2H36.3V38.5H34.4V34.8C34.4 34.4 34 34 33.6 34H10.6C10.2 34 9.79997 34.3 9.79997 34.8V38.5H7.99997V32.2C8.09997 32.2 8.19997 32.2 8.29997 32.2H25.1C25.5 32.2 25.9 31.9 25.9 31.4C25.9 31 25.5 30.6 25.1 30.6H8.29997C7.99997 30.6 7.79997 30.6 7.69997 30.4C7.39997 30.2 7.09997 29.8 6.79997 29.2L1.69997 19C1.39997 18.3 1.59997 17.5 2.29997 17.2C2.69997 17 2.99997 17 3.39997 17.1C3.69997 17.2 3.99997 17.5 4.19997 17.8L8.89997 27.4C8.99997 27.7 9.29997 27.8 9.59997 27.8H37.1ZM27.3 12.7C26.3 12.7 25.4 12.9 24.5 13.4V1.7C27.3 2.5 29.6 7.4 30 13.4C29.2 12.9 28.3 12.7 27.3 12.7ZM34.4 12.7C33.4 12.7 32.5 12.9 31.6 13.4C31.4 10.1 30.7 7 29.5 4.6C29 3.7 28.5 2.9 28 2.3C32.8 3.9 36.4 8.2 37.1 13.4C36.2 12.9 35.3 12.7 34.4 12.7Z" fill="#222222"/>
<path d="M20.8 32.1C21.2 32.1 21.6 31.8 21.6 31.3C21.6 30.8 21.2 30.5 20.8 30.5C20.4 30.5 20 30.8 20 31.3C20 31.8 20.3 32.1 20.8 32.1Z" fill="#222222"/>
</g>
<defs>
<clipPath id="clip0">
<rect width="40" height="40" fill="white"/>
</clipPath>
</defs>
</svg>
