<svg width="40" height="40" viewBox="0 0 40 40" fill="none" xmlns="http://www.w3.org/2000/svg">
<path d="M40 4C37.8 4 36.6 3.4 35.6 2.9C34.6 2.4 33.8 2 32 2C30.2 2 29.4 2.4 28.4 2.9C27.4 3.4 26.2 4 24 4C21.8 4 20.6 3.4 19.6 2.9C18.6 2.4 17.8 2 16 2C14.2 2 13.4 2.4 12.4 2.9C11.4 3.4 10.2 4 8 4C5.8 4 4.6 3.4 3.6 2.9C2.6 2.4 1.8 2 0 2V0C2.2 0 3.4 0.6 4.4 1.1C5.4 1.6 6.2 2 8 2C9.8 2 10.6 1.6 11.6 1.1C12.6 0.6 13.8 0 16 0C18.2 0 19.4 0.6 20.4 1.1C21.4 1.6 22.2 2 24 2C25.8 2 26.6 1.6 27.6 1.1C28.6 0.6 29.8 0 32 0C34.2 0 35.4 0.6 36.4 1.1C37.4 1.6 38.2 2 40 2V4Z" fill="#222222"/>
<path d="M40 16C37.8 16 36.6 15.4 35.6 14.9C34.6 14.4 33.8 14 32 14C30.2 14 29.4 14.4 28.4 14.9C27.4 15.4 26.2 16 24 16C21.8 16 20.6 15.4 19.6 14.9C18.6 14.4 17.8 14 16 14C14.2 14 13.4 14.4 12.4 14.9C11.4 15.4 10.2 16 8 16C5.8 16 4.6 15.4 3.6 14.9C2.6 14.4 1.8 14 0 14V12C2.2 12 3.4 12.6 4.4 13.1C5.4 13.6 6.2 14 8 14C9.8 14 10.6 13.6 11.6 13.1C12.6 12.6 13.8 12 16 12C18.2 12 19.4 12.6 20.4 13.1C21.4 13.6 22.2 14 24 14C25.8 14 26.6 13.6 27.6 13.1C28.6 12.6 29.8 12 32 12C34.2 12 35.4 12.6 36.4 13.1C37.4 13.6 38.2 14 40 14V16Z" fill="#222222"/>
<path d="M40 28C37.8 28 36.6 27.4 35.6 26.9C34.6 26.4 33.8 26 32 26C30.2 26 29.4 26.4 28.4 26.9C27.4 27.4 26.2 28 24 28C21.8 28 20.6 27.4 19.6 26.9C18.6 26.4 17.8 26 16 26C14.2 26 13.4 26.4 12.4 26.9C11.4 27.4 10.2 28 8 28C5.8 28 4.6 27.4 3.6 26.9C2.6 26.4 1.8 26 0 26V24C2.2 24 3.4 24.6 4.4 25.1C5.4 25.6 6.2 26 8 26C9.8 26 10.6 25.6 11.6 25.1C12.6 24.6 13.8 24 16 24C18.2 24 19.4 24.6 20.4 25.1C21.4 25.6 22.2 26 24 26C25.8 26 26.6 25.6 27.6 25.1C28.6 24.6 29.8 24 32 24C34.2 24 35.4 24.6 36.4 25.1C37.4 25.6 38.2 26 40 26V28Z" fill="#222222"/>
<path d="M40 40C37.8 40 36.6 39.4 35.6 38.9C34.6 38.4 33.8 38 32 38C30.2 38 29.4 38.4 28.4 38.9C27.4 39.4 26.2 40 24 40C21.8 40 20.6 39.4 19.6 38.9C18.6 38.4 17.8 38 16 38C14.2 38 13.4 38.4 12.4 38.9C11.4 39.4 10.2 40 8 40C5.8 40 4.6 39.4 3.6 38.9C2.6 38.4 1.8 38 0 38V36C2.2 36 3.4 36.6 4.4 37.1C5.4 37.6 6.2 38 8 38C9.8 38 10.6 37.6 11.6 37.1C12.6 36.6 13.8 36 16 36C18.2 36 19.4 36.6 20.4 37.1C21.4 37.6 22.2 38 24 38C25.8 38 26.6 37.6 27.6 37.1C28.6 36.6 29.8 36 32 36C34.2 36 35.4 36.6 36.4 37.1C37.4 37.6 38.2 38 40 38V40Z" fill="#222222"/>
</svg>
