<svg width="244" height="38" viewBox="0 0 244 38" fill="none" xmlns="http://www.w3.org/2000/svg">
<g clip-path="url(#clip0)">
<path d="M0.0700293 0.438446L1.83003 0.496908C2.5567 0.52289 3.28003 0.532634 4.00003 0.526138C5.0067 0.526138 5.9667 0.526138 6.88003 0.526138H8.88003C10.6792 0.398673 12.4678 0.884318 13.94 1.89998C14.4833 2.32044 14.9194 2.85758 15.2143 3.46945C15.5092 4.08132 15.6549 4.75134 15.64 5.42716C15.6401 6.16496 15.4834 6.89478 15.18 7.57075C14.8373 8.33289 14.3087 9.00187 13.64 9.51947C12.7858 10.1619 11.8108 10.6352 10.77 10.9128V10.9713C12.173 11.0824 13.536 11.4808 14.77 12.1405C15.6206 12.6131 16.3146 13.3129 16.77 14.1574C17.335 15.2916 17.4982 16.5762 17.234 17.8103C16.9699 19.0445 16.2932 20.1584 15.31 20.9779C13.6981 22.1964 11.6865 22.8024 9.65003 22.6831C9.1767 22.6831 8.47003 22.6831 7.53003 22.6831C6.59003 22.6831 5.41336 22.5921 4.00003 22.4102H1.79003C1.06336 22.4102 0.476696 22.4362 0.0300293 22.4882V21.9231C0.588831 21.9072 1.14328 21.822 1.68003 21.6697C1.8583 21.6137 2.01982 21.516 2.15053 21.3852C2.28124 21.2545 2.37719 21.0946 2.43003 20.9195C2.57942 20.37 2.64346 19.8018 2.62003 19.2338V3.75127C2.66227 3.17926 2.61507 2.60432 2.48003 2.04614C2.42349 1.87288 2.32626 1.71485 2.19607 1.58461C2.06587 1.45437 1.9063 1.35551 1.73003 1.29588C1.19232 1.13525 0.63241 1.05637 0.0700293 1.06204V0.438446ZM8.00003 1.06204C7.66006 1.01607 7.31401 1.03908 6.9836 1.12962C6.65319 1.22016 6.34556 1.37629 6.08003 1.58819C5.70619 2.24375 5.54905 2.99573 5.63003 3.74152V19.2338C5.53874 19.9657 5.70062 20.7063 6.09003 21.3384C6.64909 21.7363 7.34324 21.9106 8.03003 21.8256C10.1234 21.8256 11.6467 21.3514 12.6 20.4031C13.0947 19.8538 13.4731 19.2146 13.7134 18.5223C13.9536 17.83 14.051 17.0983 14 16.3692C14.0488 15.7002 13.9608 15.0285 13.741 14.3929C13.5213 13.7573 13.1743 13.1705 12.72 12.6667C11.8334 11.7897 10.3767 11.3513 8.35003 11.3513H5.00003V10.8154H7.80003C8.82419 10.879 9.84365 10.6341 10.72 10.1138C11.3915 9.66143 11.888 9.00275 12.13 8.24306C12.3898 7.42939 12.518 6.5813 12.51 5.72922C12.6146 4.49049 12.2598 3.25629 11.51 2.25075C11.0514 1.81234 10.4988 1.47836 9.89186 1.27283C9.28496 1.0673 8.63888 0.995306 8.00003 1.06204Z" fill="white"/>
<path d="M36.1299 0.438446C36.0432 1.16597 35.9999 1.874 35.9999 2.56255C35.9999 3.2511 35.9999 3.77075 35.9999 4.12152C35.9999 4.49828 35.9999 4.85879 35.9999 5.20306C35.9999 5.54734 36.0199 5.83315 36.0599 6.0605H35.3199C35.2363 5.0708 35.0521 4.09163 34.7699 3.13742C34.5931 2.49302 34.1617 1.94303 33.5699 1.60768C32.7629 1.25834 31.8811 1.10456 30.9999 1.15947H28.3099C27.7541 1.14149 27.1986 1.20054 26.6599 1.33486C26.4834 1.3851 26.3224 1.47728 26.1915 1.60314C26.0606 1.72899 25.9638 1.88457 25.9099 2.05588C25.758 2.61156 25.694 3.18653 25.7199 3.76101V19.2533C25.6965 19.8213 25.7605 20.3895 25.9099 20.939C25.9624 21.1121 26.0585 21.2696 26.1895 21.3973C26.3205 21.5249 26.4822 21.6186 26.6599 21.6697C27.1985 21.8046 27.7541 21.8636 28.3099 21.8451H30.6499C31.6979 21.9025 32.7453 21.7224 33.7099 21.319C34.4207 20.9482 34.9604 20.3283 35.2199 19.5846C35.5859 18.5281 35.8177 17.4319 35.9099 16.3205H36.6499C36.5756 17.0685 36.5422 17.8198 36.5499 18.5713C36.5499 18.9675 36.5499 19.5359 36.5499 20.2764C36.5499 21.0169 36.6099 21.7834 36.7299 22.5759C35.6365 22.5369 34.4066 22.5109 33.0399 22.4979H29.3899H26.8799H23.4999C22.2999 22.4979 21.1765 22.5239 20.1299 22.5759V21.9231C20.6887 21.9072 21.2431 21.822 21.7799 21.6697C21.9582 21.6137 22.1197 21.516 22.2504 21.3852C22.3811 21.2545 22.477 21.0946 22.5299 20.9195C22.6793 20.37 22.7433 19.8018 22.7199 19.2338V3.75127C22.7458 3.17679 22.6817 2.60181 22.5299 2.04614C22.4733 1.87288 22.3761 1.71485 22.2459 1.58461C22.1157 1.45437 21.9562 1.35551 21.7799 1.29588C21.2454 1.13624 20.6889 1.05737 20.1299 1.06204V0.438446L23.4999 0.496908C24.6932 0.496908 25.8199 0.496908 26.8799 0.496908H29.4299H32.7799C34.0332 0.496908 35.1499 0.47742 36.1299 0.438446ZM30.6199 11.1564V11.78H24.7499V11.1564H30.6199ZM31.5499 7.03486C31.4632 8.1911 31.4232 9.094 31.4299 9.74357C31.4366 10.3931 31.4366 10.9648 31.4299 11.4584C31.4299 11.9781 31.4299 12.5497 31.4299 13.1733C31.4299 13.7969 31.4832 14.7031 31.5899 15.8918H30.8499C30.7632 15.2422 30.6632 14.5926 30.5499 13.9431C30.457 13.3607 30.1891 12.8182 29.7799 12.3841C29.5052 12.1578 29.1865 11.9876 28.8429 11.8838C28.4993 11.7801 28.1378 11.7447 27.7799 11.78V11.1564C28.1481 11.2 28.5216 11.1573 28.8695 11.0319C29.2174 10.9065 29.5295 10.702 29.7799 10.4354C30.1602 9.94065 30.4076 9.36125 30.4999 8.74973C30.6066 8.10016 30.7032 7.52853 30.7899 7.03486H31.5499Z" fill="white"/>
<path d="M40 0.438446L41.76 0.496908C42.4866 0.496908 43.2033 0.496908 43.91 0.496908C44.9166 0.496908 45.8766 0.496908 46.79 0.496908H48.79C51.3766 0.496908 53.31 1.01657 54.59 2.05588C55.1963 2.51773 55.6849 3.10972 56.018 3.78573C56.351 4.46173 56.5194 5.20352 56.51 5.95332C56.5003 6.63529 56.3718 7.31072 56.13 7.95075C55.843 8.70385 55.3888 9.38589 54.8 9.94819C54.0638 10.6388 53.184 11.1671 52.22 11.4974C50.8922 11.9418 49.4933 12.1497 48.09 12.1113H44.95V11.4877H47.7C48.9095 11.5361 50.1105 11.2705 51.18 10.7179C51.9371 10.3036 52.5184 9.64057 52.82 8.84717C53.1178 8.00767 53.2633 7.12403 53.25 6.23588C53.3236 4.85701 52.8792 3.49923 52 2.41639C51.2 1.51349 49.8266 1.06204 47.88 1.06204C47.5464 1.02154 47.2078 1.04729 46.8847 1.13771C46.5616 1.22814 46.2607 1.38138 46 1.58819C45.6261 2.24375 45.469 2.99573 45.55 3.74152V19.2338C45.5265 19.8018 45.5906 20.37 45.74 20.9195C45.7928 21.0946 45.8888 21.2545 46.0195 21.3852C46.1502 21.516 46.3117 21.6137 46.49 21.6697C47.0267 21.8221 47.5812 21.9073 48.14 21.9231V22.5467C47.6466 22.5077 47.0333 22.4817 46.3 22.4687H44.07H41.73C41.0033 22.4687 40.4166 22.4947 39.97 22.5467V21.9231C40.5288 21.9072 41.0832 21.822 41.62 21.6697C41.7982 21.6137 41.9598 21.516 42.0905 21.3852C42.2212 21.2545 42.3171 21.0946 42.37 20.9195C42.5194 20.37 42.5834 19.8018 42.56 19.2338V3.75127C42.5859 3.17679 42.5218 2.60181 42.37 2.04614C42.3134 1.87288 42.2162 1.71485 42.086 1.58461C41.9558 1.45437 41.7962 1.35551 41.62 1.29588C41.0951 1.13917 40.549 1.06033 40 1.06204V0.438446ZM45.1 11.5267C46.2533 11.5656 47.16 11.6111 47.82 11.6631L49.44 11.7995C49.86 11.8384 50.26 11.8904 50.64 11.9554C51.7786 12.0603 52.8569 12.5023 53.73 13.222C54.4561 14.0296 54.9374 15.0181 55.12 16.0769L55.92 19.2631C56.0579 19.9364 56.2795 20.5908 56.58 21.2118C56.6645 21.3971 56.8063 21.5521 56.9856 21.6551C57.1648 21.7582 57.3726 21.8041 57.58 21.7867C57.9141 21.7764 58.2349 21.6562 58.49 21.4456C58.7816 21.1894 59.0463 20.9055 59.28 20.5979L59.76 20.939C59.386 21.5057 58.916 22.0065 58.37 22.42C57.7748 22.791 57.0756 22.9715 56.37 22.9364C55.6156 22.9457 54.881 22.7014 54.29 22.2446C53.5454 21.5195 53.0703 20.5732 52.94 19.5554L52.23 16.4277C52.0668 15.6372 51.8462 14.859 51.57 14.099C51.3753 13.509 51.0314 12.9762 50.57 12.5497C50.0157 12.1371 49.3257 11.9362 48.63 11.9846H45.14L45.1 11.5267Z" fill="white"/>
<path d="M77.0601 0.438446C76.9734 1.16597 76.9134 1.874 76.8801 2.56255C76.8467 3.2511 76.8467 3.77075 76.8801 4.12152C76.8801 4.49828 76.8801 4.85879 76.8801 5.20306C76.8801 5.54734 76.9001 5.83315 76.9401 6.0605H76.2001C76.1165 5.0708 75.9323 4.09163 75.6501 3.13742C75.4733 2.49302 75.0418 1.94303 74.4501 1.60768C73.6492 1.26144 72.7746 1.10772 71.9001 1.15947H69.2401C68.6843 1.14149 68.1288 1.20054 67.5901 1.33486C67.4135 1.3851 67.2526 1.47728 67.1217 1.60314C66.9908 1.72899 66.894 1.88457 66.8401 2.05588C66.6882 2.61156 66.6241 3.18653 66.6501 3.76101V19.2533C66.6266 19.8213 66.6907 20.3895 66.8401 20.939C66.8925 21.1121 66.9887 21.2696 67.1197 21.3973C67.2507 21.5249 67.4124 21.6186 67.5901 21.6697C68.1287 21.8046 68.6843 21.8636 69.2401 21.8451H71.5801C72.6281 21.9025 73.6755 21.7224 74.6401 21.319C75.3508 20.9482 75.8906 20.3283 76.1501 19.5846C76.5161 18.5281 76.7478 17.4319 76.8401 16.3205H77.5801C77.5058 17.0685 77.4724 17.8198 77.4801 18.5713C77.4801 18.9675 77.4801 19.5359 77.4801 20.2764C77.4801 21.0169 77.5401 21.7834 77.6601 22.5759C76.5667 22.5369 75.3367 22.5109 73.9701 22.4979H70.3201H67.8101H64.4301C63.2301 22.4979 62.1067 22.5239 61.0601 22.5759V21.9231C61.6189 21.9072 62.1733 21.822 62.7101 21.6697C62.8883 21.6137 63.0498 21.516 63.1806 21.3852C63.3113 21.2545 63.4072 21.0946 63.4601 20.9195C63.6094 20.37 63.6735 19.8018 63.6501 19.2338V3.75127C63.676 3.17679 63.6119 2.60181 63.4601 2.04614C63.4035 1.87288 63.3063 1.71485 63.1761 1.58461C63.0459 1.45437 62.8863 1.35551 62.7101 1.29588C62.1756 1.13624 61.6191 1.05737 61.0601 1.06204V0.438446L64.4301 0.496908C65.6234 0.496908 66.7501 0.496908 67.8101 0.496908H70.3601H73.7101C74.9634 0.496908 76.0801 0.47742 77.0601 0.438446ZM71.5501 11.1564V11.78H65.6801V11.1564H71.5501ZM72.4801 7.03486C72.3934 8.1911 72.3567 9.094 72.3701 9.74357C72.3834 10.3931 72.3834 10.9648 72.3701 11.4584C72.3701 11.9781 72.3701 12.5497 72.3701 13.1733C72.3701 13.7969 72.4234 14.7031 72.5301 15.8918H71.7901C71.7034 15.2422 71.6034 14.5926 71.4901 13.9431C71.3972 13.3607 71.1292 12.8182 70.7201 12.3841C70.4454 12.1578 70.1267 11.9876 69.7831 11.8838C69.4395 11.7801 69.078 11.7447 68.7201 11.78V11.1564C69.0883 11.2 69.4618 11.1573 69.8097 11.0319C70.1575 10.9065 70.4697 10.702 70.7201 10.4354C71.1003 9.94065 71.3478 9.36125 71.4401 8.74973C71.5467 8.10016 71.6434 7.52853 71.7301 7.03486H72.4801Z" fill="white"/>
<path d="M97.1901 0.438446V1.06204L84.4001 21.8354H90.6801C91.5086 21.8593 92.3357 21.754 93.1301 21.5236C93.7187 21.3462 94.2428 21.0081 94.6401 20.5492C95.0541 20.0191 95.3442 19.4072 95.4901 18.7564C95.7086 17.8524 95.859 16.9341 95.9401 16.0087H96.6801C96.6134 16.6583 96.5801 17.5125 96.5801 18.5713C96.5801 18.9675 96.5801 19.5359 96.5801 20.2764C96.5801 21.0169 96.6401 21.7834 96.7601 22.5759C95.5867 22.5369 94.2534 22.5109 92.7601 22.4979H88.7601H84.7601C83.3601 22.4979 82.0501 22.5239 80.8301 22.5759V21.9231L93.7901 1.15947H87.5401C86.5081 1.11215 85.4795 1.30591 84.5401 1.7246C83.8082 2.11976 83.2578 2.77104 83.0001 3.54665C82.6324 4.66614 82.4008 5.8238 82.3101 6.99588H81.5701C81.6101 6.6646 81.6367 6.2781 81.6501 5.83639C81.6634 5.39469 81.6634 4.92699 81.6501 4.43332C81.6501 4.03708 81.6501 3.4687 81.6501 2.72819C81.6501 1.98768 81.5734 1.22443 81.4201 0.438446C82.6134 0.47742 83.9467 0.503403 85.4201 0.516395H89.4201H93.3501C94.7367 0.503403 96.0167 0.47742 97.1901 0.438446Z" fill="white"/>
<path d="M100.27 22.5467V21.9231C100.829 21.9072 101.383 21.822 101.92 21.6697C102.098 21.6137 102.26 21.516 102.391 21.3852C102.521 21.2545 102.617 21.0946 102.67 20.9195C102.819 20.37 102.883 19.8018 102.86 19.2338V3.75127C102.886 3.17679 102.822 2.60181 102.67 2.04614C102.613 1.87288 102.516 1.71485 102.386 1.58461C102.256 1.45437 102.096 1.35551 101.92 1.29588C101.386 1.13624 100.829 1.05737 100.27 1.06204V0.438446L102 0.496908C102.727 0.496908 103.507 0.496908 104.34 0.496908C105.173 0.496908 105.917 0.496908 106.57 0.496908L108.41 0.438446V1.06204C107.851 1.05722 107.294 1.13608 106.76 1.29588C106.584 1.35551 106.424 1.45437 106.294 1.58461C106.164 1.71485 106.067 1.87288 106.01 2.04614C105.858 2.60181 105.794 3.17679 105.82 3.75127V19.2436C105.797 19.8115 105.861 20.3797 106.01 20.9292C106.063 21.1043 106.159 21.2642 106.29 21.395C106.42 21.5257 106.582 21.6234 106.76 21.6795C107.297 21.8319 107.851 21.917 108.41 21.9328V22.5564C107.917 22.5174 107.303 22.4914 106.57 22.4784H104.34H102C101.293 22.4849 100.717 22.5077 100.27 22.5467ZM104.73 11.741V11.1174H117.39V11.741H104.73ZM113.67 22.5467V21.9231C114.229 21.9072 114.783 21.822 115.32 21.6697C115.498 21.6137 115.66 21.516 115.791 21.3852C115.921 21.2545 116.017 21.0946 116.07 20.9195C116.219 20.37 116.283 19.8018 116.26 19.2338V3.75127C116.286 3.17679 116.222 2.60181 116.07 2.04614C116.013 1.87288 115.916 1.71485 115.786 1.58461C115.656 1.45437 115.496 1.35551 115.32 1.29588C114.786 1.13624 114.229 1.05737 113.67 1.06204V0.438446L115.53 0.496908C116.277 0.496908 117.013 0.496908 117.74 0.496908C118.573 0.496908 119.353 0.496908 120.08 0.496908L121.84 0.438446V1.06204C121.281 1.05722 120.724 1.13608 120.19 1.29588C120.014 1.35551 119.854 1.45437 119.724 1.58461C119.594 1.71485 119.497 1.87288 119.44 2.04614C119.288 2.60181 119.224 3.17679 119.25 3.75127V19.2436C119.227 19.8115 119.291 20.3797 119.44 20.9292C119.493 21.1043 119.589 21.2642 119.72 21.395C119.85 21.5257 120.012 21.6234 120.19 21.6795C120.727 21.8319 121.281 21.917 121.84 21.9328V22.5564C121.393 22.5174 120.807 22.4914 120.08 22.4784H117.74H115.53C114.777 22.4849 114.157 22.5077 113.67 22.5467Z" fill="white"/>
<path d="M145 0.438446V1.06204C144.434 1.05094 143.871 1.15721 143.35 1.37383C143.167 1.4653 143.006 1.59322 142.876 1.74932C142.747 1.90541 142.653 2.0862 142.6 2.27998C142.453 2.863 142.389 3.46302 142.41 4.06306V22.7025H141.67L128.18 2.43588V18.922C128.161 19.5168 128.232 20.111 128.39 20.6856C128.45 20.8876 128.556 21.0739 128.699 21.2307C128.843 21.3876 129.021 21.511 129.22 21.5918C129.823 21.8054 130.459 21.9174 131.1 21.9231V22.5467C130.713 22.5077 130.21 22.4817 129.59 22.4687H127.83H126.21C125.663 22.4687 125.21 22.4947 124.85 22.5467V21.9231C125.417 21.9144 125.976 21.802 126.5 21.5918C126.685 21.5029 126.848 21.3758 126.978 21.2193C127.107 21.0628 127.2 20.8807 127.25 20.6856C127.395 20.1089 127.459 19.5156 127.44 18.922V3.75127C127.466 3.17679 127.402 2.60181 127.25 2.04614C127.194 1.87288 127.096 1.71485 126.966 1.58461C126.836 1.45437 126.676 1.35551 126.5 1.29588C125.966 1.13624 125.409 1.05737 124.85 1.06204V0.438446L126.21 0.496908C126.757 0.496908 127.297 0.496908 127.83 0.496908C128.363 0.496908 128.813 0.496908 129.18 0.496908L130.33 0.438446L141.65 17.4313V4.06306C141.671 3.46184 141.601 2.86087 141.44 2.27998C141.377 2.0798 141.269 1.89527 141.126 1.73892C140.983 1.58258 140.807 1.45806 140.61 1.37383C140.01 1.15334 139.371 1.04748 138.73 1.06204V0.438446L140.25 0.496908C140.877 0.496908 141.46 0.496908 142 0.496908C142.54 0.496908 143.09 0.496908 143.65 0.496908L145 0.438446Z" fill="white"/>
<path d="M158.12 -4.88306e-05C159.993 -0.0401782 161.841 0.425175 163.46 1.34457C165.016 2.27286 166.254 3.62896 167.02 5.242C167.918 7.15692 168.352 9.24697 168.29 11.3512C168.337 13.4605 167.893 15.5526 166.99 17.4702C166.2 19.1346 164.95 20.5516 163.38 21.5625C161.805 22.5527 159.964 23.0648 158.09 23.0338C156.217 23.0744 154.369 22.609 152.75 21.6892C151.193 20.7623 149.954 19.4058 149.19 17.7917C148.298 15.8788 147.867 13.7924 147.93 11.6923C147.881 9.58181 148.329 7.48844 149.24 5.57328C150.037 3.91364 151.286 2.49837 152.85 1.48098C154.416 0.486727 156.251 -0.029001 158.12 -4.88306e-05ZM158 0.565079C156.65 0.541908 155.346 1.03918 154.37 1.94867C153.259 3.03472 152.444 4.37459 152 5.84611C151.402 7.69542 151.115 9.6269 151.15 11.5656C151.107 13.5244 151.426 15.4748 152.09 17.3241C152.594 18.7783 153.476 20.0807 154.65 21.1046C155.638 21.9468 156.907 22.4107 158.22 22.4102C159.569 22.4256 160.87 21.9213 161.84 21.0071C162.959 19.9232 163.781 18.5832 164.23 17.1097C164.825 15.2664 165.112 13.3418 165.08 11.4097C165.123 9.4437 164.801 7.48634 164.13 5.63175C163.622 4.18748 162.744 2.89315 161.58 1.87072C160.59 1.02476 159.317 0.56043 158 0.565079Z" fill="white"/>
<path d="M180.14 0.438446C183.967 0.438446 186.81 1.37058 188.67 3.23486C190.53 5.09913 191.46 7.76887 191.46 11.2441C191.511 13.3068 191.044 15.3505 190.1 17.1974C189.204 18.8748 187.81 20.25 186.1 21.1436C184.164 22.127 182.002 22.6101 179.82 22.5467C179.347 22.5467 178.653 22.5467 177.74 22.5467C176.827 22.5467 176.027 22.5467 175.34 22.5467H173.13C172.403 22.5467 171.817 22.5726 171.37 22.6246V21.9231C171.929 21.9072 172.483 21.822 173.02 21.6697C173.198 21.6137 173.36 21.516 173.491 21.3852C173.621 21.2545 173.717 21.0946 173.77 20.9195C173.92 20.37 173.984 19.8018 173.96 19.2338V3.75127C173.986 3.17679 173.922 2.60184 173.77 2.04614C173.714 1.87288 173.616 1.71485 173.486 1.58461C173.356 1.45437 173.196 1.35551 173.02 1.29588C172.486 1.13624 171.929 1.05737 171.37 1.06204V0.438446L173.13 0.516395C173.857 0.516395 174.573 0.516395 175.28 0.516395L177.81 0.457933L180.14 0.438446ZM179.34 1.00357C179 0.957604 178.654 0.980614 178.324 1.07116C177.993 1.1617 177.686 1.31783 177.42 1.52973C177.056 2.18829 176.909 2.94027 177 3.68306V19.2728C176.915 20.02 177.076 20.7742 177.46 21.4261C177.73 21.6381 178.041 21.7941 178.374 21.8845C178.708 21.975 179.057 21.9981 179.4 21.9523C181.292 22.0584 183.174 21.6286 184.82 20.7149C186.126 19.8603 187.078 18.5832 187.51 17.1097C188.064 15.2326 188.324 13.2846 188.28 11.3318C188.28 7.83708 187.613 5.23879 186.28 3.53691C184.947 1.83503 182.633 0.980839 179.34 0.974344V1.00357Z" fill="white"/>
<path d="M205.43 -4.88306e-05C207.303 -0.0401782 209.151 0.425175 210.77 1.34457C212.325 2.27286 213.564 3.62896 214.33 5.242C215.227 7.15692 215.662 9.24697 215.6 11.3512C215.647 13.4605 215.203 15.5526 214.3 17.4702C213.51 19.1346 212.26 20.5516 210.69 21.5625C209.115 22.5527 207.274 23.0648 205.4 23.0338C203.527 23.0744 201.678 22.609 200.06 21.6892C198.503 20.7623 197.264 19.4058 196.5 17.7917C195.608 15.8788 195.177 13.7924 195.24 11.6923C195.19 9.58181 195.639 7.48844 196.55 5.57328C197.347 3.91364 198.596 2.49837 200.16 1.48098C201.726 0.486727 203.561 -0.029001 205.43 -4.88306e-05ZM205.3 0.565079C203.953 0.544486 202.653 1.04157 201.68 1.94867C200.561 3.03256 199.739 4.37261 199.29 5.84611C198.692 7.69542 198.405 9.6269 198.44 11.5656C198.397 13.5244 198.715 15.4748 199.38 17.3241C199.903 18.7812 200.806 20.0807 202 21.0948C202.976 21.9318 204.229 22.3986 205.53 22.4102C206.879 22.4256 208.18 21.9213 209.15 21.0071C210.269 19.9232 211.09 18.5832 211.54 17.1097C212.135 15.2664 212.422 13.3418 212.39 11.4097C212.433 9.4437 212.111 7.48634 211.44 5.63175C210.931 4.18748 210.054 2.89315 208.89 1.87072C207.897 1.02253 206.62 0.558048 205.3 0.565079Z" fill="white"/>
<path d="M243.93 0.438446V1.06204C243.371 1.05722 242.814 1.13608 242.28 1.29588C242.104 1.35551 241.944 1.45437 241.814 1.58461C241.684 1.71485 241.586 1.87288 241.53 2.04614C241.378 2.60181 241.314 3.17679 241.34 3.75127V19.2436C241.316 19.8116 241.38 20.3798 241.53 20.9292C241.583 21.1043 241.679 21.2642 241.809 21.395C241.94 21.5257 242.102 21.6234 242.28 21.6795C242.817 21.8319 243.371 21.917 243.93 21.9328V22.5564C243.437 22.5174 242.823 22.4914 242.09 22.4784H239.86H237.52C236.793 22.4784 236.207 22.5044 235.76 22.5564V21.9231C236.319 21.9073 236.873 21.8221 237.41 21.6697C237.588 21.6137 237.75 21.516 237.88 21.3852C238.011 21.2545 238.107 21.0946 238.16 20.9195C238.31 20.3701 238.374 19.8018 238.35 19.2338V2.06563L238.48 2.16306L230.63 22.7025H230.12L222 2.43588V18.922C221.981 19.5168 222.052 20.111 222.21 20.6856C222.27 20.8876 222.375 21.0739 222.519 21.2307C222.663 21.3876 222.841 21.511 223.04 21.5918C223.643 21.8054 224.278 21.9174 224.92 21.9231V22.5467C224.533 22.5077 224.03 22.4817 223.41 22.4687H221.65H220.03C219.483 22.4687 219.03 22.4947 218.67 22.5467V21.9231C219.236 21.9144 219.796 21.802 220.32 21.5918C220.505 21.5029 220.668 21.3758 220.797 21.2193C220.927 21.0628 221.02 20.8807 221.07 20.6856C221.215 20.1089 221.279 19.5156 221.26 18.922V3.75127C221.286 3.17679 221.222 2.60184 221.07 2.04614C221.013 1.87288 220.916 1.71485 220.786 1.58461C220.656 1.45437 220.496 1.35551 220.32 1.29588C219.785 1.13624 219.229 1.05737 218.67 1.06204V0.438446L220.03 0.496908C220.577 0.496908 221.117 0.496908 221.65 0.496908C222.183 0.496908 222.67 0.496908 223.11 0.496908L224.38 0.438446L231.66 19.1169L231.12 19.3702L238.35 0.526138H239.86C240.607 0.526138 241.35 0.526138 242.09 0.526138L243.93 0.438446Z" fill="white"/>
<path d="M0 27.779H0.72H3.43C4.24461 27.7195 5.05396 27.9478 5.71 28.4221C5.95679 28.6265 6.15323 28.8824 6.28479 29.1708C6.41635 29.4592 6.47964 29.7727 6.47 30.0882C6.4672 30.3895 6.41661 30.6886 6.32 30.9749C6.21424 31.2948 6.0366 31.5877 5.8 31.8323C5.51907 32.1132 5.17747 32.3295 4.8 32.4656C4.28014 32.6439 3.73082 32.7265 3.18 32.7092H2V32.4754H3C3.4484 32.5104 3.89582 32.3971 4.27 32.1539C4.55221 31.9481 4.75623 31.6567 4.85 31.3256C4.95345 30.9608 5.00394 30.5836 5 30.2051C5.04294 29.6218 4.89974 29.0399 4.59 28.539C4.41699 28.342 4.19713 28.1893 3.9496 28.0942C3.70208 27.9991 3.43442 27.9645 3.17 27.9933C3.04894 27.9762 2.92551 27.9848 2.80816 28.0184C2.6908 28.0521 2.58228 28.11 2.49 28.1882C2.35484 28.4361 2.2991 28.7178 2.33 28.9969V34.7846C2.31963 35.0065 2.3536 35.2282 2.43 35.4374C2.46293 35.5088 2.5127 35.5716 2.57526 35.6207C2.63781 35.6699 2.71139 35.7039 2.79 35.72C3.04616 35.7745 3.30782 35.8007 3.57 35.798V36.0513H2.73H0.73H0V35.8174C0.206816 35.8109 0.411878 35.7782 0.61 35.72C0.675392 35.6982 0.734249 35.661 0.781348 35.6117C0.828447 35.5624 0.862333 35.5025 0.88 35.4374C0.933122 35.2305 0.956677 35.0174 0.95 34.8041V28.958C0.956806 28.7447 0.933248 28.5316 0.88 28.3246C0.860579 28.2588 0.824901 28.1986 0.776088 28.1494C0.727276 28.1001 0.666816 28.0633 0.6 28.0421C0.402651 28.0029 0.20037 27.9931 0 28.0128L0 27.779Z" fill="white"/>
<path d="M14.3399 27.779C14.3399 28.0778 14.3166 28.3636 14.2699 28.6364C14.2233 28.9092 14.2233 29.1203 14.2699 29.2698C14.2699 29.4192 14.2699 29.5588 14.2699 29.6887C14.2699 29.8251 14.2699 29.9323 14.2699 30.02H13.9999C13.9647 29.6179 13.8773 29.2218 13.7399 28.841C13.6479 28.5822 13.4633 28.3643 13.2199 28.2272C12.9086 28.0825 12.5641 28.0187 12.2199 28.0421H11.3899C11.1942 28.037 10.9988 28.06 10.8099 28.1103C10.7475 28.1285 10.6904 28.161 10.6435 28.2051C10.5965 28.2492 10.561 28.3035 10.5399 28.3636C10.4833 28.56 10.4597 28.764 10.4699 28.9677V34.8723C10.4617 35.0728 10.4853 35.2732 10.5399 35.4667C10.5597 35.5286 10.5946 35.5849 10.6416 35.6307C10.6886 35.6765 10.7464 35.7105 10.8099 35.7297C10.9988 35.78 11.1942 35.803 11.3899 35.798H12.1699C12.5458 35.814 12.9199 35.7405 13.2599 35.5836C13.5392 35.4286 13.7548 35.1842 13.8699 34.8918C14.0362 34.4692 14.1438 34.0268 14.1899 33.5764H14.4699C14.4699 33.8038 14.4699 34.0993 14.4699 34.4631C14.4699 34.619 14.4699 34.8463 14.4699 35.1451C14.4699 35.4439 14.4933 35.7492 14.5399 36.061L13.1999 36.0513H9.50994H8.19994V35.8174C8.40676 35.8109 8.61182 35.7782 8.80994 35.72C8.87533 35.6982 8.93419 35.661 8.98129 35.6117C9.02839 35.5624 9.06227 35.5026 9.07994 35.4374C9.13306 35.2305 9.15662 35.0174 9.14994 34.8041V28.958C9.15675 28.7447 9.13319 28.5316 9.07994 28.3246C9.06052 28.2588 9.02484 28.1986 8.97603 28.1494C8.92722 28.1001 8.86676 28.0633 8.79994 28.0421C8.60248 27.9823 8.3967 27.9527 8.18994 27.9544V27.7205H9.50994H13.0799L14.3399 27.779ZM12.3399 31.7836V32.0174H10.1699V31.7836H12.3399ZM12.6899 30.2051C12.6899 30.6533 12.6899 30.9781 12.6899 31.1795C12.6899 31.3809 12.6899 31.5952 12.6899 31.8226C12.6899 32.0174 12.6899 32.2318 12.6899 32.4656C12.6899 32.6995 12.7099 33.0243 12.7499 33.44H12.4699C12.43 33.1906 12.3766 32.9434 12.3099 32.6995C12.2554 32.4801 12.1374 32.2806 11.9699 32.1246C11.7545 31.9595 11.4832 31.8795 11.2099 31.9005V31.6667C11.3471 31.679 11.4854 31.6619 11.615 31.6164C11.7446 31.571 11.8623 31.4983 11.9599 31.4036C12.1167 31.2239 12.2265 31.01 12.2799 30.78C12.3399 30.5397 12.3899 30.3221 12.4299 30.1272L12.6899 30.2051Z" fill="white"/>
<path d="M26.3401 27.779V28.0128C26.1333 28.0112 25.9275 28.0407 25.7301 28.1005C25.6651 28.1231 25.6067 28.1605 25.5597 28.2097C25.5127 28.2589 25.4785 28.3183 25.4601 28.3831C25.4068 28.59 25.3833 28.8032 25.3901 29.0164V34.8626C25.3834 35.0758 25.407 35.2889 25.4601 35.4959C25.4778 35.561 25.5116 35.6209 25.5587 35.6702C25.6058 35.7194 25.6647 35.7566 25.7301 35.7785C25.9282 35.8368 26.1333 35.8695 26.3401 35.8759V36.0513H25.5901H23.7401H23.0001V35.8174C23.2102 35.8109 23.4185 35.7782 23.6201 35.72C23.6869 35.6988 23.7474 35.6619 23.7962 35.6127C23.845 35.5634 23.8807 35.5032 23.9001 35.4374C23.9558 35.2309 23.9794 35.0174 23.9701 34.8041V28.4221H24.0301L21.0301 36.0903H20.8401L17.7401 28.5V34.4923C17.7321 34.7507 17.7556 35.0091 17.8101 35.2621C17.8289 35.3454 17.8664 35.4235 17.92 35.491C17.9736 35.5584 18.042 35.6133 18.1201 35.6518C18.3512 35.748 18.5989 35.8009 18.8501 35.8077V36.0513H18.2701H17.0801H16.5901V35.8174C16.7981 35.8085 17.0022 35.7588 17.1901 35.6713C17.2615 35.6306 17.3233 35.5758 17.3716 35.5103C17.4198 35.4448 17.4534 35.3702 17.4701 35.2913C17.5242 35.0481 17.5477 34.7995 17.5401 34.5508V28.9969C17.5496 28.7836 17.526 28.5701 17.4701 28.3636C17.4492 28.2985 17.413 28.2391 17.3644 28.1901C17.3158 28.141 17.2561 28.1037 17.1901 28.081C16.996 28.0213 16.7936 27.9917 16.5901 27.9933V27.7595H17.0801H18.3801H18.9901L21.6501 34.4144L21.4201 34.5703L24.0001 27.8082H25.5601L26.3401 27.779Z" fill="white"/>
<path d="M32.24 27.6133C32.9639 27.6003 33.6783 27.7752 34.31 28.12C34.909 28.4568 35.3926 28.9584 35.7 29.5621C36.0465 30.2769 36.2144 31.0616 36.19 31.8518C36.2102 32.6459 36.039 33.4335 35.69 34.1513C35.3758 34.7795 34.8874 35.3094 34.28 35.681C33.6611 36.0515 32.9461 36.2409 32.22 36.2267C31.4926 36.2424 30.7742 36.0674 30.14 35.72C29.5432 35.3791 29.0631 34.8741 28.76 34.2682C28.4296 33.5478 28.2588 32.7676 28.2588 31.9785C28.2588 31.1894 28.4296 30.4092 28.76 29.6887C29.0745 29.0638 29.5587 28.5347 30.16 28.159C30.7836 27.7828 31.5068 27.5931 32.24 27.6133ZM32.24 27.8277C31.9981 27.8258 31.7584 27.8714 31.535 27.9618C31.3116 28.0522 31.1093 28.1856 30.94 28.3539C30.5061 28.7529 30.1827 29.2523 30 29.8057C29.7885 30.5011 29.6874 31.224 29.7 31.9492C29.6964 32.6823 29.8216 33.4106 30.07 34.1026C30.2505 34.6462 30.5706 35.1359 31 35.5251C31.3498 35.8441 31.8109 36.0217 32.29 36.0221C32.5303 36.0238 32.7685 35.978 32.9902 35.8876C33.2119 35.7972 33.4126 35.6639 33.58 35.4959C33.98 35.0825 34.2716 34.5811 34.43 34.0344C34.6458 33.343 34.7504 32.6231 34.74 31.9005C34.7565 31.1657 34.6415 30.4337 34.4 29.7374C34.2206 29.2007 33.908 28.7154 33.49 28.3246C33.1403 27.9981 32.6743 27.8164 32.19 27.818L32.24 27.8277Z" fill="white"/>
<path d="M38.1101 36.0513V35.8174C38.3169 35.8109 38.522 35.7782 38.7201 35.72C38.7855 35.6982 38.8443 35.661 38.8914 35.6117C38.9385 35.5624 38.9724 35.5026 38.9901 35.4374C39.0432 35.2305 39.0668 35.0174 39.0601 34.8041V28.958C39.0669 28.7447 39.0433 28.5316 38.9901 28.3246C38.9707 28.2588 38.935 28.1986 38.8862 28.1494C38.8374 28.1001 38.7769 28.0633 38.7101 28.0421C38.5126 27.9823 38.3069 27.9527 38.1001 27.9544V27.7205H38.8201H40.6601H41.3901V27.9544C41.1866 27.9528 40.9841 27.9823 40.7901 28.0421C40.7241 28.0647 40.6644 28.102 40.6158 28.1511C40.5672 28.2001 40.531 28.2596 40.5101 28.3246C40.4541 28.5311 40.4305 28.7446 40.4401 28.958V34.8041C40.4305 35.0175 40.4541 35.231 40.5101 35.4374C40.5295 35.5032 40.5652 35.5634 40.614 35.6127C40.6628 35.6619 40.7233 35.6988 40.7901 35.72C40.9849 35.7779 41.1866 35.8106 41.3901 35.8174V36.0513H40.6601H38.8301H38.1101ZM39.9001 31.998V31.7641H44.6501V31.998H39.9001ZM43.1601 36.0513V35.8174C43.3669 35.8109 43.572 35.7782 43.7701 35.72C43.8355 35.6982 43.8943 35.661 43.9414 35.6117C43.9885 35.5624 44.0224 35.5026 44.0401 35.4374C44.0932 35.2305 44.1168 35.0174 44.1101 34.8041V28.958C44.1169 28.7447 44.0933 28.5316 44.0401 28.3246C44.0207 28.2588 43.985 28.1986 43.9362 28.1494C43.8874 28.1001 43.8269 28.0633 43.7601 28.0421C43.5626 27.9823 43.3569 27.9527 43.1501 27.9544V27.7205H43.9001H45.7301H46.4301V27.9544C46.2266 27.9528 46.0241 27.9823 45.8301 28.0421C45.7641 28.0647 45.7044 28.102 45.6558 28.1511C45.6072 28.2001 45.571 28.2596 45.5501 28.3246C45.4941 28.5311 45.4705 28.7446 45.4801 28.958V34.8041C45.4705 35.0175 45.4941 35.231 45.5501 35.4374C45.5695 35.5032 45.6052 35.5634 45.654 35.6127C45.7028 35.6619 45.7633 35.6988 45.8301 35.72C46.0249 35.7779 46.2266 35.8106 46.4301 35.8174V36.0513H45.7301H43.9101H43.1601Z" fill="white"/>
<path d="M55.1899 27.779C55.1899 28.1038 55.1666 28.4286 55.1199 28.7533C55.0733 29.0781 55.0733 29.3152 55.1199 29.4646C55.1199 29.6465 55.1199 29.8186 55.1199 29.981C55.1199 30.1467 55.1199 30.2831 55.1199 30.4H54.8399C54.7866 29.9286 54.6793 29.4645 54.5199 29.0164C54.4385 28.7137 54.2554 28.4461 53.9999 28.2564C53.6705 28.0891 53.3008 28.0116 52.9299 28.0323H52.4099V34.7067C52.3993 34.9438 52.4297 35.1809 52.4999 35.4082C52.5289 35.4851 52.577 35.5537 52.6398 35.6081C52.7026 35.6625 52.7782 35.701 52.8599 35.72C53.1188 35.7807 53.3837 35.8134 53.6499 35.8174V36.0513H52.7799H50.5999H49.7799V35.8174C50.0429 35.8135 50.3045 35.7808 50.5599 35.72C50.641 35.6994 50.7158 35.6604 50.7784 35.6063C50.841 35.5521 50.8895 35.4842 50.9199 35.4082C50.997 35.1823 51.0309 34.9445 51.0199 34.7067V28.0421H50.4899C50.1224 28.0236 49.7566 28.101 49.4299 28.2662C49.1547 28.436 48.9494 28.6946 48.8499 28.9969C48.6958 29.4459 48.5919 29.9098 48.5399 30.3805H48.2599C48.2674 30.241 48.2674 30.1011 48.2599 29.9615C48.2599 29.7991 48.2599 29.627 48.2599 29.4451C48.2599 29.2633 48.2599 29.0262 48.2599 28.7338C48.2599 28.4286 48.2366 28.1038 48.1899 27.7595H49.3199H54.0399L55.1899 27.779Z" fill="white"/>
<path d="M57.4199 34.6287C57.5317 34.6251 57.6431 34.6431 57.7478 34.6815C57.8525 34.72 57.9483 34.7782 58.0299 34.8528C58.1117 34.9274 58.1763 35.0181 58.2195 35.1189C58.2626 35.2197 58.2832 35.3283 58.2799 35.4374C58.2854 35.5539 58.2629 35.67 58.2143 35.7766C58.1657 35.8831 58.0923 35.9772 57.9999 36.0513C57.8343 36.1978 57.6186 36.279 57.3949 36.279C57.1712 36.279 56.9555 36.1978 56.7899 36.0513C56.7096 35.9797 56.6458 35.8923 56.6027 35.7948C56.5596 35.6974 56.5382 35.5922 56.5399 35.4861C56.5366 35.377 56.5572 35.2684 56.6003 35.1676C56.6434 35.0668 56.708 34.9761 56.7899 34.9015C56.8695 34.8157 56.9667 34.7471 57.0752 34.7001C57.1837 34.6531 57.3011 34.6288 57.4199 34.6287Z" fill="white"/>
<path d="M68.3901 27.6133C68.8348 27.5974 69.2779 27.6738 69.6901 27.8374C70.0142 27.9802 70.3197 28.1601 70.6001 28.3733C70.7601 28.4902 70.8834 28.4902 70.9701 28.3733C71.0858 28.1781 71.1446 27.9557 71.1401 27.7302H71.4201C71.4201 28.029 71.4201 28.3863 71.4201 28.802C71.4201 29.2178 71.4201 29.7732 71.4201 30.4682H71.1001C71.0467 30.1239 70.9934 29.8414 70.9401 29.6205C70.8982 29.4247 70.831 29.2348 70.7401 29.0554C70.6488 28.8883 70.5344 28.7342 70.4001 28.5974C70.1784 28.3222 69.8848 28.1101 69.5501 27.9836C69.208 27.8589 68.8453 27.7962 68.4801 27.7985C68.0973 27.7925 67.7214 27.8977 67.4001 28.1005C67.0703 28.3167 66.7993 28.6076 66.6101 28.9482C66.3816 29.354 66.2164 29.7908 66.1201 30.2441C66.0035 30.7822 65.9465 31.331 65.9501 31.881C65.9443 32.4381 66.0047 32.9939 66.1301 33.5374C66.2307 33.9877 66.4064 34.4189 66.6501 34.8138C66.8563 35.1469 67.1408 35.4274 67.4801 35.6323C67.8094 35.8235 68.1868 35.9213 68.5701 35.9149C68.9126 35.908 69.2512 35.842 69.5701 35.72C69.9028 35.6045 70.1944 35.3982 70.4101 35.1256C70.6269 34.9029 70.7848 34.632 70.8701 34.3364C70.9725 33.943 71.0427 33.5422 71.0801 33.1379H71.3601C71.3601 33.859 71.3601 34.4403 71.3601 34.882C71.3601 35.3238 71.3601 35.6973 71.3601 36.0026H71.0801C71.0826 35.7817 71.0275 35.5637 70.9201 35.3692C70.8467 35.2848 70.7201 35.2848 70.5401 35.3692C70.2431 35.5738 69.9286 35.7531 69.6001 35.9051C69.1954 36.0701 68.7584 36.1466 68.3201 36.1292C67.5927 36.145 66.8743 35.97 66.2401 35.6226C65.6433 35.2817 65.1632 34.7766 64.8601 34.1708C64.5297 33.4503 64.3589 32.6701 64.3589 31.881C64.3589 31.0919 64.5297 30.3117 64.8601 29.5913C65.1746 28.9663 65.6588 28.4373 66.2601 28.0615C66.9089 27.71 67.6502 27.554 68.3901 27.6133Z" fill="white"/>
<path d="M80.4499 27.779C80.4499 28.1038 80.4266 28.4286 80.3799 28.7533C80.3332 29.0781 80.3332 29.3152 80.3799 29.4646C80.3799 29.6465 80.3799 29.8186 80.3799 29.981C80.3799 30.1467 80.3799 30.2831 80.3799 30.4H80.0999C80.0466 29.9286 79.9392 29.4645 79.7799 29.0164C79.6794 28.7174 79.4786 28.4601 79.2099 28.2856C78.8805 28.1183 78.5108 28.0409 78.1399 28.0615H77.6199V34.7359C77.6093 34.973 77.6397 35.2102 77.7099 35.4374C77.7389 35.5143 77.7869 35.583 77.8498 35.6374C77.9126 35.6917 77.9882 35.7302 78.0699 35.7492C78.3288 35.8099 78.5937 35.8426 78.8599 35.8467V36.0513H77.9999H75.8499H74.9999V35.8174C75.2628 35.8135 75.5245 35.7808 75.7799 35.72C75.8609 35.6994 75.9358 35.6604 75.9984 35.6063C76.0609 35.5521 76.1094 35.4842 76.1399 35.4082C76.2169 35.1823 76.2508 34.9445 76.2399 34.7067V28.0421H75.7099C75.3424 28.0236 74.9765 28.101 74.6499 28.2662C74.3747 28.436 74.1694 28.6946 74.0699 28.9969C73.9158 29.4459 73.8118 29.9098 73.7599 30.3805H73.4799C73.4874 30.241 73.4874 30.1011 73.4799 29.9615C73.4799 29.7991 73.4799 29.627 73.4799 29.4451C73.4799 29.2633 73.4799 29.0262 73.4799 28.7338C73.4799 28.4286 73.4566 28.1038 73.4099 27.7595H74.5399H79.2599L80.4499 27.779Z" fill="white"/>
<path d="M82.21 27.779H82.93H85.64C86.4546 27.7195 87.2639 27.9478 87.92 28.4221C88.1668 28.6265 88.3632 28.8824 88.4948 29.1708C88.6263 29.4592 88.6896 29.7727 88.68 30.0882C88.6772 30.3895 88.6266 30.6886 88.53 30.9749C88.4242 31.2948 88.2466 31.5877 88.01 31.8323C87.729 32.1132 87.3874 32.3295 87.01 32.4656C86.4901 32.6439 85.9408 32.7265 85.39 32.7092H84.2V32.4754H85.26C85.695 32.5017 86.1269 32.3888 86.49 32.1539C86.7722 31.9481 86.9762 31.6567 87.07 31.3256C87.1734 30.9608 87.2239 30.5836 87.22 30.2051C87.2629 29.6218 87.1197 29.0399 86.81 28.539C86.637 28.342 86.4171 28.1893 86.1696 28.0942C85.922 27.9991 85.6544 27.9645 85.39 27.9933C85.2689 27.9762 85.1455 27.9848 85.0281 28.0184C84.9108 28.0521 84.8022 28.11 84.71 28.1882C84.5748 28.4361 84.5191 28.7178 84.55 28.9969V34.7846C84.5396 35.0065 84.5736 35.2282 84.65 35.4374C84.6829 35.5088 84.7327 35.5716 84.7952 35.6207C84.8578 35.6699 84.9314 35.7039 85.01 35.72C85.2661 35.7745 85.5278 35.8007 85.79 35.798V36.0513H84.95H83H82.26V35.8174C82.4668 35.8109 82.6718 35.7782 82.87 35.72C82.9354 35.6982 82.9942 35.661 83.0413 35.6117C83.0884 35.5624 83.1223 35.5025 83.14 35.4374C83.1931 35.2305 83.2166 35.0174 83.21 34.8041V28.958C83.2168 28.7447 83.1932 28.5316 83.14 28.3246C83.1205 28.2588 83.0849 28.1986 83.036 28.1494C82.9872 28.1001 82.9268 28.0633 82.86 28.0421C82.6625 27.9823 82.4567 27.9527 82.25 27.9544L82.21 27.779Z" fill="white"/>
<path d="M94.53 27.6133C95.254 27.6003 95.9684 27.7751 96.6 28.12C97.2028 28.4553 97.69 28.9571 98 29.5621C98.3466 30.2769 98.5145 31.0616 98.49 31.8518C98.5057 32.6287 98.338 33.3987 98 34.1026C97.6859 34.7308 97.1974 35.2607 96.59 35.6323C95.9712 36.0028 95.2562 36.1922 94.53 36.178C93.8026 36.1937 93.0843 36.0187 92.45 35.6713C91.8533 35.3304 91.3732 34.8253 91.07 34.2195C90.7396 33.4991 90.5688 32.7188 90.5688 31.9297C90.5688 31.1407 90.7396 30.3604 91.07 29.64C91.3845 29.0151 91.8687 28.486 92.47 28.1103C93.0933 27.7548 93.8086 27.5823 94.53 27.6133ZM94.53 27.8277C94.2882 27.8258 94.0484 27.8714 93.8251 27.9618C93.6017 28.0522 93.3993 28.1855 93.23 28.3539C92.8288 28.7626 92.5369 29.2611 92.38 29.8056C92.1686 30.5011 92.0674 31.224 92.08 31.9492C92.0507 32.6778 92.1488 33.406 92.37 34.1026C92.5463 34.6407 92.8594 35.1267 93.28 35.5154C93.6299 35.8344 94.0909 36.012 94.57 36.0123C94.8104 36.014 95.0486 35.9683 95.2703 35.8778C95.492 35.7874 95.6926 35.6542 95.86 35.4862C96.26 35.0728 96.5516 34.5714 96.71 34.0246C96.9181 33.3353 97.0159 32.6189 97 31.9005C97.0166 31.1657 96.9015 30.4337 96.66 29.7374C96.4807 29.2007 96.1681 28.7154 95.75 28.3246C95.4104 28.0073 94.9605 27.8264 94.49 27.818L94.53 27.8277Z" fill="white"/>
<path d="M103.69 27.779V28.0128C103.486 28.0112 103.284 28.0408 103.09 28.1005C103.024 28.1232 102.964 28.1605 102.916 28.2095C102.867 28.2586 102.831 28.318 102.81 28.3831C102.754 28.5895 102.73 28.8031 102.74 29.0164V34.8626C102.73 35.0759 102.754 35.2894 102.81 35.4959C102.829 35.5617 102.865 35.6219 102.914 35.6711C102.963 35.7204 103.023 35.7572 103.09 35.7785C103.285 35.8364 103.486 35.8691 103.69 35.8759V36.0513H103H101.16H100.44V35.8174C100.647 35.8105 100.852 35.7778 101.05 35.72C101.117 35.6996 101.178 35.663 101.227 35.6136C101.276 35.5642 101.311 35.5036 101.33 35.4374C101.383 35.2305 101.407 35.0174 101.4 34.8041V28.958C101.407 28.7447 101.383 28.5316 101.33 28.3246C101.311 28.2588 101.275 28.1986 101.226 28.1494C101.177 28.1001 101.117 28.0633 101.05 28.0421C100.852 27.9823 100.647 27.9527 100.44 27.9544V27.7205H101.16H103L103.69 27.779ZM106.86 28.5098C106.86 28.6721 106.86 28.841 106.86 29.0164L102.32 35.6518V35.2036L106.86 28.5098ZM108.98 27.779V28.0128C108.776 28.0112 108.574 28.0408 108.38 28.1005C108.314 28.1232 108.254 28.1605 108.206 28.2095C108.157 28.2586 108.121 28.318 108.1 28.3831C108.044 28.5896 108.02 28.8031 108.03 29.0164V34.8626C108.021 35.0759 108.044 35.2894 108.1 35.4959C108.119 35.5617 108.155 35.6219 108.204 35.6711C108.253 35.7204 108.313 35.7572 108.38 35.7785C108.575 35.8364 108.776 35.8691 108.98 35.8759V36.0513H108.27H106.44H105.7V35.8174C105.903 35.8106 106.105 35.7779 106.3 35.72C106.367 35.6988 106.427 35.6619 106.476 35.6127C106.525 35.5634 106.561 35.5032 106.58 35.4374C106.636 35.2309 106.659 35.0174 106.65 34.8041V28.958C106.659 28.7446 106.636 28.5311 106.58 28.3246C106.559 28.2596 106.523 28.2001 106.474 28.1511C106.426 28.102 106.366 28.0647 106.3 28.0421C106.106 27.9823 105.903 27.9528 105.7 27.9544V27.7205H106.44H108.27L108.98 27.779Z" fill="white"/>
<path d="M117.73 27.779C117.73 28.1038 117.707 28.4286 117.66 28.7533C117.613 29.0781 117.613 29.3152 117.66 29.4646C117.66 29.6465 117.66 29.8186 117.66 29.981C117.66 30.1467 117.66 30.2831 117.66 30.4H117.38C117.327 29.9286 117.219 29.4645 117.06 29.0164C116.959 28.7175 116.759 28.4601 116.49 28.2857C116.161 28.1183 115.791 28.0409 115.42 28.0616H114.9V34.7359C114.889 34.973 114.92 35.2102 114.99 35.4374C115.019 35.5143 115.067 35.583 115.13 35.6374C115.193 35.6918 115.268 35.7302 115.35 35.7492C115.609 35.8099 115.874 35.8426 116.14 35.8467V36.0513H115.27H113.1H112.28V35.8174C112.543 35.8135 112.805 35.7809 113.06 35.72C113.141 35.6994 113.216 35.6605 113.278 35.6063C113.341 35.5521 113.39 35.4842 113.42 35.4082C113.497 35.1823 113.531 34.9445 113.52 34.7067V28.0421H113C112.654 28.0308 112.31 28.1045 112 28.2564C111.725 28.4263 111.519 28.6849 111.42 28.9872C111.266 29.4362 111.162 29.9001 111.11 30.3708H110.83C110.837 30.2312 110.837 30.0914 110.83 29.9518C110.83 29.7894 110.83 29.6173 110.83 29.4354C110.83 29.2535 110.83 29.0164 110.83 28.7241C110.83 28.4188 110.807 28.094 110.76 27.7498H111.89H116.61L117.73 27.779Z" fill="white"/>
<path d="M125.64 27.779C125.64 28.0778 125.617 28.3636 125.57 28.6364C125.523 28.9092 125.523 29.1203 125.57 29.2697C125.57 29.4191 125.57 29.5588 125.57 29.6887C125.57 29.8251 125.57 29.9323 125.57 30.02H125.29C125.255 29.6179 125.167 29.2218 125.03 28.841C124.938 28.5822 124.753 28.3643 124.51 28.2272C124.199 28.0825 123.854 28.0187 123.51 28.0421H122.68C122.484 28.037 122.289 28.06 122.1 28.1103C122.038 28.1285 121.98 28.161 121.933 28.2051C121.887 28.2492 121.851 28.3035 121.83 28.3636C121.773 28.56 121.75 28.764 121.76 28.9677V34.8723C121.752 35.0728 121.775 35.2732 121.83 35.4667C121.85 35.5286 121.885 35.5849 121.932 35.6307C121.979 35.6765 122.036 35.7105 122.1 35.7297C122.289 35.78 122.484 35.803 122.68 35.7979H123.46C123.836 35.814 124.21 35.7405 124.55 35.5836C124.829 35.4286 125.045 35.1842 125.16 34.8918C125.326 34.4692 125.434 34.0268 125.48 33.5764H125.76C125.76 33.8038 125.76 34.0993 125.76 34.4631C125.76 34.619 125.76 34.8463 125.76 35.1451C125.76 35.4439 125.783 35.7492 125.83 36.061H124.45H120.77H119.45V35.8272C119.657 35.8207 119.862 35.7879 120.06 35.7297C120.125 35.7079 120.184 35.6707 120.231 35.6214C120.278 35.5721 120.312 35.5123 120.33 35.4472C120.383 35.2402 120.407 35.0271 120.4 34.8138V28.9677C120.407 28.7544 120.383 28.5413 120.33 28.3344C120.311 28.2686 120.275 28.2084 120.226 28.1591C120.177 28.1099 120.117 28.073 120.05 28.0518C119.852 27.992 119.647 27.9624 119.44 27.9641V27.7303H120.76H124.33L125.64 27.779ZM123.64 31.7836V32.0174H121.46V31.7836H123.64ZM124 30.2051C124 30.6533 124 30.9781 124 31.1795C124 31.3809 124 31.5952 124 31.8226C124 32.0174 124 32.2318 124 32.4656C124 32.6995 124.02 33.0243 124.06 33.44H123.78C123.74 33.1906 123.687 32.9434 123.62 32.6995C123.565 32.4801 123.447 32.2806 123.28 32.1246C123.065 31.9595 122.793 31.8795 122.52 31.9005V31.6667C122.657 31.679 122.795 31.6619 122.925 31.6164C123.055 31.571 123.172 31.4983 123.27 31.4036C123.427 31.2239 123.536 31.01 123.59 30.78C123.65 30.5397 123.7 30.3221 123.74 30.1272L124 30.2051Z" fill="white"/>
<path d="M135.35 27.779V28.0128C135.14 28.0101 134.931 28.0397 134.73 28.1005C134.664 28.1231 134.604 28.1605 134.556 28.2095C134.507 28.2586 134.471 28.318 134.45 28.3831C134.394 28.5895 134.371 28.8031 134.38 29.0164V34.8625C134.371 35.0759 134.394 35.2894 134.45 35.4959C134.469 35.5617 134.505 35.6219 134.554 35.6711C134.603 35.7204 134.663 35.7572 134.73 35.7784C134.932 35.8366 135.14 35.8693 135.35 35.8759V36.0513H134.62H132.62H131.79V35.8174C132.036 35.8104 132.281 35.7777 132.52 35.72C132.596 35.7025 132.666 35.6678 132.725 35.6187C132.784 35.5695 132.83 35.5074 132.86 35.4374C132.93 35.2335 132.96 35.0188 132.95 34.8041V28.9579C132.987 28.6688 132.92 28.376 132.76 28.1297C132.545 27.9814 132.282 27.9155 132.02 27.9446H131.89C131.697 27.9361 131.503 27.9626 131.32 28.0225C131.258 28.0492 131.203 28.0895 131.16 28.1402C131.117 28.1909 131.086 28.2507 131.07 28.3149C131.016 28.5223 130.982 28.7344 130.97 28.9482C130.923 29.4938 130.877 30.0947 130.83 30.7508C130.783 31.4068 130.72 32.0564 130.64 32.6995C130.567 33.2898 130.443 33.8732 130.27 34.4436C130.139 34.9085 129.908 35.3406 129.59 35.7102C129.45 35.8663 129.275 35.9901 129.08 36.0726C128.885 36.1552 128.673 36.1945 128.46 36.1877C128.174 36.1899 127.893 36.1121 127.65 35.9636C127.531 35.8956 127.433 35.7968 127.368 35.6782C127.303 35.5596 127.272 35.4257 127.28 35.2913C127.275 35.1833 127.295 35.0756 127.338 34.9761C127.381 34.8766 127.447 34.7878 127.53 34.7164C127.692 34.5757 127.903 34.4992 128.12 34.502C128.304 34.4939 128.484 34.5491 128.63 34.6579C128.695 34.7093 128.747 34.7749 128.782 34.8493C128.817 34.9237 128.833 35.005 128.83 35.0867C128.838 35.2717 128.774 35.4528 128.65 35.5933C128.511 35.7342 128.344 35.8468 128.16 35.9246H128.32H128.46C128.636 35.9279 128.811 35.8928 128.972 35.822C129.133 35.7513 129.276 35.6465 129.39 35.5154C129.67 35.1865 129.878 34.8051 130 34.3949C130.169 33.87 130.293 33.3322 130.37 32.7872C130.457 32.1831 130.523 31.553 130.57 30.8969C130.617 30.2408 130.66 29.5913 130.7 28.9482C130.761 28.6743 130.711 28.3878 130.56 28.1492C130.311 27.9916 130.016 27.9196 129.72 27.9446V27.7108H130.32H131H131.54H132.06H132.89H133.78H134.89L135.35 27.779Z" fill="white"/>
<path d="M140.71 27.779V28.0128C140.467 28.0117 140.225 28.0412 139.99 28.1005C139.915 28.1187 139.845 28.1537 139.786 28.2027C139.727 28.2518 139.68 28.3135 139.65 28.3831C139.586 28.5882 139.559 28.8024 139.57 29.0164V34.8626C139.542 35.1426 139.591 35.4248 139.71 35.681C139.8 35.8077 140.02 35.8662 140.37 35.8662C140.768 35.8904 141.162 35.784 141.49 35.5641C141.752 35.36 141.941 35.0803 142.03 34.7651C142.135 34.4005 142.185 34.0232 142.18 33.6446C142.189 33.2278 142.125 32.8125 141.99 32.4169C141.886 32.1039 141.678 31.8333 141.4 31.6472C141.061 31.4543 140.672 31.3629 140.28 31.3841H138.86V31.1503H140.57C141.176 31.1284 141.78 31.2348 142.34 31.4621C142.753 31.6362 143.102 31.9284 143.34 32.3C143.559 32.6629 143.669 33.0778 143.66 33.4985C143.659 33.8103 143.605 34.1199 143.5 34.4144C143.388 34.7279 143.207 35.0139 142.97 35.2523C142.689 35.5282 142.347 35.7381 141.97 35.8662C141.468 36.0299 140.94 36.1058 140.41 36.0903H139.75H138.89H138H137.28V35.8564C137.487 35.8494 137.692 35.8166 137.89 35.759C137.957 35.7385 138.018 35.7019 138.067 35.6526C138.116 35.6032 138.151 35.5426 138.17 35.4764C138.223 35.2694 138.246 35.0563 138.24 34.8431V28.9969C138.246 28.7837 138.223 28.5706 138.17 28.3636C138.15 28.2982 138.114 28.2384 138.065 28.1892C138.016 28.1401 137.956 28.103 137.89 28.081C137.693 28.0213 137.487 27.9917 137.28 27.9933V27.7595H138H139.95L140.71 27.779Z" fill="white"/>
<path d="M149.51 27.6133C149.955 27.5977 150.398 27.6741 150.81 27.8374C151.134 27.9801 151.44 28.16 151.72 28.3733C151.88 28.4902 152.003 28.4902 152.09 28.3733C152.206 28.1782 152.265 27.9557 152.26 27.7302H152.54C152.54 28.0225 152.54 28.3831 152.54 28.802C152.54 29.221 152.54 29.7764 152.54 30.4682H152.26C152.207 30.1239 152.153 29.8414 152.1 29.6205C152.058 29.4246 151.991 29.2347 151.9 29.0554C151.809 28.8881 151.694 28.734 151.56 28.5974C151.338 28.3222 151.045 28.1101 150.71 27.9836C150.368 27.8589 150.005 27.7962 149.64 27.7984C149.257 27.7925 148.881 27.8977 148.56 28.1005C148.23 28.3167 147.959 28.6076 147.77 28.9482C147.541 29.354 147.376 29.7908 147.28 30.2441C147.163 30.7822 147.106 31.331 147.11 31.881C147.104 32.4381 147.165 32.9939 147.29 33.5374C147.39 33.9878 147.566 34.419 147.81 34.8138C148.016 35.1466 148.301 35.4271 148.64 35.6323C148.969 35.8235 149.347 35.9213 149.73 35.9149C150.072 35.908 150.411 35.842 150.73 35.72C151.063 35.6045 151.354 35.3982 151.57 35.1256C151.785 34.9015 151.942 34.6311 152.03 34.3364C152.132 33.943 152.203 33.5422 152.24 33.1379H152.52C152.52 33.859 152.52 34.4403 152.52 34.882C152.52 35.3237 152.52 35.6973 152.52 36.0025H152.24C152.242 35.7817 152.187 35.5639 152.08 35.3692C152.007 35.2848 151.88 35.2848 151.7 35.3692C151.403 35.574 151.089 35.7533 150.76 35.9051C150.355 36.0701 149.918 36.1466 149.48 36.1292C148.753 36.145 148.034 35.97 147.4 35.6226C146.811 35.3134 146.326 34.8469 146 34.2779C145.669 33.5577 145.498 32.7774 145.498 31.9882C145.498 31.199 145.669 30.4187 146 29.6984C146.314 29.0735 146.799 28.5444 147.4 28.1687C148.031 27.7835 148.766 27.5902 149.51 27.6133Z" fill="white"/>
<path d="M161.57 27.779C161.57 28.1103 161.52 28.4221 161.5 28.7533C161.48 29.0846 161.5 29.299 161.5 29.4646C161.5 29.6303 161.5 29.8154 161.5 29.981C161.5 30.1467 161.5 30.2831 161.5 30.4H161.22C161.167 29.9286 161.059 29.4645 160.9 29.0164C160.8 28.7174 160.599 28.4601 160.33 28.2856C160.001 28.1183 159.631 28.0409 159.26 28.0615H158.74V34.7359C158.73 34.973 158.76 35.2101 158.83 35.4374C158.859 35.5143 158.907 35.583 158.97 35.6374C159.033 35.6917 159.108 35.7302 159.19 35.7492C159.449 35.8099 159.714 35.8426 159.98 35.8467V36.0513H159.11H157H156.18V35.8174C156.443 35.8135 156.705 35.7808 156.96 35.72C157.041 35.6994 157.116 35.6604 157.179 35.6063C157.241 35.5521 157.29 35.4842 157.32 35.4082C157.396 35.182 157.43 34.9444 157.42 34.7067V28.0421H156.89C156.523 28.0236 156.157 28.101 155.83 28.2662C155.555 28.436 155.35 28.6946 155.25 28.9969C155.096 29.446 154.992 29.9099 154.94 30.3805H154.66C154.668 30.241 154.668 30.1011 154.66 29.9615C154.66 29.7991 154.66 29.627 154.66 29.4451C154.66 29.2633 154.66 29.0262 154.66 28.7338C154.66 28.4221 154.66 28.1103 154.59 27.7595H155.72H160.44L161.57 27.779Z" fill="white"/>
<path d="M163.34 27.779H164.06H166.77C167.477 27.7313 168.18 27.9129 168.77 28.2954C168.982 28.4486 169.153 28.6486 169.269 28.8791C169.386 29.1095 169.444 29.3637 169.44 29.6205C169.438 29.9046 169.37 30.1845 169.24 30.439C169.093 30.7308 168.873 30.982 168.6 31.1697C168.243 31.4102 167.843 31.5822 167.42 31.6764C167.974 31.7317 168.511 31.894 169 32.1539C169.343 32.325 169.628 32.5889 169.82 32.9138C169.976 33.1953 170.058 33.5099 170.06 33.8297C170.069 34.1462 170.002 34.4604 169.863 34.7466C169.724 35.0328 169.517 35.2829 169.26 35.4764C168.597 35.9153 167.799 36.1183 167 36.0513H166.2H164.91H164.01H163.29V35.8174C163.497 35.811 163.702 35.7783 163.9 35.72C163.965 35.6982 164.024 35.661 164.071 35.6117C164.118 35.5624 164.152 35.5025 164.17 35.4374C164.223 35.2305 164.247 35.0174 164.24 34.8041V28.958C164.247 28.7447 164.223 28.5316 164.17 28.3246C164.151 28.2588 164.115 28.1986 164.066 28.1494C164.017 28.1001 163.957 28.0633 163.89 28.0421C163.693 27.9823 163.487 27.9527 163.28 27.9544L163.34 27.779ZM166.51 28.0128C166.389 27.9957 166.266 28.0043 166.148 28.0379C166.031 28.0715 165.922 28.1295 165.83 28.2077C165.695 28.4556 165.639 28.7373 165.67 29.0164V34.8626C165.638 35.1366 165.697 35.4135 165.84 35.6518C166.044 35.7991 166.298 35.8653 166.55 35.8369C166.836 35.8626 167.124 35.828 167.395 35.7356C167.666 35.6431 167.913 35.4949 168.12 35.301C168.471 34.8713 168.646 34.3294 168.61 33.781C168.64 33.272 168.464 32.7718 168.12 32.3877C167.899 32.2055 167.642 32.0684 167.366 31.9847C167.089 31.901 166.798 31.8724 166.51 31.9005H165.34V31.7056H166.34C166.693 31.7228 167.043 31.6307 167.34 31.4426C167.578 31.2679 167.751 31.0212 167.83 30.741C167.922 30.4243 167.966 30.0959 167.96 29.7667C167.993 29.3059 167.87 28.8473 167.61 28.461C167.473 28.3109 167.303 28.1928 167.112 28.1152C166.922 28.0376 166.716 28.0027 166.51 28.0128Z" fill="white"/>
<path d="M176.08 27.6133C176.804 27.6003 177.518 27.7752 178.15 28.12C178.749 28.4568 179.233 28.9584 179.54 29.5621C179.887 30.2768 180.055 31.0615 180.03 31.8518C180.05 32.6459 179.879 33.4335 179.53 34.1513C179.216 34.7798 178.728 35.3098 178.12 35.681C177.501 36.0515 176.786 36.2409 176.06 36.2267C175.333 36.2424 174.614 36.0674 173.98 35.72C173.383 35.3791 172.903 34.8741 172.6 34.2682C172.269 33.5479 172.098 32.7677 172.098 31.9785C172.098 31.1893 172.269 30.409 172.6 29.6887C172.915 29.0638 173.399 28.5347 174 28.159C174.624 27.7828 175.347 27.5931 176.08 27.6133ZM176.08 27.8277C175.838 27.8258 175.598 27.8714 175.375 27.9618C175.152 28.0522 174.949 28.1856 174.78 28.3539C174.379 28.7623 174.087 29.261 173.93 29.8057C173.718 30.5011 173.617 31.224 173.63 31.9492C173.616 32.6839 173.731 33.4156 173.97 34.1123C174.146 34.6506 174.459 35.1367 174.88 35.5251C175.23 35.8441 175.691 36.0217 176.17 36.0221C176.41 36.0238 176.649 35.978 176.87 35.8876C177.092 35.7972 177.293 35.6639 177.46 35.4959C177.86 35.0825 178.152 34.5811 178.31 34.0344C178.526 33.343 178.63 32.6231 178.62 31.9005C178.636 31.1657 178.521 30.4338 178.28 29.7374C178.1 29.2009 177.788 28.7157 177.37 28.3246C177.188 28.1546 176.974 28.0222 176.738 27.9351C176.503 27.848 176.252 27.8082 176 27.818L176.08 27.8277Z" fill="white"/>
<path d="M182.88 34.6287C182.992 34.6251 183.103 34.6431 183.208 34.6815C183.313 34.72 183.409 34.7782 183.49 34.8528C183.572 34.9274 183.637 35.0181 183.68 35.1189C183.723 35.2197 183.743 35.3283 183.74 35.4374C183.742 35.5435 183.72 35.6487 183.677 35.7461C183.634 35.8435 183.57 35.9309 183.49 36.0026C183.325 36.1491 183.109 36.2303 182.885 36.2303C182.661 36.2303 182.446 36.1491 182.28 36.0026C182.2 35.9309 182.136 35.8435 182.093 35.7461C182.05 35.6487 182.028 35.5435 182.03 35.4374C182.027 35.3283 182.047 35.2197 182.091 35.1189C182.134 35.0181 182.198 34.9274 182.28 34.8528C182.442 34.7036 182.658 34.623 182.88 34.6287Z" fill="white"/>
<path d="M196.39 27.779V28.0128C196.18 28.0111 195.971 28.0406 195.77 28.1005C195.704 28.1232 195.644 28.1605 195.596 28.2095C195.547 28.2586 195.511 28.318 195.49 28.3831C195.434 28.5895 195.41 28.8031 195.42 29.0164V34.8626C195.382 35.1493 195.442 35.4402 195.59 35.6908C195.817 35.8451 196.095 35.9112 196.37 35.8759H196.73C196.73 36.1552 196.707 36.428 196.66 36.6944C196.613 36.9607 196.613 37.1653 196.66 37.3082C196.645 37.5548 196.645 37.8021 196.66 38.0487H196.38C196.344 37.6594 196.256 37.2763 196.12 36.9087C196.027 36.6474 195.838 36.4287 195.59 36.2949C195.277 36.1542 194.934 36.0906 194.59 36.1097H191.4C191.056 36.0902 190.713 36.1538 190.4 36.2949C190.154 36.4291 189.969 36.6481 189.88 36.9087C189.749 37.2778 189.662 37.6603 189.62 38.0487H189.34C189.355 37.8021 189.355 37.5548 189.34 37.3082C189.34 37.1653 189.34 36.9607 189.34 36.6944C189.34 36.428 189.317 36.1552 189.27 35.8759H193.01C193.288 35.909 193.568 35.8433 193.8 35.6908C193.954 35.4424 194.018 35.1505 193.98 34.8626V29.0164C194.018 28.7272 193.951 28.4341 193.79 28.1882C193.575 28.0399 193.312 27.974 193.05 28.0031H193C192.813 27.9947 192.627 28.0212 192.45 28.081C192.388 28.1077 192.333 28.148 192.29 28.1987C192.247 28.2494 192.216 28.3091 192.2 28.3733C192.146 28.5809 192.113 28.793 192.1 29.0067C192.053 29.5393 192.007 30.1207 191.96 30.7508C191.913 31.3808 191.85 32.0077 191.77 32.6313C191.696 33.2088 191.573 33.7793 191.4 34.3364C191.268 34.7918 191.036 35.2139 190.72 35.5738C190.578 35.7276 190.404 35.8492 190.208 35.93C190.013 36.0108 189.802 36.0489 189.59 36.0415V35.8174C189.766 35.8219 189.94 35.7884 190.101 35.7193C190.262 35.6502 190.405 35.5473 190.52 35.4179C190.796 35.0988 191 34.7271 191.12 34.3267C191.286 33.8109 191.41 33.2831 191.49 32.7482C191.583 32.1571 191.653 31.5432 191.7 30.9067C191.747 30.2701 191.79 29.6367 191.83 29.0067C191.885 28.7326 191.836 28.4483 191.69 28.2077C191.445 28.0501 191.152 27.978 190.86 28.0031V27.7692H191.46H192H192.54H193.06H193.89H194.78H195.89L196.39 27.779Z" fill="white"/>
<path d="M201.65 27.779V28.0128C201.447 28.0122 201.244 28.0417 201.05 28.1005C200.984 28.1232 200.924 28.1605 200.876 28.2095C200.827 28.2586 200.791 28.318 200.77 28.3831C200.714 28.5896 200.691 28.8031 200.7 29.0164V34.8626C200.691 35.0759 200.714 35.2894 200.77 35.4959C200.79 35.5617 200.825 35.6219 200.874 35.6711C200.923 35.7204 200.983 35.7572 201.05 35.7785C201.245 35.8362 201.447 35.869 201.65 35.8759V36.0513H200.92H199.08H198.36V35.8174C198.567 35.8105 198.772 35.7778 198.97 35.72C199.037 35.6996 199.098 35.663 199.147 35.6136C199.196 35.5642 199.231 35.5036 199.25 35.4374C199.303 35.2305 199.327 35.0174 199.32 34.8041V28.958C199.327 28.7447 199.303 28.5316 199.25 28.3246C199.231 28.2588 199.195 28.1986 199.146 28.1494C199.097 28.1001 199.037 28.0633 198.97 28.0421C198.773 27.9823 198.567 27.9527 198.36 27.9544V27.7205H199.08H200.92L201.65 27.779ZM204.82 28.5098C204.82 28.6721 204.82 28.841 204.82 29.0164L200.28 35.6518V35.2036L204.82 28.5098ZM206.94 27.779V28.0128C206.737 28.0112 206.534 28.0408 206.34 28.1005C206.274 28.1232 206.214 28.1605 206.166 28.2095C206.117 28.2586 206.081 28.318 206.06 28.3831C206.004 28.5895 205.98 28.8031 205.99 29.0164V34.8626C205.98 35.0759 206.004 35.2895 206.06 35.4959C206.08 35.5617 206.115 35.6219 206.164 35.6711C206.213 35.7204 206.273 35.7572 206.34 35.7785C206.535 35.8364 206.737 35.8691 206.94 35.8759V36.0513H206.23H204.4H203.66V35.8174C203.864 35.8108 204.065 35.778 204.26 35.72C204.327 35.6988 204.387 35.6619 204.436 35.6127C204.485 35.5634 204.521 35.5032 204.54 35.4374C204.596 35.2309 204.619 35.0174 204.61 34.8041V28.958C204.62 28.7446 204.596 28.5311 204.54 28.3246C204.519 28.2596 204.483 28.2001 204.434 28.1511C204.386 28.102 204.326 28.0647 204.26 28.0421C204.066 27.9823 203.864 27.9528 203.66 27.9544V27.7205H204.4H206.23L206.94 27.779Z" fill="white"/>
<path d="M211.75 27.6133C212.389 27.5866 213.022 27.7534 213.56 28.0908C213.781 28.2305 213.961 28.423 214.083 28.6499C214.206 28.8767 214.267 29.1304 214.26 29.3867C214.265 29.695 214.182 29.9988 214.02 30.2636C213.857 30.5254 213.643 30.7538 213.39 30.9359C213.13 31.1243 212.848 31.2814 212.55 31.4036C212.272 31.5216 211.984 31.6161 211.69 31.6862C212.051 31.6952 212.41 31.7443 212.76 31.8323C213.113 31.9128 213.451 32.0477 213.76 32.2318C214.041 32.4031 214.28 32.6327 214.46 32.9041C214.647 33.1955 214.737 33.5355 214.72 33.8785C214.728 34.2428 214.627 34.6014 214.43 34.9113C214.231 35.2153 213.965 35.4718 213.65 35.6615C213.306 35.869 212.932 36.0235 212.54 36.1195C212.119 36.2259 211.685 36.2783 211.25 36.2754C210.872 36.2817 210.495 36.2358 210.13 36.139C209.851 36.0671 209.585 35.9555 209.34 35.8077C209.183 35.6999 209.044 35.5684 208.93 35.4179C208.815 35.2656 208.756 35.0806 208.76 34.8918C208.756 34.7939 208.774 34.6964 208.812 34.6057C208.85 34.515 208.907 34.4332 208.98 34.3656C209.127 34.2342 209.321 34.1642 209.52 34.1708C209.718 34.1636 209.911 34.2297 210.06 34.3559C210.174 34.4941 210.235 34.666 210.235 34.8431C210.235 35.0202 210.174 35.192 210.06 35.3303C209.938 35.4577 209.776 35.5431 209.6 35.5738C209.772 35.7258 209.983 35.8301 210.21 35.8759C210.535 35.9653 210.872 36.008 211.21 36.0026C211.499 36.0232 211.789 35.9825 212.06 35.8832C212.331 35.784 212.577 35.6285 212.78 35.4277C213.138 35.0077 213.324 34.4729 213.3 33.9272C213.306 33.5638 213.238 33.2028 213.1 32.8651C212.972 32.5592 212.762 32.293 212.49 32.0954C212.198 31.8935 211.848 31.7877 211.49 31.7933L211.24 31.9005C211.151 31.9164 211.059 31.9164 210.97 31.9005C210.914 31.9154 210.856 31.9154 210.8 31.9005C210.773 31.8843 210.751 31.8612 210.737 31.8336C210.723 31.8061 210.717 31.7753 210.72 31.7446C210.72 31.6212 210.803 31.5595 210.97 31.5595H211.25H211.5C211.801 31.4672 212.075 31.307 212.3 31.0918C212.489 30.8927 212.627 30.6521 212.7 30.3903C212.784 30.0919 212.824 29.7836 212.82 29.4744C212.849 29.0394 212.737 28.6067 212.5 28.2369C212.38 28.094 212.227 27.9813 212.053 27.9084C211.878 27.8354 211.689 27.8044 211.5 27.8179C211.118 27.8029 210.742 27.9203 210.44 28.1492C210.152 28.3807 209.929 28.6789 209.79 29.0164C209.638 29.3795 209.55 29.7649 209.53 30.1564H209.25C209.25 29.6627 209.25 29.26 209.25 28.9482C209.25 28.6364 209.25 28.3798 209.25 28.1785C209.25 27.9738 209.25 27.7985 209.25 27.6523H209.53C209.545 27.7946 209.575 27.935 209.62 28.0713C209.631 28.1142 209.657 28.152 209.694 28.1786C209.73 28.2051 209.775 28.2188 209.82 28.2174C209.952 28.1963 210.076 28.1427 210.18 28.0615L210.56 27.8277C210.717 27.7411 210.885 27.6755 211.06 27.6328C211.288 27.6005 211.52 27.5939 211.75 27.6133Z" fill="white"/>
<path d="M220.12 27.7302L223 35.0769C223.069 35.3044 223.205 35.5075 223.39 35.6615C223.509 35.7524 223.65 35.8097 223.8 35.8272V36.0513H223.12H221.39H220.69V35.8174C220.964 35.8418 221.237 35.7692 221.46 35.6128C221.567 35.4894 221.54 35.2296 221.38 34.8333L219.22 29.1431L219.41 28.9287L217.41 34.0149C217.245 34.3575 217.15 34.7281 217.13 35.1061C217.123 35.2131 217.145 35.32 217.194 35.4159C217.243 35.5118 217.318 35.5932 217.41 35.6518C217.652 35.7703 217.92 35.8273 218.19 35.8174V36.0513H217.46H216.26H215.86V35.8174C216.05 35.7647 216.223 35.6639 216.36 35.5251C216.575 35.2937 216.738 35.0218 216.84 34.7261L219.63 27.7108H220.04L220.12 27.7302ZM221.38 32.6995V32.9333H217.8L217.92 32.6995H221.38Z" fill="white"/>
<path d="M228.48 27.779V28.0128C228.277 28.0122 228.074 28.0417 227.88 28.1005C227.814 28.1232 227.754 28.1605 227.706 28.2095C227.657 28.2586 227.621 28.318 227.6 28.3831C227.544 28.5896 227.52 28.8031 227.53 29.0164V34.8626C227.521 35.0759 227.544 35.2894 227.6 35.4959C227.619 35.5617 227.655 35.6219 227.704 35.6711C227.753 35.7204 227.813 35.7573 227.88 35.7785C228.075 35.8362 228.276 35.869 228.48 35.8759V36.0513H227.75H225.91H225.19V35.8174C225.397 35.8105 225.602 35.7778 225.8 35.72C225.867 35.6996 225.928 35.663 225.977 35.6136C226.026 35.5642 226.061 35.5036 226.08 35.4374C226.133 35.2305 226.157 35.0174 226.15 34.8041V28.958C226.157 28.7447 226.133 28.5316 226.08 28.3246C226.061 28.2588 226.025 28.1987 225.976 28.1494C225.927 28.1001 225.867 28.0633 225.8 28.0421C225.602 27.9823 225.397 27.9527 225.19 27.9544V27.7205H225.91H227.75L228.48 27.779ZM231.33 25.0118C231.528 25.0026 231.722 25.069 231.87 25.1969C231.94 25.2616 231.996 25.3404 232.032 25.4278C232.068 25.5153 232.085 25.6094 232.08 25.7036C232.082 25.8666 232.025 26.025 231.92 26.1518C231.789 26.303 231.629 26.4287 231.45 26.5221C231.19 26.6543 230.915 26.7557 230.63 26.8241C229.88 26.9952 229.1 26.9952 228.35 26.8241C228.068 26.7573 227.796 26.6558 227.54 26.5221C227.359 26.435 227.199 26.3122 227.07 26.1615C226.965 26.031 226.908 25.8695 226.91 25.7036C226.905 25.6094 226.922 25.5153 226.958 25.4278C226.994 25.3404 227.049 25.2616 227.12 25.1969C227.269 25.0699 227.462 25.0036 227.66 25.0118C227.857 25.0074 228.049 25.0732 228.2 25.1969C228.274 25.2594 228.332 25.3375 228.37 25.4253C228.409 25.5132 228.425 25.6084 228.42 25.7036C228.426 25.8584 228.368 26.0091 228.26 26.1226C228.148 26.2342 228.006 26.312 227.85 26.3467C228.084 26.5093 228.355 26.6131 228.64 26.6487C229.209 26.7492 229.791 26.7492 230.36 26.6487C230.645 26.6131 230.916 26.5093 231.15 26.3467C230.99 26.3161 230.843 26.2378 230.73 26.1226C230.623 26.0085 230.565 25.8582 230.57 25.7036C230.565 25.6085 230.582 25.5135 230.621 25.4258C230.659 25.338 230.717 25.2598 230.79 25.1969C230.941 25.0732 231.133 25.0074 231.33 25.0118ZM231.65 28.5C231.65 28.6624 231.65 28.8313 231.65 29.0067L227.11 35.6421V35.1939L231.65 28.5ZM233.77 27.7692V28.0031C233.566 28.0015 233.364 28.0311 233.17 28.0908C233.104 28.1134 233.044 28.1508 232.996 28.1998C232.947 28.2489 232.911 28.3083 232.89 28.3733C232.834 28.5797 232.81 28.7933 232.82 29.0067V34.8528C232.81 35.0662 232.834 35.2797 232.89 35.4862C232.909 35.552 232.945 35.6121 232.994 35.6614C233.043 35.7107 233.103 35.7475 233.17 35.7687C233.365 35.8266 233.566 35.8594 233.77 35.8662V36.0513H233.06H231.23H230.49V35.8174C230.693 35.8108 230.895 35.778 231.09 35.72C231.157 35.6988 231.217 35.6619 231.266 35.6127C231.315 35.5634 231.351 35.5033 231.37 35.4374C231.426 35.2309 231.449 35.0174 231.44 34.8041V28.958C231.449 28.7446 231.426 28.5311 231.37 28.3246C231.349 28.2596 231.313 28.2001 231.264 28.1511C231.216 28.102 231.156 28.0647 231.09 28.0421C230.896 27.9823 230.693 27.9528 230.49 27.9544V27.7205H231.23H233.06L233.77 27.7692Z" fill="white"/>
<path d="M235.67 36.0513V35.8174C235.877 35.811 236.082 35.7783 236.28 35.72C236.345 35.6982 236.404 35.661 236.451 35.6117C236.498 35.5624 236.532 35.5026 236.55 35.4374C236.603 35.2305 236.627 35.0174 236.62 34.8041V28.958C236.627 28.7447 236.603 28.5316 236.55 28.3246C236.53 28.2588 236.495 28.1986 236.446 28.1494C236.397 28.1001 236.337 28.0633 236.27 28.0421C236.072 27.9823 235.867 27.9527 235.66 27.9544V27.7205H236.38H238.22H238.95V27.9544C238.746 27.9537 238.544 27.9833 238.35 28.0421C238.284 28.0647 238.224 28.102 238.176 28.1511C238.127 28.2001 238.091 28.2596 238.07 28.3246C238.014 28.5311 237.99 28.7446 238 28.958V34.8041C237.991 35.0174 238.014 35.2309 238.07 35.4374C238.089 35.5032 238.125 35.5634 238.174 35.6127C238.223 35.6619 238.283 35.6988 238.35 35.72C238.545 35.7778 238.746 35.8105 238.95 35.8174V36.0513H238.22H236.38H235.67ZM237.46 31.998V31.7641H242.21V31.998H237.46ZM240.72 36.0513V35.8174C240.927 35.8109 241.132 35.7782 241.33 35.72C241.395 35.6982 241.454 35.661 241.501 35.6117C241.548 35.5624 241.582 35.5026 241.6 35.4374C241.653 35.2305 241.677 35.0174 241.67 34.8041V28.958C241.677 28.7447 241.653 28.5316 241.6 28.3246C241.58 28.2588 241.545 28.1986 241.496 28.1494C241.447 28.1001 241.387 28.0633 241.32 28.0421C241.122 27.9823 240.917 27.9527 240.71 27.9544V27.7205H241.46H243.29H243.99V27.9544C243.786 27.9528 243.584 27.9823 243.39 28.0421C243.324 28.0647 243.264 28.102 243.216 28.1511C243.167 28.2001 243.131 28.2596 243.11 28.3246C243.054 28.5311 243.03 28.7446 243.04 28.958V34.8041C243.031 35.0174 243.054 35.2309 243.11 35.4374C243.129 35.5032 243.165 35.5634 243.214 35.6127C243.263 35.6619 243.323 35.6988 243.39 35.72C243.585 35.7779 243.786 35.8106 243.99 35.8174V36.0513H243.29H241.46H240.72Z" fill="white"/>
</g>
<defs>
<clipPath id="clip0">
<rect width="244" height="38" fill="white"/>
</clipPath>
</defs>
</svg>
