<svg width="163" height="26" viewBox="0 0 163 26" fill="none" xmlns="http://www.w3.org/2000/svg">
<g clip-path="url(#clip0)">
<path d="M0.0466862 0.299988L1.22002 0.339988C1.70446 0.357766 2.18669 0.364432 2.66669 0.359988C3.3378 0.359988 3.9778 0.359988 4.58669 0.359988H5.92002C7.11944 0.272775 8.31188 0.605058 9.29335 1.29999C9.65551 1.58767 9.94625 1.95519 10.1428 2.37383C10.3395 2.79248 10.4366 3.25092 10.4267 3.71332C10.4267 4.21813 10.3223 4.71748 10.12 5.17999C9.89156 5.70145 9.53911 6.15918 9.09335 6.51332C8.52388 6.95288 7.87389 7.27675 7.18002 7.46666V7.50666C8.1153 7.58268 9.02401 7.85529 9.84669 8.30666C10.4137 8.62999 10.8764 9.10884 11.18 9.68666C11.5567 10.4626 11.6655 11.3416 11.4894 12.186C11.3132 13.0304 10.8622 13.7926 10.2067 14.3533C9.13205 15.187 7.791 15.6017 6.43335 15.52C6.1178 15.52 5.64669 15.52 5.02002 15.52C4.39335 15.52 3.60891 15.4578 2.66669 15.3333H1.19335C0.708908 15.3333 0.317797 15.3511 0.0200195 15.3867V15C0.392554 14.9891 0.762189 14.9309 1.12002 14.8267C1.23887 14.7883 1.34655 14.7215 1.43369 14.632C1.52083 14.5425 1.58479 14.4331 1.62002 14.3133C1.71961 13.9374 1.76231 13.5486 1.74669 13.16V2.56665C1.77485 2.17528 1.74338 1.7819 1.65335 1.39999C1.61566 1.28144 1.55084 1.17332 1.46404 1.08421C1.37725 0.995096 1.27087 0.927454 1.15335 0.886655C0.794883 0.776746 0.421607 0.722778 0.0466862 0.726655V0.299988ZM5.33335 0.726655C5.10671 0.695201 4.876 0.710945 4.65573 0.772896C4.43546 0.834848 4.23038 0.94167 4.05335 1.08665C3.80413 1.5352 3.69936 2.04971 3.75335 2.55999V13.16C3.69249 13.6607 3.80041 14.1675 4.06002 14.6C4.43273 14.8722 4.89549 14.9915 5.35335 14.9333C6.74891 14.9333 7.76446 14.6089 8.40002 13.96C8.72982 13.5842 8.98206 13.1468 9.14223 12.6732C9.30241 12.1995 9.36736 11.6988 9.33335 11.2C9.36586 10.7423 9.30717 10.2826 9.16069 9.84776C9.01421 9.41289 8.78284 9.01143 8.48002 8.66666C7.88891 8.06666 6.9178 7.76666 5.56669 7.76666H3.33335V7.39999H5.20002C5.88279 7.44356 6.56243 7.27597 7.14669 6.91999C7.59435 6.61045 7.92532 6.15977 8.08669 5.63999C8.25984 5.08327 8.3453 4.50299 8.34002 3.91999C8.40976 3.07244 8.17322 2.22798 7.67335 1.53999C7.36759 1.24002 6.99917 1.01151 6.59457 0.870882C6.18998 0.730253 5.75925 0.680997 5.33335 0.726655Z" fill="#222222"/>
<path d="M24.0866 0.299988C24.0288 0.797766 23.9999 1.28221 23.9999 1.75332C23.9999 2.22443 23.9999 2.57999 23.9999 2.81999C23.9999 3.07777 23.9999 3.32443 23.9999 3.55999C23.9999 3.79554 24.0133 3.9911 24.0399 4.14665H23.5466C23.4909 3.46949 23.3681 2.79954 23.1799 2.14665C23.0621 1.70575 22.7744 1.32944 22.3799 1.09999C21.8419 0.86097 21.2541 0.755751 20.6666 0.793321H18.8733C18.5028 0.781019 18.1324 0.821422 17.7733 0.913321C17.6556 0.947695 17.5483 1.01077 17.461 1.09688C17.3737 1.18299 17.3092 1.28944 17.2733 1.40665C17.172 1.78685 17.1293 2.18026 17.1466 2.57332V13.1733C17.131 13.5619 17.1737 13.9507 17.2733 14.3267C17.3083 14.4451 17.3723 14.5529 17.4597 14.6402C17.547 14.7276 17.6548 14.7917 17.7733 14.8267C18.1323 14.9189 18.5027 14.9593 18.8733 14.9467H20.4333C21.1319 14.986 21.8302 14.8627 22.4733 14.5867C22.9471 14.333 23.3069 13.9088 23.4799 13.4C23.724 12.6771 23.8784 11.9271 23.9399 11.1667H24.4333C24.3837 11.6784 24.3615 12.1925 24.3666 12.7067C24.3666 12.9778 24.3666 13.3667 24.3666 13.8733C24.3666 14.38 24.4066 14.9044 24.4866 15.4467C23.7577 15.42 22.9377 15.4022 22.0266 15.3933H19.5933H17.9199H15.6666C14.8666 15.3933 14.1177 15.4111 13.4199 15.4467V15C13.7925 14.9891 14.1621 14.9309 14.5199 14.8267C14.6388 14.7883 14.7464 14.7215 14.8336 14.632C14.9207 14.5425 14.9847 14.4331 15.0199 14.3133C15.1195 13.9374 15.1622 13.5486 15.1466 13.16V2.56665C15.1639 2.17359 15.1212 1.78019 15.0199 1.39999C14.9822 1.28144 14.9174 1.17332 14.8306 1.08421C14.7438 0.995096 14.6374 0.927454 14.5199 0.886655C14.1636 0.777423 13.7926 0.723463 13.4199 0.726655V0.299988L15.6666 0.339988C16.4621 0.339988 17.2133 0.339988 17.9199 0.339988H19.6199H21.8533C22.6888 0.339988 23.4333 0.326654 24.0866 0.299988ZM20.4133 7.63332V8.05999H16.4999V7.63332H20.4133ZM21.0333 4.81332C20.9755 5.60443 20.9488 6.22221 20.9533 6.66666C20.9577 7.1111 20.9577 7.50221 20.9533 7.83999C20.9533 8.19554 20.9533 8.58666 20.9533 9.01332C20.9533 9.43999 20.9888 10.06 21.0599 10.8733H20.5666C20.5088 10.4289 20.4421 9.98443 20.3666 9.53999C20.3047 9.14151 20.126 8.77033 19.8533 8.47332C19.6701 8.31847 19.4577 8.20206 19.2286 8.13105C18.9996 8.06004 18.7585 8.03587 18.5199 8.05999V7.63332C18.7654 7.66315 19.0144 7.63395 19.2463 7.54815C19.4782 7.46234 19.6863 7.32241 19.8533 7.13999C20.1068 6.8015 20.2718 6.40506 20.3333 5.98665C20.4044 5.54221 20.4688 5.1511 20.5266 4.81332H21.0333Z" fill="#222222"/>
<path d="M26.6667 0.299988L27.8401 0.339988C28.3245 0.339988 28.8023 0.339988 29.2734 0.339988C29.9445 0.339988 30.5845 0.339988 31.1934 0.339988H32.5267C34.2512 0.339988 35.5401 0.695543 36.3934 1.40665C36.7976 1.72266 37.1234 2.1277 37.3454 2.59023C37.5674 3.05276 37.6796 3.5603 37.6734 4.07332C37.667 4.53994 37.5813 5.00207 37.4201 5.43999C37.2287 5.95526 36.926 6.42193 36.5334 6.80666C36.0426 7.27916 35.4561 7.64066 34.8134 7.86666C33.9282 8.17071 32.9956 8.31297 32.0601 8.28666H29.9667V7.85999H31.8001C32.6064 7.89313 33.4071 7.71137 34.1201 7.33332C34.6248 7.04986 35.0123 6.59618 35.2134 6.05332C35.412 5.47893 35.509 4.87434 35.5001 4.26666C35.5491 3.32322 35.2529 2.39421 34.6667 1.65332C34.1334 1.03554 33.2178 0.726655 31.9201 0.726655C31.6977 0.698949 31.472 0.716562 31.2566 0.778433C31.0412 0.840304 30.8405 0.945151 30.6667 1.08665C30.4175 1.5352 30.3127 2.04971 30.3667 2.55999V13.16C30.3511 13.5486 30.3938 13.9374 30.4934 14.3133C30.5286 14.4331 30.5926 14.5425 30.6797 14.632C30.7669 14.7215 30.8745 14.7883 30.9934 14.8267C31.3512 14.9309 31.7209 14.9892 32.0934 15V15.4267C31.7645 15.4 31.3556 15.3822 30.8667 15.3733H29.3801H27.8201C27.3356 15.3733 26.9445 15.3911 26.6467 15.4267V15C27.0193 14.9891 27.3889 14.9309 27.7467 14.8267C27.8656 14.7883 27.9733 14.7215 28.0604 14.632C28.1475 14.5425 28.2115 14.4331 28.2467 14.3133C28.3463 13.9374 28.389 13.5486 28.3734 13.16V2.56665C28.3907 2.17359 28.348 1.78019 28.2467 1.39999C28.209 1.28144 28.1442 1.17332 28.0574 1.08421C27.9706 0.995096 27.8642 0.927454 27.7467 0.886655C27.3968 0.779427 27.0327 0.72549 26.6667 0.726655V0.299988ZM30.0667 7.88666C30.8356 7.91332 31.4401 7.94443 31.8801 7.97999L32.9601 8.07332C33.2401 8.09999 33.5067 8.13554 33.7601 8.17999C34.5191 8.25175 35.238 8.55419 35.8201 9.04666C36.3041 9.59921 36.625 10.2755 36.7467 11L37.2801 13.18C37.372 13.6407 37.5198 14.0884 37.7201 14.5133C37.7764 14.6401 37.871 14.7461 37.9905 14.8167C38.11 14.8872 38.2485 14.9186 38.3867 14.9067C38.6095 14.8996 38.8233 14.8174 38.9934 14.6733C39.1878 14.498 39.3643 14.3037 39.5201 14.0933L39.8401 14.3267C39.5907 14.7144 39.2774 15.0571 38.9134 15.34C38.5166 15.5938 38.0505 15.7174 37.5801 15.6933C37.0772 15.6997 36.5874 15.5325 36.1934 15.22C35.697 14.7239 35.3803 14.0764 35.2934 13.38L34.8201 11.24C34.7113 10.6991 34.5642 10.1667 34.3801 9.64666C34.2503 9.24298 34.021 8.87845 33.7134 8.58666C33.3439 8.30436 32.8839 8.16685 32.4201 8.19999H30.0934L30.0667 7.88666Z" fill="#222222"/>
<path d="M51.3732 0.299988C51.3154 0.797766 51.2754 1.28221 51.2532 1.75332C51.231 2.22443 51.231 2.57999 51.2532 2.81999C51.2532 3.07777 51.2532 3.32443 51.2532 3.55999C51.2532 3.79554 51.2665 3.9911 51.2932 4.14665H50.7999C50.7442 3.46949 50.6213 2.79954 50.4332 2.14665C50.3153 1.70575 50.0277 1.32944 49.6332 1.09999C49.0993 0.863088 48.5163 0.757915 47.9332 0.793321H46.1599C45.7894 0.781019 45.419 0.821422 45.0599 0.913321C44.9422 0.947695 44.8349 1.01077 44.7476 1.09688C44.6603 1.18299 44.5958 1.28944 44.5599 1.40665C44.4586 1.78685 44.4159 2.18026 44.4332 2.57332V13.1733C44.4176 13.5619 44.4603 13.9507 44.5599 14.3267C44.5949 14.4451 44.659 14.5529 44.7463 14.6402C44.8336 14.7276 44.9414 14.7917 45.0599 14.8267C45.4189 14.9189 45.7894 14.9593 46.1599 14.9467H47.7199C48.4186 14.986 49.1168 14.8627 49.7599 14.5867C50.2337 14.333 50.5935 13.9088 50.7665 13.4C51.0106 12.6771 51.1651 11.9271 51.2265 11.1667H51.7199C51.6704 11.6784 51.6481 12.1925 51.6532 12.7067C51.6532 12.9778 51.6532 13.3667 51.6532 13.8733C51.6532 14.38 51.6932 14.9044 51.7732 15.4467C51.0443 15.42 50.2243 15.4022 49.3132 15.3933H46.8799H45.2065H42.9532C42.1532 15.3933 41.4043 15.4111 40.7065 15.4467V15C41.0791 14.9891 41.4487 14.9309 41.8065 14.8267C41.9254 14.7883 42.0331 14.7215 42.1202 14.632C42.2073 14.5425 42.2713 14.4331 42.3065 14.3133C42.4061 13.9374 42.4488 13.5486 42.4332 13.16V2.56665C42.4505 2.17359 42.4078 1.78019 42.3065 1.39999C42.2688 1.28144 42.204 1.17332 42.1172 1.08421C42.0304 0.995096 41.9241 0.927454 41.8065 0.886655C41.4502 0.777423 41.0792 0.723463 40.7065 0.726655V0.299988L42.9532 0.339988C43.7488 0.339988 44.4999 0.339988 45.2065 0.339988H46.9065H49.1399C49.9754 0.339988 50.7199 0.326654 51.3732 0.299988ZM47.6999 7.63332V8.05999H43.7865V7.63332H47.6999ZM48.3199 4.81332C48.2621 5.60443 48.2376 6.22221 48.2465 6.66666C48.2554 7.1111 48.2554 7.50221 48.2465 7.83999C48.2465 8.19554 48.2465 8.58666 48.2465 9.01332C48.2465 9.43999 48.2821 10.06 48.3532 10.8733H47.8599C47.8021 10.4289 47.7354 9.98443 47.6599 9.53999C47.5979 9.14151 47.4193 8.77033 47.1465 8.47332C46.9634 8.31847 46.751 8.20206 46.5219 8.13105C46.2928 8.06004 46.0518 8.03587 45.8132 8.05999V7.63332C46.0587 7.66315 46.3077 7.63395 46.5396 7.54815C46.7715 7.46234 46.9796 7.32241 47.1465 7.13999C47.4001 6.8015 47.565 6.40506 47.6265 5.98665C47.6976 5.54221 47.7621 5.1511 47.8199 4.81332H48.3199Z" fill="#222222"/>
<path d="M64.7934 0.299988V0.726655L56.2667 14.94H60.4534C61.0057 14.9563 61.5571 14.8843 62.0867 14.7267C62.4791 14.6053 62.8285 14.3739 63.0934 14.06C63.3694 13.6973 63.5628 13.2786 63.6601 12.8333C63.8057 12.2148 63.906 11.5865 63.9601 10.9533H64.4534C64.4089 11.3978 64.3867 11.9822 64.3867 12.7067C64.3867 12.9778 64.3867 13.3667 64.3867 13.8733C64.3867 14.38 64.4267 14.9044 64.5067 15.4467C63.7245 15.42 62.8356 15.4022 61.8401 15.3933H59.1734H56.5067C55.5734 15.3933 54.7001 15.4111 53.8867 15.4467V15L62.5267 0.793321H58.3601C57.6721 0.760942 56.9864 0.893516 56.3601 1.17999C55.8722 1.45036 55.5052 1.89597 55.3334 2.42665C55.0883 3.19262 54.9339 3.9847 54.8734 4.78665H54.3801C54.4067 4.55999 54.4245 4.29554 54.4334 3.99332C54.4423 3.6911 54.4423 3.3711 54.4334 3.03332C54.4334 2.76221 54.4334 2.37332 54.4334 1.86665C54.4334 1.35999 54.3823 0.837766 54.28 0.299988C55.0756 0.326654 55.9645 0.344432 56.9467 0.353321H59.6134H62.2334C63.1578 0.344432 64.0112 0.326654 64.7934 0.299988Z" fill="#222222"/>
<path d="M66.8467 15.4267V15C67.2192 14.9891 67.5889 14.9309 67.9467 14.8267C68.0655 14.7883 68.1732 14.7215 68.2604 14.632C68.3475 14.5425 68.4115 14.4331 68.4467 14.3133C68.5463 13.9374 68.589 13.5486 68.5733 13.16V2.56665C68.5906 2.17359 68.5479 1.78019 68.4467 1.39999C68.409 1.28144 68.3442 1.17332 68.2574 1.08421C68.1706 0.995096 68.0642 0.927454 67.9467 0.886655C67.5903 0.777423 67.2194 0.723463 66.8467 0.726655V0.299988L68 0.339988C68.4845 0.339988 69.0045 0.339988 69.56 0.339988C70.1156 0.339988 70.6111 0.339988 71.0467 0.339988L72.2734 0.299988V0.726655C71.9007 0.723357 71.5297 0.77732 71.1734 0.886655C71.0558 0.927454 70.9495 0.995096 70.8627 1.08421C70.7759 1.17332 70.711 1.28144 70.6734 1.39999C70.5721 1.78019 70.5294 2.17359 70.5467 2.56665V13.1667C70.5311 13.5553 70.5738 13.944 70.6734 14.32C70.7086 14.4398 70.7725 14.5492 70.8597 14.6387C70.9468 14.7281 71.0545 14.795 71.1734 14.8333C71.5312 14.9376 71.9008 14.9958 72.2734 15.0067V15.4333C71.9445 15.4067 71.5356 15.3889 71.0467 15.38H69.56H68C67.5289 15.3844 67.1445 15.4 66.8467 15.4267ZM69.82 8.03332V7.60666H78.26V8.03332H69.82ZM75.78 15.4267V15C76.1526 14.9891 76.5222 14.9309 76.88 14.8267C76.9989 14.7883 77.1065 14.7215 77.1937 14.632C77.2808 14.5425 77.3448 14.4331 77.38 14.3133C77.4796 13.9374 77.5223 13.5486 77.5067 13.16V2.56665C77.524 2.17359 77.4812 1.78019 77.38 1.39999C77.3423 1.28144 77.2775 1.17332 77.1907 1.08421C77.1039 0.995096 76.9975 0.927454 76.88 0.886655C76.5237 0.777423 76.1527 0.723463 75.78 0.726655V0.299988L77.02 0.339988C77.5178 0.339988 78.0089 0.339988 78.4934 0.339988C79.0489 0.339988 79.5689 0.339988 80.0534 0.339988L81.2267 0.299988V0.726655C80.854 0.723357 80.483 0.77732 80.1267 0.886655C80.0092 0.927454 79.9028 0.995096 79.816 1.08421C79.7292 1.17332 79.6644 1.28144 79.6267 1.39999C79.5255 1.78019 79.4827 2.17359 79.5 2.56665V13.1667C79.4844 13.5553 79.5271 13.944 79.6267 14.32C79.6619 14.4398 79.7259 14.5492 79.813 14.6387C79.9002 14.7281 80.0078 14.795 80.1267 14.8333C80.4845 14.9376 80.8541 14.9958 81.2267 15.0067V15.4333C80.9289 15.4067 80.5378 15.3889 80.0534 15.38H78.4934H77.02C76.5178 15.3844 76.1045 15.4 75.78 15.4267Z" fill="#222222"/>
<path d="M96.6667 0.299988V0.726655C96.2891 0.71906 95.9142 0.791776 95.5667 0.939988C95.4446 1.00257 95.337 1.0901 95.2509 1.1969C95.1648 1.3037 95.102 1.4274 95.0667 1.55999C94.9686 1.95889 94.926 2.36943 94.9401 2.77999V15.5333H94.4467L85.4534 1.66665V12.9467C85.4407 13.3536 85.4878 13.7601 85.5934 14.1533C85.6333 14.2915 85.7037 14.419 85.7995 14.5263C85.8953 14.6336 86.0139 14.718 86.1467 14.7733C86.5486 14.9195 86.9725 14.9961 87.4001 15V15.4267C87.1423 15.4 86.8067 15.3822 86.3934 15.3733H85.2201H84.1401C83.7756 15.3733 83.4734 15.3911 83.2334 15.4267V15C83.611 14.994 83.9842 14.9171 84.3334 14.7733C84.4568 14.7125 84.5654 14.6255 84.6518 14.5185C84.7381 14.4114 84.8001 14.2868 84.8334 14.1533C84.9301 13.7587 84.9728 13.3528 84.9601 12.9467V2.56665C84.9773 2.17359 84.9346 1.78019 84.8334 1.39999C84.7957 1.28144 84.7309 1.17332 84.6441 1.08421C84.5573 0.995096 84.4509 0.927454 84.3334 0.886655C83.9771 0.777423 83.6061 0.723463 83.2334 0.726655V0.299988L84.1401 0.339988C84.5045 0.339988 84.8645 0.339988 85.2201 0.339988C85.5756 0.339988 85.8756 0.339988 86.1201 0.339988L86.8867 0.299988L94.4334 11.9267V2.77999C94.4476 2.36862 94.4005 1.95743 94.2934 1.55999C94.251 1.42302 94.1797 1.29676 94.0842 1.18979C93.9887 1.08281 93.8714 0.997622 93.7401 0.939988C93.3398 0.789126 92.9143 0.716697 92.4867 0.726655V0.299988L93.5001 0.339988C93.9178 0.339988 94.3067 0.339988 94.6667 0.339988C95.0267 0.339988 95.3934 0.339988 95.7667 0.339988L96.6667 0.299988Z" fill="#222222"/>
<path d="M105.413 -1.09239e-05C106.662 -0.0274679 107.894 0.290932 108.973 0.919989C110.01 1.55514 110.836 2.48299 111.347 3.58666C111.945 4.89686 112.235 6.3269 112.193 7.76666C112.225 9.20981 111.929 10.6413 111.327 11.9533C110.8 13.0921 109.967 14.0617 108.92 14.7533C107.87 15.4308 106.643 15.7812 105.393 15.76C104.144 15.7878 102.912 15.4694 101.833 14.84C100.796 14.2058 99.9695 13.2776 99.46 12.1733C98.8654 10.8645 98.5781 9.43695 98.62 7.99999C98.587 6.556 98.8857 5.12369 99.4933 3.81332C100.025 2.67777 100.857 1.70943 101.9 1.01332C102.944 0.333046 104.167 -0.0198203 105.413 -1.09239e-05ZM105.333 0.386656C104.433 0.370801 103.564 0.711041 102.913 1.33332C102.172 2.07641 101.629 2.99316 101.333 3.99999C100.934 5.26531 100.743 6.58685 100.767 7.91332C100.738 9.25358 100.95 10.5881 101.393 11.8533C101.729 12.8484 102.317 13.7395 103.1 14.44C103.759 15.0162 104.605 15.3337 105.48 15.3333C106.379 15.3438 107.247 14.9988 107.893 14.3733C108.639 13.6317 109.187 12.7148 109.487 11.7067C109.884 10.4455 110.075 9.12864 110.053 7.80666C110.082 6.4615 109.867 5.12226 109.42 3.85332C109.081 2.86514 108.496 1.97954 107.72 1.27999C107.06 0.701173 106.211 0.383475 105.333 0.386656Z" fill="#222222"/>
<path d="M120.093 0.299988C122.644 0.299988 124.54 0.937766 125.78 2.21332C127.02 3.48888 127.64 5.31554 127.64 7.69332C127.674 9.10468 127.363 10.503 126.733 11.7667C126.136 12.9143 125.207 13.8553 124.067 14.4667C122.776 15.1395 121.335 15.4701 119.88 15.4267C119.564 15.4267 119.102 15.4267 118.493 15.4267C117.884 15.4267 117.351 15.4267 116.893 15.4267H115.42C114.935 15.4267 114.544 15.4444 114.247 15.48V15C114.619 14.9891 114.989 14.9309 115.347 14.8267C115.465 14.7883 115.573 14.7215 115.66 14.632C115.747 14.5425 115.811 14.4331 115.847 14.3133C115.946 13.9374 115.989 13.5486 115.973 13.16V2.56665C115.99 2.17359 115.948 1.78021 115.847 1.39999C115.809 1.28144 115.744 1.17332 115.657 1.08421C115.57 0.995096 115.464 0.927454 115.347 0.886654C114.99 0.777423 114.619 0.723463 114.247 0.726654V0.299988L115.42 0.353321C115.904 0.353321 116.382 0.353321 116.853 0.353321L118.54 0.313321L120.093 0.299988ZM119.56 0.686654C119.333 0.655201 119.103 0.670945 118.882 0.732896C118.662 0.794848 118.457 0.90167 118.28 1.04665C118.037 1.49725 117.939 2.01176 118 2.51999V13.1867C117.943 13.6979 118.05 14.2139 118.307 14.66C118.486 14.805 118.694 14.9117 118.916 14.9736C119.138 15.0355 119.371 15.0513 119.6 15.02C120.861 15.0926 122.116 14.7985 123.213 14.1733C124.084 13.5886 124.719 12.7148 125.007 11.7067C125.376 10.4223 125.549 9.08944 125.52 7.75332C125.52 5.36221 125.075 3.58443 124.187 2.41999C123.298 1.25554 121.755 0.671099 119.56 0.666654V0.686654Z" fill="#222222"/>
<path d="M136.953 -1.09239e-05C138.202 -0.0274679 139.434 0.290932 140.513 0.919989C141.55 1.55514 142.376 2.48299 142.887 3.58666C143.485 4.89686 143.775 6.3269 143.733 7.76666C143.765 9.20981 143.469 10.6413 142.867 11.9533C142.34 13.0921 141.507 14.0617 140.46 14.7533C139.41 15.4308 138.183 15.7812 136.933 15.76C135.684 15.7878 134.452 15.4694 133.373 14.84C132.336 14.2058 131.51 13.2776 131 12.1733C130.405 10.8645 130.118 9.43695 130.16 7.99999C130.127 6.556 130.426 5.12369 131.033 3.81332C131.565 2.67777 132.397 1.70943 133.44 1.01332C134.484 0.333046 135.707 -0.0198203 136.953 -1.09239e-05ZM136.867 0.386656C135.969 0.372566 135.102 0.712678 134.453 1.33332C133.708 2.07493 133.16 2.99181 132.86 3.99999C132.461 5.26531 132.27 6.58685 132.293 7.91332C132.265 9.25358 132.477 10.5881 132.92 11.8533C133.269 12.8503 133.87 13.7394 134.667 14.4333C135.318 15.006 136.153 15.3254 137.02 15.3333C137.92 15.3438 138.787 14.9988 139.433 14.3733C140.179 13.6317 140.727 12.7148 141.027 11.7067C141.424 10.4455 141.615 9.12864 141.593 7.80666C141.622 6.4615 141.407 5.12226 140.96 3.85332C140.621 2.86514 140.036 1.97954 139.26 1.27999C138.598 0.699648 137.747 0.381845 136.867 0.386656Z" fill="#222222"/>
<path d="M162.62 0.299988V0.726655C162.247 0.723357 161.876 0.77732 161.52 0.886655C161.403 0.927454 161.296 0.995096 161.209 1.08421C161.123 1.17332 161.058 1.28144 161.02 1.39999C160.919 1.78019 160.876 2.17359 160.893 2.56665V13.1667C160.878 13.5553 160.92 13.944 161.02 14.32C161.055 14.4398 161.119 14.5492 161.206 14.6387C161.294 14.7281 161.401 14.795 161.52 14.8333C161.878 14.9376 162.247 14.9958 162.62 15.0067V15.4333C162.291 15.4067 161.882 15.3889 161.393 15.38H159.907H158.347C157.862 15.38 157.471 15.3978 157.173 15.4333V15C157.546 14.9892 157.916 14.9309 158.273 14.8267C158.392 14.7883 158.5 14.7215 158.587 14.632C158.674 14.5425 158.738 14.4331 158.773 14.3133C158.873 13.9374 158.916 13.5486 158.9 13.16V1.41332L158.987 1.47999L153.753 15.5333H153.413L148 1.66665V12.9467C147.987 13.3536 148.034 13.7601 148.14 14.1533C148.18 14.2915 148.25 14.419 148.346 14.5263C148.442 14.6336 148.561 14.718 148.693 14.7733C149.095 14.9195 149.519 14.9961 149.947 15V15.4267C149.689 15.4 149.353 15.3822 148.94 15.3733H147.767H146.687C146.322 15.3733 146.02 15.3911 145.78 15.4267V15C146.158 14.994 146.531 14.9171 146.88 14.7733C147.003 14.7125 147.112 14.6255 147.198 14.5185C147.285 14.4114 147.347 14.2868 147.38 14.1533C147.477 13.7587 147.519 13.3528 147.507 12.9467V2.56665C147.524 2.17359 147.481 1.78021 147.38 1.39999C147.342 1.28144 147.278 1.17332 147.191 1.08421C147.104 0.995096 146.998 0.927454 146.88 0.886655C146.524 0.777423 146.153 0.723463 145.78 0.726655V0.299988L146.687 0.339988C147.051 0.339988 147.411 0.339988 147.767 0.339988C148.122 0.339988 148.447 0.339988 148.74 0.339988L149.587 0.299988L154.44 13.08L154.08 13.2533L158.9 0.359988H159.907C160.404 0.359988 160.9 0.359988 161.393 0.359988L162.62 0.299988Z" fill="#222222"/>
<path d="M0 19.0066H0.48H2.28667C2.82974 18.966 3.36931 19.1221 3.80667 19.4466C3.97119 19.5865 4.10216 19.7616 4.18986 19.9589C4.27756 20.1563 4.31976 20.3708 4.31333 20.5866C4.31147 20.7928 4.27774 20.9975 4.21333 21.1933C4.14283 21.4122 4.0244 21.6126 3.86667 21.78C3.67938 21.9721 3.45164 22.1202 3.2 22.2133C2.85343 22.3353 2.48721 22.3918 2.12 22.38H1.33333V22.22H2C2.29893 22.2439 2.59722 22.1664 2.84667 22C3.03481 21.8592 3.17082 21.6598 3.23333 21.4333C3.3023 21.1837 3.33596 20.9256 3.33333 20.6666C3.36196 20.2676 3.26649 19.8694 3.06 19.5266C2.94466 19.3919 2.79808 19.2874 2.63307 19.2223C2.46805 19.1572 2.28961 19.1335 2.11333 19.1533C2.03263 19.1416 1.95034 19.1475 1.87211 19.1705C1.79387 19.1935 1.72152 19.2331 1.66 19.2866C1.56989 19.4563 1.53273 19.649 1.55333 19.84V23.8C1.54642 23.9518 1.56906 24.1035 1.62 24.2466C1.64195 24.2955 1.67513 24.3385 1.71684 24.3721C1.75854 24.4057 1.8076 24.4289 1.86 24.44C2.03077 24.4773 2.20521 24.4952 2.38 24.4933V24.6666H1.82H0.486667H0V24.5066C0.137877 24.5022 0.274586 24.4798 0.406667 24.44C0.450262 24.4251 0.489499 24.3996 0.520898 24.3659C0.552298 24.3321 0.574888 24.2912 0.586667 24.2466C0.622081 24.105 0.637785 23.9592 0.633333 23.8133V19.8133C0.63787 19.6674 0.622165 19.5216 0.586667 19.38C0.573719 19.335 0.549934 19.2938 0.517392 19.2601C0.48485 19.2264 0.444544 19.2012 0.4 19.1866C0.268434 19.1599 0.13358 19.1531 0 19.1666L0 19.0066Z" fill="#222222"/>
<path d="M9.55996 19.0067C9.55996 19.2111 9.5444 19.4067 9.51329 19.5933C9.48218 19.78 9.48218 19.9245 9.51329 20.0267C9.51329 20.1289 9.51329 20.2245 9.51329 20.3133C9.51329 20.4067 9.51329 20.48 9.51329 20.54H9.33329C9.30977 20.2649 9.25153 19.9938 9.15996 19.7333C9.09862 19.5562 8.97556 19.4071 8.81329 19.3133C8.60571 19.2143 8.37605 19.1707 8.14663 19.1867H7.59329C7.46282 19.1832 7.33254 19.1989 7.20663 19.2333C7.16501 19.2458 7.12696 19.2681 7.09566 19.2982C7.06436 19.3284 7.04069 19.3656 7.02663 19.4067C6.98887 19.541 6.97311 19.6806 6.97996 19.82V23.86C6.97449 23.9972 6.99023 24.1343 7.02663 24.2667C7.03978 24.309 7.06303 24.3476 7.09439 24.3789C7.12575 24.4103 7.16427 24.4335 7.20663 24.4467C7.33254 24.4811 7.46282 24.4968 7.59329 24.4933H8.11329C8.36384 24.5044 8.61329 24.454 8.83996 24.3467C9.02616 24.2407 9.16987 24.0734 9.24663 23.8733C9.35747 23.5842 9.42921 23.2815 9.45996 22.9733H9.64663C9.64663 23.1289 9.64663 23.3311 9.64663 23.58C9.64663 23.6867 9.64663 23.8422 9.64663 24.0467C9.64663 24.2511 9.66218 24.46 9.69329 24.6733L8.79996 24.6667H6.33996H5.46663V24.5067C5.6045 24.5022 5.74121 24.4798 5.87329 24.44C5.91689 24.4251 5.95613 24.3996 5.98753 24.3659C6.01893 24.3322 6.04152 24.2912 6.05329 24.2467C6.08871 24.1051 6.10441 23.9592 6.09996 23.8133V19.8133C6.1045 19.6674 6.08879 19.5216 6.05329 19.38C6.04035 19.335 6.01656 19.2938 5.98402 19.2601C5.95148 19.2264 5.91117 19.2012 5.86663 19.1867C5.73499 19.1458 5.5978 19.1255 5.45996 19.1267V18.9667H6.33996H8.71996L9.55996 19.0067ZM8.22663 21.7467V21.9067H6.77996V21.7467H8.22663ZM8.45996 20.6667C8.45996 20.9733 8.45996 21.1956 8.45996 21.3333C8.45996 21.4711 8.45996 21.6178 8.45996 21.7733C8.45996 21.9067 8.45996 22.0533 8.45996 22.2133C8.45996 22.3733 8.47329 22.5956 8.49996 22.88H8.31329C8.28667 22.7094 8.25106 22.5402 8.20663 22.3733C8.17028 22.2232 8.09161 22.0867 7.97996 21.98C7.83636 21.867 7.65545 21.8123 7.47329 21.8267V21.6667C7.56473 21.6751 7.65692 21.6634 7.74332 21.6323C7.82972 21.6012 7.90823 21.5515 7.97329 21.4867C8.07778 21.3637 8.15098 21.2174 8.18663 21.06C8.22663 20.8956 8.25996 20.7467 8.28663 20.6133L8.45996 20.6667Z" fill="#222222"/>
<path d="M17.5601 19.0067V19.1667C17.4222 19.1655 17.285 19.1858 17.1534 19.2267C17.1101 19.2421 17.0711 19.2677 17.0398 19.3014C17.0085 19.335 16.9857 19.3757 16.9734 19.42C16.9379 19.5616 16.9222 19.7074 16.9267 19.8533V23.8533C16.9223 23.9993 16.938 24.1451 16.9734 24.2867C16.9852 24.3312 17.0078 24.3722 17.0392 24.4059C17.0706 24.4396 17.1098 24.4651 17.1534 24.48C17.2855 24.5199 17.4222 24.5423 17.5601 24.5467V24.6667H17.0601H15.8267H15.3334V24.5067C15.4735 24.5022 15.6124 24.4798 15.7467 24.44C15.7913 24.4255 15.8316 24.4003 15.8641 24.3666C15.8967 24.3329 15.9204 24.2917 15.9334 24.2467C15.9705 24.1054 15.9863 23.9593 15.9801 23.8133V19.4467H16.0201L14.0201 24.6933H13.8934L11.8267 19.5V23.6C11.8214 23.7768 11.837 23.9536 11.8734 24.1267C11.8859 24.1837 11.9109 24.2372 11.9467 24.2833C11.9824 24.3294 12.028 24.367 12.0801 24.3933C12.2341 24.4592 12.3992 24.4954 12.5667 24.5V24.6667H12.1801H11.3867H11.0601V24.5067C11.1988 24.5006 11.3348 24.4665 11.4601 24.4067C11.5077 24.3788 11.5489 24.3413 11.581 24.2965C11.6132 24.2517 11.6356 24.2007 11.6467 24.1467C11.6828 23.9803 11.6985 23.8102 11.6934 23.64V19.84C11.6997 19.694 11.684 19.548 11.6467 19.4067C11.6328 19.3622 11.6087 19.3215 11.5763 19.2879C11.5438 19.2544 11.5041 19.2288 11.4601 19.2133C11.3307 19.1725 11.1957 19.1522 11.0601 19.1533V18.9933H11.3867H12.2534H12.6601L14.4334 23.5467L14.2801 23.6533L16.0001 19.0267H17.0401L17.5601 19.0067Z" fill="#222222"/>
<path d="M21.4932 18.8933C21.9758 18.8844 22.4521 19.004 22.8732 19.24C23.2726 19.4704 23.595 19.8137 23.7999 20.2267C24.0309 20.7158 24.1429 21.2527 24.1266 21.7933C24.1401 22.3366 24.0259 22.8755 23.7932 23.3667C23.5838 23.7965 23.2582 24.1591 22.8532 24.4133C22.4407 24.6668 21.964 24.7964 21.4799 24.7867C20.995 24.7975 20.516 24.6777 20.0932 24.44C19.6954 24.2068 19.3753 23.8612 19.1732 23.4467C18.953 22.9537 18.8391 22.4199 18.8391 21.88C18.8391 21.3401 18.953 20.8063 19.1732 20.3133C19.3829 19.8857 19.7057 19.5237 20.1066 19.2667C20.5223 19.0093 21.0045 18.8795 21.4932 18.8933ZM21.4932 19.04C21.332 19.0387 21.1722 19.0699 21.0233 19.1318C20.8743 19.1936 20.7394 19.2848 20.6266 19.4C20.3373 19.673 20.1217 20.0147 19.9999 20.3933C19.8589 20.8692 19.7915 21.3638 19.7999 21.86C19.7975 22.3616 19.881 22.8599 20.0466 23.3333C20.1669 23.7053 20.3803 24.0404 20.6666 24.3067C20.8998 24.5249 21.2072 24.6464 21.5266 24.6467C21.6868 24.6478 21.8456 24.6165 21.9934 24.5547C22.1412 24.4928 22.275 24.4016 22.3866 24.2867C22.6532 24.0038 22.8476 23.6608 22.9532 23.2867C23.0971 22.8136 23.1668 22.3211 23.1599 21.8267C23.1709 21.3239 23.0942 20.8231 22.9332 20.3467C22.8136 19.9794 22.6053 19.6474 22.3266 19.38C22.0935 19.1566 21.7828 19.0323 21.4599 19.0333L21.4932 19.04Z" fill="#222222"/>
<path d="M25.4066 24.6667V24.5067C25.5444 24.5022 25.6812 24.4798 25.8132 24.44C25.8568 24.4251 25.8961 24.3996 25.9275 24.3659C25.9589 24.3322 25.9815 24.2912 25.9932 24.2467C26.0287 24.1051 26.0444 23.9592 26.0399 23.8133V19.8133C26.0444 19.6674 26.0287 19.5216 25.9932 19.38C25.9803 19.335 25.9565 19.2938 25.924 19.2601C25.8914 19.2264 25.8511 19.2012 25.8066 19.1867C25.6749 19.1458 25.5377 19.1255 25.3999 19.1267V18.9667H25.8799H27.1066H27.5932V19.1267C27.4576 19.1256 27.3226 19.1458 27.1932 19.1867C27.1492 19.2022 27.1094 19.2277 27.077 19.2613C27.0446 19.2948 27.0205 19.3355 27.0066 19.38C26.9692 19.5213 26.9535 19.6674 26.9599 19.8133V23.8133C26.9535 23.9593 26.9692 24.1054 27.0066 24.2467C27.0195 24.2917 27.0433 24.3329 27.0758 24.3666C27.1084 24.4003 27.1487 24.4255 27.1932 24.44C27.3231 24.4796 27.4576 24.502 27.5932 24.5067V24.6667H27.1066H25.8866H25.4066ZM26.5999 21.8933V21.7333H29.7666V21.8933H26.5999ZM28.7732 24.6667V24.5067C28.9111 24.5022 29.0478 24.4798 29.1799 24.44C29.2235 24.4251 29.2627 24.3996 29.2941 24.3659C29.3255 24.3322 29.3481 24.2912 29.3599 24.2467C29.3953 24.1051 29.411 23.9592 29.4066 23.8133V19.8133C29.4111 19.6674 29.3954 19.5216 29.3599 19.38C29.347 19.335 29.3232 19.2938 29.2906 19.2601C29.2581 19.2264 29.2178 19.2012 29.1732 19.1867C29.0416 19.1458 28.9044 19.1255 28.7666 19.1267V18.9667H29.2666H30.4866H30.9532V19.1267C30.8176 19.1256 30.6826 19.1458 30.5532 19.1867C30.5092 19.2022 30.4695 19.2277 30.437 19.2613C30.4046 19.2948 30.3805 19.3355 30.3666 19.38C30.3292 19.5213 30.3135 19.6674 30.3199 19.8133V23.8133C30.3135 23.9593 30.3292 24.1054 30.3666 24.2467C30.3795 24.2917 30.4033 24.3329 30.4358 24.3666C30.4684 24.4003 30.5087 24.4255 30.5532 24.44C30.6831 24.4796 30.8176 24.502 30.9532 24.5067V24.6667H30.4866H29.2732H28.7732Z" fill="#222222"/>
<path d="M36.7934 19.0067C36.7934 19.2289 36.7778 19.4511 36.7467 19.6733C36.7156 19.8956 36.7156 20.0578 36.7467 20.16C36.7467 20.2845 36.7467 20.4022 36.7467 20.5133C36.7467 20.6267 36.7467 20.72 36.7467 20.8H36.56C36.5245 20.4775 36.4529 20.16 36.3467 19.8533C36.2924 19.6462 36.1704 19.4632 36 19.3333C35.7804 19.2189 35.534 19.1659 35.2867 19.18H34.94V23.7467C34.933 23.9089 34.9532 24.0712 35 24.2267C35.0194 24.2793 35.0514 24.3262 35.0933 24.3635C35.1351 24.4007 35.1856 24.427 35.24 24.44C35.4126 24.4815 35.5892 24.5039 35.7667 24.5067V24.6667H35.1867H33.7334H33.1867V24.5067C33.362 24.504 33.5364 24.4816 33.7067 24.44C33.7607 24.4259 33.8106 24.3993 33.8523 24.3622C33.8941 24.3251 33.9264 24.2787 33.9467 24.2267C33.9981 24.0721 34.0207 23.9094 34.0134 23.7467V19.1867H33.66C33.415 19.1741 33.1711 19.227 32.9534 19.34C32.7699 19.4562 32.633 19.6332 32.5667 19.84C32.4639 20.1472 32.3947 20.4646 32.36 20.7867H32.1734C32.1783 20.6912 32.1783 20.5955 32.1734 20.5C32.1734 20.3889 32.1734 20.2711 32.1734 20.1467C32.1734 20.0222 32.1734 19.86 32.1734 19.66C32.1734 19.4511 32.1578 19.2289 32.1267 18.9933H32.88H36.0267L36.7934 19.0067Z" fill="#222222"/>
<path d="M38.28 23.6934C38.3545 23.6909 38.4288 23.7032 38.4986 23.7295C38.5684 23.7558 38.6323 23.7956 38.6867 23.8467C38.7412 23.8977 38.7843 23.9598 38.8131 24.0288C38.8418 24.0977 38.8555 24.172 38.8533 24.2467C38.857 24.3264 38.842 24.4058 38.8096 24.4788C38.7772 24.5517 38.7283 24.616 38.6667 24.6667C38.5563 24.7669 38.4125 24.8225 38.2633 24.8225C38.1142 24.8225 37.9704 24.7669 37.86 24.6667C37.8065 24.6177 37.7639 24.5579 37.7352 24.4912C37.7065 24.4246 37.6922 24.3526 37.6933 24.28C37.6912 24.2053 37.7049 24.1311 37.7336 24.0621C37.7624 23.9931 37.8054 23.9311 37.86 23.88C37.9131 23.8213 37.9779 23.7744 38.0502 23.7422C38.1226 23.7101 38.2008 23.6934 38.28 23.6934Z" fill="#222222"/>
<path d="M45.5932 18.8933C45.8897 18.8824 46.1851 18.9347 46.4599 19.0466C46.676 19.1443 46.8796 19.2674 47.0666 19.4133C47.1732 19.4933 47.2554 19.4933 47.3132 19.4133C47.3904 19.2797 47.4296 19.1276 47.4266 18.9733H47.6132C47.6132 19.1778 47.6132 19.4222 47.6132 19.7066C47.6132 19.9911 47.6132 20.3711 47.6132 20.8466H47.3999C47.3643 20.6111 47.3288 20.4178 47.2932 20.2666C47.2653 20.1326 47.2205 20.0027 47.1599 19.88C47.099 19.7656 47.0228 19.6602 46.9332 19.5666C46.7855 19.3783 46.5897 19.2332 46.3666 19.1466C46.1385 19.0613 45.8967 19.0184 45.6532 19.02C45.398 19.0159 45.1474 19.0879 44.9332 19.2266C44.7134 19.3746 44.5327 19.5736 44.4066 19.8066C44.2542 20.0843 44.1441 20.3832 44.0799 20.6933C44.0022 21.0615 43.9642 21.437 43.9666 21.8133C43.9627 22.1945 44.003 22.5748 44.0866 22.9466C44.1536 23.2547 44.2707 23.5497 44.4332 23.82C44.5707 24.0478 44.7604 24.2398 44.9866 24.38C45.2061 24.5108 45.4577 24.5777 45.7132 24.5733C45.9416 24.5686 46.1673 24.5234 46.3799 24.44C46.6017 24.361 46.7961 24.2198 46.9399 24.0333C47.0845 23.8809 47.1897 23.6955 47.2466 23.4933C47.3149 23.2241 47.3617 22.9499 47.3866 22.6733H47.5732C47.5732 23.1666 47.5732 23.5644 47.5732 23.8666C47.5732 24.1689 47.5732 24.4244 47.5732 24.6333H47.3866C47.3882 24.4822 47.3515 24.3331 47.2799 24.2C47.231 24.1422 47.1466 24.1422 47.0266 24.2C46.8286 24.34 46.6189 24.4626 46.3999 24.5666C46.1301 24.6795 45.8388 24.7319 45.5466 24.72C45.0616 24.7308 44.5827 24.611 44.1599 24.3733C43.762 24.1401 43.442 23.7945 43.2399 23.38C43.0196 22.887 42.9058 22.3532 42.9058 21.8133C42.9058 21.2734 43.0196 20.7396 43.2399 20.2466C43.4495 19.819 43.7723 19.4571 44.1732 19.2C44.6058 18.9595 45.1 18.8527 45.5932 18.8933Z" fill="#222222"/>
<path d="M53.6333 19.0067C53.6333 19.2289 53.6177 19.4511 53.5866 19.6733C53.5555 19.8956 53.5555 20.0578 53.5866 20.16C53.5866 20.2845 53.5866 20.4022 53.5866 20.5133C53.5866 20.6267 53.5866 20.72 53.5866 20.8H53.3999C53.3644 20.4775 53.2928 20.16 53.1866 19.8533C53.1196 19.6488 52.9857 19.4727 52.8066 19.3533C52.587 19.2389 52.3405 19.1859 52.0933 19.2H51.7466V23.7667C51.7395 23.9289 51.7598 24.0912 51.8066 24.2467C51.8259 24.2993 51.858 24.3462 51.8998 24.3835C51.9417 24.4207 51.9921 24.447 52.0466 24.46C52.2192 24.5015 52.3958 24.5239 52.5733 24.5267V24.6667H51.9999H50.5666H49.9999V24.5067C50.1752 24.504 50.3496 24.4816 50.5199 24.44C50.5739 24.4259 50.6239 24.3993 50.6656 24.3622C50.7073 24.3251 50.7396 24.2787 50.7599 24.2267C50.8113 24.0721 50.8339 23.9094 50.8266 23.7467V19.1867H50.4733C50.2283 19.1741 49.9843 19.227 49.7666 19.34C49.5831 19.4562 49.4462 19.6332 49.3799 19.84C49.2772 20.1472 49.2079 20.4646 49.1733 20.7867H48.9866C48.9916 20.6912 48.9916 20.5955 48.9866 20.5C48.9866 20.3889 48.9866 20.2711 48.9866 20.1467C48.9866 20.0222 48.9866 19.86 48.9866 19.66C48.9866 19.4511 48.9711 19.2289 48.9399 18.9933H49.6933H52.8399L53.6333 19.0067Z" fill="#222222"/>
<path d="M54.8066 19.0066H55.2866H57.0933C57.6364 18.966 58.176 19.1221 58.6133 19.4466C58.7778 19.5865 58.9088 19.7616 58.9965 19.9589C59.0842 20.1563 59.1264 20.3708 59.12 20.5866C59.1181 20.7928 59.0844 20.9975 59.02 21.1933C58.9495 21.4122 58.8311 21.6126 58.6733 21.78C58.486 21.9721 58.2583 22.1202 58.0067 22.2133C57.6601 22.3353 57.2939 22.3918 56.9266 22.38H56.1333V22.22H56.84C57.13 22.238 57.4179 22.1607 57.66 22C57.8481 21.8592 57.9841 21.6598 58.0466 21.4333C58.1156 21.1837 58.1493 20.9256 58.1467 20.6666C58.1753 20.2676 58.0798 19.8694 57.8733 19.5266C57.758 19.3919 57.6114 19.2874 57.4464 19.2223C57.2814 19.1572 57.1029 19.1335 56.9266 19.1533C56.8459 19.1416 56.7637 19.1475 56.6854 19.1705C56.6072 19.1935 56.5348 19.2331 56.4733 19.2866C56.3832 19.4563 56.346 19.649 56.3666 19.84V23.8C56.3597 23.9518 56.3824 24.1035 56.4333 24.2466C56.4553 24.2955 56.4884 24.3385 56.5302 24.3721C56.5719 24.4057 56.6209 24.4289 56.6733 24.44C56.8441 24.4773 57.0185 24.4952 57.1933 24.4933V24.6666H56.6333H55.3333H54.84V24.5066C54.9779 24.5022 55.1146 24.4798 55.2466 24.44C55.2902 24.4251 55.3295 24.3996 55.3609 24.3659C55.3923 24.3321 55.4149 24.2912 55.4266 24.2466C55.4621 24.105 55.4778 23.9592 55.4733 23.8133V19.8133C55.4778 19.6674 55.4621 19.5216 55.4266 19.38C55.4137 19.335 55.3899 19.2938 55.3574 19.2601C55.3248 19.2264 55.2845 19.2012 55.24 19.1866C55.1083 19.1457 54.9712 19.1255 54.8333 19.1266L54.8066 19.0066Z" fill="#222222"/>
<path d="M63.0199 18.8933C63.5026 18.8844 63.9789 19.004 64.3999 19.24C64.8018 19.4694 65.1266 19.8127 65.3333 20.2266C65.5643 20.7158 65.6762 21.2526 65.6599 21.7933C65.6704 22.3249 65.5586 22.8517 65.3333 23.3333C65.1238 23.7631 64.7982 24.1257 64.3933 24.38C63.9807 24.6334 63.504 24.763 63.0199 24.7533C62.535 24.7641 62.0561 24.6444 61.6333 24.4066C61.2354 24.1734 60.9154 23.8278 60.7133 23.4133C60.493 22.9204 60.3792 22.3865 60.3792 21.8466C60.3792 21.3067 60.493 20.7729 60.7133 20.28C60.9229 19.8524 61.2457 19.4904 61.6466 19.2333C62.0621 18.9901 62.539 18.872 63.0199 18.8933ZM63.0199 19.04C62.8587 19.0387 62.6989 19.0699 62.55 19.1317C62.4011 19.1936 62.2661 19.2848 62.1533 19.4C61.8858 19.6796 61.6912 20.0207 61.5866 20.3933C61.4456 20.8692 61.3782 21.3638 61.3866 21.86C61.3671 22.3585 61.4324 22.8567 61.5799 23.3333C61.6975 23.7015 61.9062 24.034 62.1866 24.3C62.4198 24.5182 62.7272 24.6397 63.0466 24.64C63.2068 24.6411 63.3656 24.6098 63.5134 24.548C63.6613 24.4861 63.795 24.3949 63.9066 24.28C64.1733 23.9971 64.3677 23.6541 64.4733 23.28C64.612 22.8083 64.6772 22.3181 64.6666 21.8266C64.6776 21.3239 64.6009 20.8231 64.4399 20.3466C64.3204 19.9794 64.112 19.6474 63.8333 19.38C63.6069 19.1629 63.3069 19.0391 62.9933 19.0333L63.0199 19.04Z" fill="#222222"/>
<path d="M69.1266 19.0067V19.1667C68.991 19.1656 68.856 19.1858 68.7266 19.2267C68.6826 19.2422 68.6428 19.2677 68.6104 19.3013C68.578 19.3348 68.5539 19.3755 68.54 19.42C68.5026 19.5613 68.4869 19.7074 68.4933 19.8533V23.8533C68.4869 23.9993 68.5026 24.1454 68.54 24.2867C68.5529 24.3317 68.5767 24.3729 68.6092 24.4066C68.6418 24.4403 68.6821 24.4655 68.7266 24.48C68.8565 24.5196 68.991 24.542 69.1266 24.5467V24.6667H68.6666H67.44H66.96V24.5067C67.0978 24.5019 67.2345 24.4795 67.3666 24.44C67.4115 24.426 67.4521 24.401 67.4847 24.3672C67.5173 24.3334 67.5409 24.292 67.5533 24.2467C67.5887 24.1051 67.6044 23.9592 67.6 23.8133V19.8133C67.6045 19.6674 67.5888 19.5216 67.5533 19.38C67.5403 19.335 67.5166 19.2938 67.484 19.2601C67.4515 19.2264 67.4112 19.2012 67.3666 19.1867C67.235 19.1458 67.0978 19.1255 66.96 19.1267V18.9667H67.44H68.6666L69.1266 19.0067ZM71.24 19.5067C71.24 19.6178 71.24 19.7333 71.24 19.8533L68.2133 24.3933V24.0867L71.24 19.5067ZM72.6533 19.0067V19.1667C72.5177 19.1656 72.3827 19.1858 72.2533 19.2267C72.2093 19.2422 72.1695 19.2677 72.1371 19.3013C72.1047 19.3348 72.0806 19.3755 72.0666 19.42C72.0294 19.5613 72.0137 19.7074 72.02 19.8533V23.8533C72.0138 23.9993 72.0295 24.1454 72.0666 24.2867C72.0796 24.3317 72.1034 24.3729 72.1359 24.4066C72.1685 24.4403 72.2088 24.4655 72.2533 24.48C72.3831 24.5196 72.5176 24.542 72.6533 24.5467V24.6667H72.18H70.96H70.4666V24.5067C70.6023 24.502 70.7368 24.4796 70.8666 24.44C70.9112 24.4255 70.9515 24.4003 70.984 24.3666C71.0166 24.3329 71.0404 24.2917 71.0533 24.2467C71.0905 24.1054 71.1062 23.9593 71.1 23.8133V19.8133C71.1063 19.6674 71.0906 19.5213 71.0533 19.38C71.0394 19.3355 71.0152 19.2948 70.9828 19.2613C70.9504 19.2277 70.9106 19.2022 70.8666 19.1867C70.7373 19.1458 70.6023 19.1256 70.4666 19.1267V18.9667H70.96H72.18L72.6533 19.0067Z" fill="#222222"/>
<path d="M78.4867 19.0066C78.4867 19.2289 78.4712 19.4511 78.4401 19.6733C78.409 19.8955 78.409 20.0577 78.4401 20.16C78.4401 20.2844 78.4401 20.4022 78.4401 20.5133C78.4401 20.6266 78.4401 20.72 78.4401 20.8H78.2534C78.2179 20.4774 78.1463 20.1599 78.0401 19.8533C77.973 19.6487 77.8392 19.4727 77.6601 19.3533C77.4405 19.2388 77.194 19.1858 76.9467 19.2H76.6001V23.7666C76.593 23.9289 76.6133 24.0911 76.6601 24.2466C76.6794 24.2992 76.7114 24.3462 76.7533 24.3834C76.7952 24.4206 76.8456 24.4469 76.9001 24.46C77.0726 24.5015 77.2493 24.5238 77.4267 24.5266V24.6666H76.8467H75.4001H74.8534V24.5066C75.0287 24.504 75.2031 24.4816 75.3734 24.44C75.4274 24.4259 75.4773 24.3992 75.519 24.3621C75.5608 24.3251 75.5931 24.2786 75.6134 24.2266C75.6648 24.0721 75.6874 23.9094 75.6801 23.7466V19.1866H75.3334C75.1024 19.1789 74.8732 19.2294 74.6668 19.3333C74.4832 19.4495 74.3464 19.6265 74.2801 19.8333C74.1773 20.1405 74.108 20.4579 74.0734 20.78H73.8868C73.8917 20.6845 73.8917 20.5888 73.8868 20.4933C73.8868 20.3822 73.8868 20.2644 73.8868 20.14C73.8868 20.0155 73.8868 19.8533 73.8868 19.6533C73.8868 19.4444 73.8712 19.2222 73.8401 18.9866H74.5934H77.7401L78.4867 19.0066Z" fill="#222222"/>
<path d="M83.76 19.0067C83.76 19.2111 83.7445 19.4067 83.7134 19.5933C83.6823 19.78 83.6823 19.9244 83.7134 20.0267C83.7134 20.1289 83.7134 20.2244 83.7134 20.3133C83.7134 20.4067 83.7134 20.48 83.7134 20.54H83.5267C83.5032 20.2649 83.445 19.9938 83.3534 19.7333C83.292 19.5562 83.169 19.4071 83.0067 19.3133C82.7991 19.2143 82.5695 19.1707 82.34 19.1867H81.7867C81.6562 19.1832 81.526 19.1989 81.4 19.2333C81.3584 19.2458 81.3204 19.2681 81.2891 19.2982C81.2578 19.3284 81.2341 19.3655 81.22 19.4067C81.1823 19.541 81.1665 19.6806 81.1734 19.82V23.86C81.1679 23.9971 81.1837 24.1343 81.22 24.2667C81.2332 24.309 81.2565 24.3475 81.2878 24.3789C81.3192 24.4103 81.3577 24.4335 81.4 24.4467C81.526 24.4811 81.6562 24.4968 81.7867 24.4933H82.3067C82.5573 24.5043 82.8067 24.454 83.0334 24.3467C83.2196 24.2406 83.3633 24.0734 83.4401 23.8733C83.5509 23.5842 83.6226 23.2815 83.6534 22.9733H83.8401C83.8401 23.1289 83.8401 23.3311 83.8401 23.58C83.8401 23.6867 83.8401 23.8422 83.8401 24.0467C83.8401 24.2511 83.8556 24.46 83.8867 24.6733H82.9667H80.5134H79.6334V24.5133C79.7712 24.5089 79.908 24.4865 80.04 24.4467C80.0836 24.4317 80.1229 24.4063 80.1543 24.3726C80.1857 24.3388 80.2083 24.2979 80.22 24.2533C80.2555 24.1117 80.2712 23.9659 80.2667 23.82V19.82C80.2712 19.6741 80.2555 19.5283 80.22 19.3867C80.2071 19.3416 80.1833 19.3005 80.1508 19.2668C80.1182 19.2331 80.0779 19.2078 80.0334 19.1933C79.9017 19.1524 79.7646 19.1322 79.6267 19.1333V18.9733H80.5067H82.8867L83.76 19.0067ZM82.4267 21.7467V21.9067H80.9734V21.7467H82.4267ZM82.6667 20.6667C82.6667 20.9733 82.6667 21.1956 82.6667 21.3333C82.6667 21.4711 82.6667 21.6178 82.6667 21.7733C82.6667 21.9067 82.6667 22.0533 82.6667 22.2133C82.6667 22.3733 82.68 22.5956 82.7067 22.88H82.52C82.4934 22.7093 82.4578 22.5402 82.4134 22.3733C82.377 22.2232 82.2984 22.0867 82.1867 21.98C82.0431 21.867 81.8622 21.8123 81.68 21.8267V21.6667C81.7715 21.6751 81.8637 21.6634 81.9501 21.6323C82.0365 21.6012 82.115 21.5515 82.18 21.4867C82.2845 21.3637 82.3577 21.2173 82.3934 21.06C82.4334 20.8956 82.4667 20.7467 82.4934 20.6133L82.6667 20.6667Z" fill="#222222"/>
<path d="M90.2333 19.0067V19.1667C90.0933 19.1649 89.9538 19.1851 89.82 19.2267C89.776 19.2422 89.7362 19.2677 89.7038 19.3013C89.6714 19.3348 89.6473 19.3755 89.6333 19.42C89.5961 19.5613 89.5804 19.7074 89.5867 19.8534V23.8534C89.5805 23.9993 89.5962 24.1454 89.6333 24.2867C89.6463 24.3317 89.6701 24.3729 89.7026 24.4066C89.7352 24.4403 89.7755 24.4655 89.82 24.48C89.9544 24.5198 90.0933 24.5422 90.2333 24.5467V24.6667H89.7467H88.4133H87.86V24.5067C88.0241 24.5019 88.1873 24.4795 88.3467 24.44C88.3971 24.4281 88.4439 24.4043 88.4833 24.3707C88.5227 24.3371 88.5536 24.2946 88.5733 24.2467C88.6199 24.1072 88.6402 23.9603 88.6333 23.8134V19.8134C88.6581 19.6155 88.6133 19.4152 88.5067 19.2467C88.3634 19.1452 88.1878 19.1001 88.0133 19.12H87.9267C87.7978 19.1142 87.669 19.1323 87.5467 19.1734C87.5054 19.1916 87.4689 19.2192 87.4399 19.2539C87.411 19.2885 87.3905 19.3294 87.38 19.3734C87.3439 19.5153 87.3216 19.6604 87.3133 19.8067C87.2822 20.18 87.2511 20.5911 87.22 21.04C87.1889 21.4889 87.1467 21.9334 87.0933 22.3734C87.0444 22.7773 86.9619 23.1764 86.8467 23.5667C86.7596 23.8848 86.605 24.1804 86.3933 24.4334C86.2997 24.5401 86.1836 24.6248 86.0534 24.6813C85.9231 24.7378 85.7819 24.7647 85.64 24.76C85.4491 24.7615 85.2617 24.7083 85.1 24.6067C85.0205 24.5602 84.9554 24.4926 84.9119 24.4114C84.8684 24.3303 84.8481 24.2386 84.8533 24.1467C84.8499 24.0728 84.8631 23.9991 84.8919 23.9311C84.9208 23.863 84.9645 23.8022 85.02 23.7534C85.1282 23.6571 85.2685 23.6048 85.4133 23.6067C85.5357 23.6011 85.6561 23.6389 85.7534 23.7134C85.7968 23.7485 85.8315 23.7934 85.8547 23.8443C85.8778 23.8952 85.8888 23.9508 85.8867 24.0067C85.8921 24.1333 85.8492 24.2572 85.7667 24.3534C85.6738 24.4497 85.5628 24.5268 85.44 24.58H85.5467H85.64C85.7577 24.5823 85.8743 24.5583 85.9816 24.5099C86.0888 24.4614 86.1839 24.3898 86.26 24.3C86.4467 24.075 86.5851 23.8141 86.6667 23.5334C86.7795 23.1742 86.862 22.8063 86.9133 22.4334C86.9711 22.02 87.0156 21.5889 87.0467 21.14C87.0778 20.6911 87.1067 20.2467 87.1333 19.8067C87.1743 19.6193 87.1408 19.4233 87.04 19.26C86.8742 19.1522 86.6771 19.1029 86.48 19.12V18.96H86.88H87.3333H87.6933H88.04H88.5933H89.1867H89.9267L90.2333 19.0067Z" fill="#222222"/>
<path d="M93.8067 19.0067V19.1667C93.6448 19.1659 93.4834 19.1861 93.3267 19.2267C93.2765 19.2391 93.2299 19.2631 93.1906 19.2966C93.1512 19.3302 93.1202 19.3724 93.1 19.42C93.0576 19.5603 93.0395 19.7069 93.0467 19.8533V23.8533C93.0283 24.045 93.0605 24.2381 93.14 24.4133C93.2 24.5 93.3467 24.54 93.58 24.54C93.845 24.5566 94.1079 24.4838 94.3267 24.3334C94.5014 24.1937 94.6274 24.0023 94.6867 23.7867C94.7564 23.5372 94.79 23.279 94.7867 23.02C94.793 22.7348 94.7501 22.4507 94.66 22.18C94.5906 21.9659 94.4523 21.7807 94.2667 21.6533C94.0408 21.5214 93.7812 21.4588 93.52 21.4733H92.5734V21.3133H93.7134C94.1175 21.2984 94.5201 21.3712 94.8934 21.5267C95.1685 21.6458 95.401 21.8458 95.56 22.1C95.7058 22.3483 95.7796 22.6322 95.7734 22.92C95.773 23.1334 95.737 23.3452 95.6667 23.5467C95.5921 23.7612 95.4715 23.9569 95.3134 24.12C95.1259 24.3088 94.8979 24.4524 94.6467 24.54C94.3118 24.6521 93.9597 24.704 93.6067 24.6934H93.1667H92.5934H92H91.52V24.5333C91.6579 24.5285 91.7945 24.5061 91.9267 24.4667C91.9715 24.4527 92.0121 24.4277 92.0447 24.3939C92.0774 24.3601 92.101 24.3186 92.1134 24.2734C92.1485 24.1317 92.1642 23.9859 92.16 23.84V19.84C92.1643 19.6941 92.1486 19.5483 92.1134 19.4067C92.0999 19.3619 92.0759 19.321 92.0435 19.2874C92.011 19.2537 91.971 19.2284 91.9267 19.2133C91.795 19.1724 91.6579 19.1522 91.52 19.1533V18.9933H92H93.3L93.8067 19.0067Z" fill="#222222"/>
<path d="M99.6733 18.8933C99.9698 18.8826 100.265 18.9349 100.54 19.0467C100.756 19.1443 100.96 19.2674 101.147 19.4133C101.253 19.4933 101.336 19.4933 101.393 19.4133C101.471 19.2799 101.51 19.1276 101.507 18.9733H101.693C101.693 19.1733 101.693 19.42 101.693 19.7067C101.693 19.9933 101.693 20.3733 101.693 20.8467H101.507C101.471 20.6111 101.436 20.4178 101.4 20.2667C101.372 20.1326 101.327 20.0027 101.267 19.88C101.206 19.7656 101.13 19.6601 101.04 19.5667C100.892 19.3783 100.696 19.2333 100.473 19.1467C100.245 19.0614 100.003 19.0184 99.76 19.02C99.5048 19.016 99.2541 19.0879 99.04 19.2267C98.8201 19.3746 98.6394 19.5736 98.5133 19.8067C98.3609 20.0843 98.2507 20.3832 98.1866 20.6933C98.1087 21.0615 98.0707 21.437 98.0733 21.8133C98.0694 22.1945 98.1097 22.5748 98.1933 22.9467C98.2603 23.2548 98.3774 23.5498 98.54 23.82C98.6776 24.0477 98.8673 24.2396 99.0933 24.38C99.3128 24.5108 99.5645 24.5777 99.82 24.5733C100.048 24.5686 100.274 24.5235 100.487 24.44C100.708 24.361 100.903 24.2198 101.047 24.0333C101.19 23.88 101.295 23.695 101.353 23.4933C101.422 23.2241 101.468 22.9499 101.493 22.6733H101.68C101.68 23.1667 101.68 23.5644 101.68 23.8667C101.68 24.1689 101.68 24.4244 101.68 24.6333H101.493C101.495 24.4822 101.458 24.3332 101.387 24.2C101.338 24.1422 101.253 24.1422 101.133 24.2C100.935 24.3401 100.726 24.4628 100.507 24.5667C100.237 24.6796 99.9455 24.7319 99.6533 24.72C99.1684 24.7308 98.6894 24.6111 98.2666 24.3733C97.8742 24.1618 97.5504 23.8426 97.3333 23.4533C97.1126 22.9605 96.9985 22.4266 96.9985 21.8867C96.9985 21.3467 97.1126 20.8128 97.3333 20.32C97.543 19.8924 97.8657 19.5304 98.2666 19.2733C98.6874 19.0098 99.1771 18.8775 99.6733 18.8933Z" fill="#222222"/>
<path d="M107.713 19.0067C107.713 19.2333 107.68 19.4467 107.667 19.6733C107.653 19.9 107.667 20.0467 107.667 20.16C107.667 20.2733 107.667 20.4 107.667 20.5133C107.667 20.6267 107.667 20.72 107.667 20.8H107.48C107.444 20.4775 107.373 20.16 107.267 19.8533C107.2 19.6488 107.066 19.4727 106.887 19.3533C106.667 19.2389 106.421 19.1859 106.173 19.2H105.827V23.7667C105.82 23.9289 105.84 24.0911 105.887 24.2467C105.906 24.2993 105.938 24.3462 105.98 24.3835C106.022 24.4207 106.072 24.447 106.127 24.46C106.299 24.5015 106.476 24.5239 106.653 24.5267V24.6667H106.073H104.667H104.12V24.5067C104.295 24.504 104.47 24.4816 104.64 24.44C104.694 24.4259 104.744 24.3993 104.786 24.3622C104.827 24.3251 104.86 24.2787 104.88 24.2267C104.931 24.0719 104.953 23.9094 104.947 23.7467V19.1867H104.593C104.348 19.1741 104.104 19.227 103.887 19.34C103.703 19.4562 103.566 19.6332 103.5 19.84C103.398 20.1473 103.328 20.4647 103.293 20.7867H103.107C103.112 20.6912 103.112 20.5955 103.107 20.5C103.107 20.3889 103.107 20.2711 103.107 20.1467C103.107 20.0222 103.107 19.86 103.107 19.66C103.107 19.4467 103.107 19.2333 103.06 18.9933H103.813H106.96L107.713 19.0067Z" fill="#222222"/>
<path d="M108.893 19.0067H109.373H111.18C111.651 18.9741 112.12 19.0983 112.513 19.36C112.654 19.4648 112.768 19.6017 112.846 19.7594C112.924 19.9171 112.963 20.091 112.96 20.2667C112.959 20.4611 112.913 20.6526 112.827 20.8267C112.728 21.0264 112.582 21.1982 112.4 21.3267C112.162 21.4912 111.895 21.6089 111.613 21.6734C111.983 21.7112 112.341 21.8222 112.667 22C112.895 22.1171 113.085 22.2977 113.213 22.52C113.317 22.7126 113.372 22.9278 113.373 23.1467C113.38 23.3632 113.335 23.5782 113.242 23.774C113.149 23.9698 113.011 24.1409 112.84 24.2734C112.398 24.5736 111.866 24.7125 111.333 24.6667H110.8H109.94H109.34H108.86V24.5067C108.998 24.5023 109.135 24.4799 109.267 24.44C109.31 24.4251 109.349 24.3996 109.381 24.3659C109.412 24.3322 109.435 24.2912 109.447 24.2467C109.482 24.1051 109.498 23.9593 109.493 23.8134V19.8134C109.498 19.6675 109.482 19.5216 109.447 19.38C109.434 19.335 109.41 19.2938 109.377 19.2601C109.345 19.2264 109.304 19.2012 109.26 19.1867C109.128 19.1458 108.991 19.1256 108.853 19.1267L108.893 19.0067ZM111.007 19.1667C110.926 19.155 110.844 19.1608 110.765 19.1839C110.687 19.2069 110.615 19.2465 110.553 19.3C110.463 19.4696 110.426 19.6624 110.447 19.8534V23.8534C110.425 24.0409 110.465 24.2303 110.56 24.3934C110.696 24.4941 110.865 24.5394 111.033 24.52C111.224 24.5376 111.416 24.5139 111.597 24.4507C111.777 24.3874 111.942 24.286 112.08 24.1534C112.314 23.8593 112.431 23.4886 112.407 23.1134C112.427 22.7651 112.309 22.4228 112.08 22.16C111.933 22.0353 111.762 21.9416 111.577 21.8843C111.393 21.8271 111.199 21.8075 111.007 21.8267H110.227V21.6934H110.893C111.129 21.7051 111.362 21.6421 111.56 21.5134C111.719 21.3938 111.834 21.2251 111.887 21.0334C111.948 20.8166 111.977 20.592 111.973 20.3667C111.995 20.0514 111.913 19.7377 111.74 19.4734C111.648 19.3707 111.535 19.2898 111.408 19.2367C111.281 19.1837 111.144 19.1597 111.007 19.1667Z" fill="#222222"/>
<path d="M117.387 18.8933C117.869 18.8844 118.346 19.004 118.767 19.24C119.166 19.4704 119.488 19.8137 119.693 20.2267C119.925 20.7157 120.037 21.2526 120.02 21.7933C120.034 22.3366 119.919 22.8755 119.687 23.3667C119.478 23.7967 119.152 24.1594 118.747 24.4133C118.334 24.6668 117.857 24.7964 117.373 24.7867C116.888 24.7975 116.41 24.6777 115.987 24.44C115.589 24.2068 115.269 23.8612 115.067 23.4467C114.846 22.9539 114.732 22.42 114.732 21.88C114.732 21.34 114.846 20.8062 115.067 20.3133C115.276 19.8857 115.599 19.5237 116 19.2667C116.416 19.0093 116.898 18.8795 117.387 18.8933ZM117.387 19.04C117.225 19.0387 117.066 19.0699 116.917 19.1318C116.768 19.1936 116.633 19.2848 116.52 19.4C116.252 19.6795 116.058 20.0207 115.953 20.3933C115.812 20.8691 115.745 21.3638 115.753 21.86C115.744 22.3627 115.82 22.8633 115.98 23.34C116.097 23.7083 116.306 24.0409 116.587 24.3067C116.82 24.5249 117.127 24.6464 117.447 24.6467C117.607 24.6478 117.766 24.6165 117.914 24.5547C118.061 24.4928 118.195 24.4016 118.307 24.2867C118.573 24.0038 118.768 23.6608 118.873 23.2867C119.017 22.8136 119.087 22.3211 119.08 21.8267C119.091 21.3239 119.014 20.8231 118.853 20.3467C118.734 19.9796 118.525 19.6476 118.247 19.38C118.126 19.2637 117.982 19.1731 117.825 19.1135C117.668 19.0539 117.501 19.0267 117.333 19.0333L117.387 19.04Z" fill="#222222"/>
<path d="M121.92 23.6934C121.994 23.6909 122.069 23.7032 122.139 23.7295C122.208 23.7558 122.272 23.7956 122.327 23.8467C122.381 23.8977 122.424 23.9598 122.453 24.0288C122.482 24.0977 122.495 24.172 122.493 24.2467C122.494 24.3193 122.48 24.3913 122.451 24.4579C122.423 24.5246 122.38 24.5844 122.327 24.6334C122.216 24.7336 122.072 24.7892 121.923 24.7892C121.774 24.7892 121.63 24.7336 121.52 24.6334C121.466 24.5844 121.424 24.5246 121.395 24.4579C121.366 24.3913 121.352 24.3193 121.353 24.2467C121.351 24.172 121.365 24.0977 121.394 24.0288C121.422 23.9598 121.465 23.8977 121.52 23.8467C121.628 23.7446 121.772 23.6894 121.92 23.6934Z" fill="#222222"/>
<path d="M130.927 19.0067V19.1667C130.787 19.1655 130.647 19.1857 130.513 19.2267C130.469 19.2422 130.429 19.2677 130.397 19.3013C130.365 19.3348 130.341 19.3755 130.327 19.42C130.289 19.5612 130.273 19.7074 130.28 19.8533V23.8533C130.255 24.0495 130.295 24.2485 130.393 24.42C130.545 24.5256 130.73 24.5708 130.913 24.5467H131.153C131.153 24.7378 131.138 24.9244 131.107 25.1067C131.075 25.2889 131.075 25.4289 131.107 25.5267C131.097 25.6954 131.097 25.8646 131.107 26.0333H130.92C130.896 25.767 130.837 25.5049 130.747 25.2533C130.685 25.0745 130.559 24.9249 130.393 24.8333C130.185 24.7371 129.956 24.6936 129.727 24.7067H127.6C127.371 24.6933 127.142 24.7368 126.933 24.8333C126.769 24.9252 126.646 25.075 126.587 25.2533C126.499 25.5059 126.441 25.7676 126.413 26.0333H126.227C126.237 25.8646 126.237 25.6954 126.227 25.5267C126.227 25.4289 126.227 25.2889 126.227 25.1067C126.227 24.9244 126.211 24.7378 126.18 24.5467H128.673C128.858 24.5693 129.045 24.5243 129.2 24.42C129.303 24.2501 129.345 24.0504 129.32 23.8533V19.8533C129.345 19.6554 129.3 19.4549 129.193 19.2867C129.05 19.1852 128.874 19.1401 128.7 19.16H128.667C128.542 19.1543 128.418 19.1724 128.3 19.2133C128.259 19.2316 128.222 19.2591 128.193 19.2938C128.164 19.3285 128.144 19.3694 128.133 19.4133C128.097 19.5554 128.075 19.7004 128.067 19.8467C128.035 20.2111 128.004 20.6089 127.973 21.04C127.942 21.4711 127.9 21.9 127.847 22.3267C127.798 22.7218 127.715 23.1121 127.6 23.4933C127.512 23.8049 127.357 24.0938 127.147 24.34C127.052 24.4452 126.936 24.5284 126.805 24.5837C126.675 24.639 126.535 24.665 126.393 24.66V24.5067C126.51 24.5097 126.627 24.4868 126.734 24.4395C126.841 24.3923 126.937 24.3218 127.013 24.2333C127.197 24.015 127.333 23.7607 127.413 23.4867C127.524 23.1338 127.606 22.7726 127.66 22.4067C127.722 22.0022 127.769 21.5822 127.8 21.1467C127.831 20.7111 127.86 20.2778 127.887 19.8467C127.924 19.6592 127.89 19.4646 127.793 19.3C127.63 19.1922 127.435 19.1428 127.24 19.16V19H127.64H128H128.36H128.707H129.26H129.853H130.593L130.927 19.0067Z" fill="#222222"/>
<path d="M134.433 19.0067V19.1667C134.298 19.1662 134.163 19.1864 134.033 19.2267C133.989 19.2422 133.95 19.2677 133.917 19.3013C133.885 19.3348 133.861 19.3755 133.847 19.42C133.809 19.5613 133.794 19.7074 133.8 19.8533V23.8533C133.794 23.9993 133.81 24.1454 133.847 24.2867C133.86 24.3317 133.883 24.3729 133.916 24.4066C133.948 24.4403 133.989 24.4655 134.033 24.48C134.163 24.5195 134.298 24.5419 134.433 24.5467V24.6667H133.947H132.72H132.24V24.5067C132.378 24.5019 132.515 24.4795 132.647 24.44C132.691 24.426 132.732 24.401 132.765 24.3672C132.797 24.3334 132.821 24.292 132.833 24.2467C132.869 24.1051 132.885 23.9592 132.88 23.8133V19.8133C132.885 19.6674 132.869 19.5216 132.833 19.38C132.82 19.335 132.797 19.2938 132.764 19.2601C132.732 19.2264 132.691 19.2012 132.647 19.1867C132.515 19.1458 132.378 19.1255 132.24 19.1267V18.9667H132.72H133.947L134.433 19.0067ZM136.547 19.5067C136.547 19.6178 136.547 19.7333 136.547 19.8533L133.52 24.3933V24.0867L136.547 19.5067ZM137.96 19.0067V19.1667C137.824 19.1656 137.689 19.1858 137.56 19.2267C137.516 19.2422 137.476 19.2677 137.444 19.3013C137.411 19.3348 137.387 19.3755 137.373 19.42C137.336 19.5612 137.32 19.7074 137.327 19.8533V23.8533C137.32 23.9993 137.336 24.1454 137.373 24.2867C137.386 24.3317 137.41 24.3729 137.443 24.4066C137.475 24.4403 137.515 24.4655 137.56 24.48C137.69 24.5196 137.824 24.542 137.96 24.5467V24.6667H137.487H136.267H135.773V24.5067C135.909 24.5021 136.043 24.4797 136.173 24.44C136.218 24.4255 136.258 24.4003 136.291 24.3666C136.323 24.3329 136.347 24.2917 136.36 24.2467C136.397 24.1054 136.413 23.9593 136.407 23.8133V19.8133C136.413 19.6674 136.397 19.5213 136.36 19.38C136.346 19.3355 136.322 19.2948 136.29 19.2613C136.257 19.2277 136.217 19.2022 136.173 19.1867C136.044 19.1458 135.909 19.1256 135.773 19.1267V18.9667H136.267H137.487L137.96 19.0067Z" fill="#222222"/>
<path d="M141.167 18.8933C141.593 18.875 142.015 18.9891 142.373 19.22C142.52 19.3156 142.641 19.4473 142.722 19.6025C142.804 19.7577 142.845 19.9313 142.84 20.1066C142.844 20.3176 142.788 20.5254 142.68 20.7066C142.571 20.8858 142.429 21.0421 142.26 21.1666C142.087 21.2956 141.899 21.403 141.7 21.4866C141.515 21.5674 141.323 21.6321 141.127 21.68C141.368 21.6862 141.607 21.7197 141.84 21.78C142.075 21.8351 142.3 21.9273 142.507 22.0533C142.694 22.1706 142.853 22.3276 142.973 22.5133C143.098 22.7127 143.158 22.9453 143.147 23.18C143.152 23.4292 143.085 23.6746 142.953 23.8866C142.821 24.0947 142.643 24.2701 142.433 24.4C142.204 24.5419 141.955 24.6476 141.693 24.7133C141.413 24.7861 141.123 24.822 140.833 24.82C140.581 24.8243 140.33 24.7929 140.087 24.7266C139.901 24.6775 139.723 24.6011 139.56 24.5C139.455 24.4262 139.363 24.3362 139.287 24.2333C139.21 24.1291 139.171 24.0025 139.173 23.8733C139.171 23.8063 139.183 23.7396 139.208 23.6776C139.233 23.6155 139.272 23.5595 139.32 23.5133C139.418 23.4234 139.547 23.3755 139.68 23.38C139.812 23.375 139.94 23.4203 140.04 23.5066C140.116 23.6012 140.157 23.7188 140.157 23.84C140.157 23.9612 140.116 24.0787 140.04 24.1733C139.959 24.2605 139.851 24.319 139.733 24.34C139.848 24.4439 139.989 24.5153 140.14 24.5466C140.357 24.6078 140.581 24.637 140.807 24.6333C140.999 24.6474 141.193 24.6196 141.373 24.5517C141.554 24.4837 141.718 24.3774 141.853 24.24C142.092 23.9526 142.216 23.5867 142.2 23.2133C142.204 22.9647 142.159 22.7177 142.067 22.4866C141.982 22.2773 141.841 22.0952 141.66 21.96C141.466 21.8218 141.232 21.7494 140.993 21.7533L140.827 21.8266C140.767 21.8375 140.706 21.8375 140.647 21.8266C140.61 21.8369 140.57 21.8369 140.533 21.8266C140.515 21.8156 140.501 21.7997 140.492 21.7809C140.482 21.7621 140.478 21.741 140.48 21.72C140.48 21.6355 140.536 21.5933 140.647 21.5933H140.833H141C141.201 21.5302 141.383 21.4205 141.533 21.2733C141.66 21.1371 141.751 20.9724 141.8 20.7933C141.856 20.5892 141.883 20.3782 141.88 20.1666C141.899 19.8691 141.825 19.573 141.667 19.32C141.587 19.2222 141.484 19.1451 141.368 19.0952C141.252 19.0453 141.126 19.0241 141 19.0333C140.745 19.023 140.495 19.1033 140.293 19.26C140.102 19.4184 139.953 19.6224 139.86 19.8533C139.759 20.1017 139.7 20.3654 139.687 20.6333H139.5C139.5 20.2955 139.5 20.02 139.5 19.8066C139.5 19.5933 139.5 19.4178 139.5 19.28C139.5 19.14 139.5 19.02 139.5 18.92H139.687C139.697 19.0173 139.717 19.1134 139.747 19.2066C139.754 19.236 139.772 19.2619 139.796 19.28C139.82 19.2982 139.85 19.3076 139.88 19.3066C139.968 19.2922 140.051 19.2555 140.12 19.2L140.373 19.04C140.478 18.9807 140.59 18.9359 140.707 18.9066C140.859 18.8845 141.013 18.88 141.167 18.8933Z" fill="#222222"/>
<path d="M146.747 18.9734L148.667 24C148.713 24.1557 148.803 24.2946 148.927 24.4C149.006 24.4622 149.1 24.5014 149.2 24.5134V24.6667H148.747H147.593H147.127V24.5067C147.309 24.5234 147.491 24.4737 147.64 24.3667C147.711 24.2822 147.693 24.1045 147.587 23.8334L146.147 19.94L146.273 19.7934L144.94 23.2734C144.83 23.5078 144.767 23.7614 144.753 24.02C144.749 24.0932 144.763 24.1664 144.796 24.232C144.829 24.2976 144.879 24.3533 144.94 24.3934C145.101 24.4745 145.28 24.5135 145.46 24.5067V24.6667H144.973H144.173H143.907V24.5067C144.034 24.4706 144.149 24.4016 144.24 24.3067C144.383 24.1484 144.492 23.9623 144.56 23.76L146.42 18.96H146.693L146.747 18.9734ZM147.587 22.3734V22.5334H145.2L145.28 22.3734H147.587Z" fill="#222222"/>
<path d="M152.32 19.0066V19.1666C152.184 19.1662 152.05 19.1864 151.92 19.2266C151.876 19.2421 151.836 19.2677 151.804 19.3012C151.771 19.3348 151.747 19.3755 151.733 19.42C151.696 19.5613 151.68 19.7073 151.687 19.8533V23.8533C151.68 23.9993 151.696 24.1453 151.733 24.2866C151.746 24.3317 151.77 24.3728 151.803 24.4065C151.835 24.4402 151.875 24.4655 151.92 24.48C152.05 24.5195 152.184 24.5419 152.32 24.5466V24.6666H151.833H150.607H150.127V24.5066C150.265 24.5019 150.401 24.4795 150.533 24.44C150.578 24.426 150.619 24.401 150.651 24.3672C150.684 24.3334 150.708 24.2919 150.72 24.2466C150.756 24.105 150.771 23.9592 150.767 23.8133V19.8133C150.771 19.6674 150.756 19.5216 150.72 19.38C150.707 19.335 150.683 19.2938 150.651 19.2601C150.618 19.2264 150.578 19.2012 150.533 19.1866C150.402 19.1457 150.265 19.1255 150.127 19.1266V18.9666H150.607H151.833L152.32 19.0066ZM154.22 17.1133C154.352 17.107 154.481 17.1524 154.58 17.24C154.627 17.2842 154.664 17.3381 154.688 17.398C154.712 17.4578 154.723 17.5222 154.72 17.5866C154.721 17.6982 154.683 17.8066 154.613 17.8933C154.526 17.9968 154.42 18.0827 154.3 18.1466C154.127 18.2371 153.943 18.3065 153.753 18.3533C153.253 18.4704 152.733 18.4704 152.233 18.3533C152.045 18.3076 151.864 18.2382 151.693 18.1466C151.573 18.0871 151.466 18.0031 151.38 17.9C151.31 17.8107 151.272 17.7002 151.273 17.5866C151.27 17.5222 151.281 17.4578 151.305 17.398C151.33 17.3381 151.366 17.2842 151.413 17.24C151.513 17.1531 151.642 17.1077 151.773 17.1133C151.905 17.1103 152.033 17.1553 152.133 17.24C152.183 17.2827 152.222 17.3362 152.247 17.3963C152.272 17.4564 152.284 17.5215 152.28 17.5866C152.284 17.6926 152.245 17.7957 152.173 17.8733C152.099 17.9497 152.004 18.0029 151.9 18.0266C152.056 18.1379 152.237 18.2089 152.427 18.2333C152.806 18.3021 153.194 18.3021 153.573 18.2333C153.763 18.2089 153.944 18.1379 154.1 18.0266C153.993 18.0057 153.895 17.9522 153.82 17.8733C153.749 17.7953 153.71 17.6924 153.713 17.5866C153.71 17.5216 153.722 17.4566 153.747 17.3966C153.772 17.3365 153.811 17.283 153.86 17.24C153.961 17.1553 154.089 17.1103 154.22 17.1133ZM154.433 19.5C154.433 19.6111 154.433 19.7266 154.433 19.8466L151.407 24.3866V24.08L154.433 19.5ZM155.847 19V19.16C155.711 19.1589 155.576 19.1791 155.447 19.22C155.403 19.2355 155.363 19.261 155.331 19.2946C155.298 19.3281 155.274 19.3688 155.26 19.4133C155.222 19.5545 155.207 19.7007 155.213 19.8466V23.8466C155.207 23.9926 155.223 24.1387 155.26 24.28C155.273 24.325 155.297 24.3662 155.329 24.3999C155.362 24.4336 155.402 24.4588 155.447 24.4733C155.577 24.5129 155.711 24.5353 155.847 24.54V24.6666H155.373H154.153H153.66V24.5066C153.796 24.5021 153.93 24.4797 154.06 24.44C154.105 24.4255 154.145 24.4002 154.177 24.3665C154.21 24.3328 154.234 24.2917 154.247 24.2466C154.284 24.1053 154.3 23.9593 154.293 23.8133V19.8133C154.3 19.6673 154.284 19.5213 154.247 19.38C154.233 19.3355 154.209 19.2948 154.176 19.2612C154.144 19.2277 154.104 19.2021 154.06 19.1866C153.931 19.1458 153.796 19.1255 153.66 19.1266V18.9666H154.153H155.373L155.847 19Z" fill="#222222"/>
<path d="M157.113 24.6667V24.5067C157.251 24.5023 157.388 24.4799 157.52 24.44C157.564 24.4251 157.603 24.3996 157.634 24.3659C157.666 24.3322 157.688 24.2912 157.7 24.2467C157.736 24.1051 157.751 23.9592 157.747 23.8133V19.8133C157.751 19.6674 157.736 19.5216 157.7 19.38C157.687 19.335 157.663 19.2938 157.631 19.2601C157.598 19.2264 157.558 19.2012 157.513 19.1867C157.382 19.1458 157.245 19.1255 157.107 19.1267V18.9667H157.587H158.813H159.3V19.1267C159.164 19.1262 159.03 19.1464 158.9 19.1867C158.856 19.2022 158.816 19.2277 158.784 19.2613C158.751 19.2948 158.727 19.3355 158.713 19.38C158.676 19.5213 158.66 19.6674 158.667 19.8133V23.8133C158.66 23.9593 158.676 24.1054 158.713 24.2467C158.726 24.2917 158.75 24.3329 158.783 24.3666C158.815 24.4003 158.855 24.4255 158.9 24.44C159.03 24.4795 159.164 24.5019 159.3 24.5067V24.6667H158.813H157.587H157.113ZM158.307 21.8933V21.7333H161.473V21.8933H158.307ZM160.48 24.6667V24.5067C160.618 24.5022 160.755 24.4798 160.887 24.44C160.93 24.4251 160.97 24.3996 161.001 24.3659C161.032 24.3322 161.055 24.2912 161.067 24.2467C161.102 24.1051 161.118 23.9592 161.113 23.8133V19.8133C161.118 19.6674 161.102 19.5216 161.067 19.38C161.054 19.335 161.03 19.2938 160.997 19.2601C160.965 19.2264 160.925 19.2012 160.88 19.1867C160.748 19.1458 160.611 19.1255 160.473 19.1267V18.9667H160.973H162.193H162.66V19.1267C162.524 19.1256 162.389 19.1458 162.26 19.1867C162.216 19.2022 162.176 19.2277 162.144 19.2613C162.111 19.2948 162.087 19.3355 162.073 19.38C162.036 19.5213 162.02 19.6674 162.027 19.8133V23.8133C162.02 23.9593 162.036 24.1054 162.073 24.2467C162.086 24.2917 162.11 24.3329 162.143 24.3666C162.175 24.4003 162.215 24.4255 162.26 24.44C162.39 24.4796 162.524 24.502 162.66 24.5067V24.6667H162.193H160.973H160.48Z" fill="#222222"/>
</g>
<defs>
<clipPath id="clip0">
<rect width="162.667" height="26" fill="white"/>
</clipPath>
</defs>
</svg>
